<svg width="1506" height="224" viewBox="0 0 1506 224" fill="none" xmlns="http://www.w3.org/2000/svg">
    <rect width="1506" height="224" fill="white"/>
    <rect x="218" y="124" width="1280" height="88" rx="6" fill="#FFC943" stroke="#757575" stroke-width="4" stroke-linecap="round"/>
    <rect x="218" y="124" width="320" height="88" rx="6" fill="#FFC943" stroke="#757575" stroke-width="4" stroke-linecap="round"/>
    <path d="M382.382 153.909V183H377.979V158.312H377.808L370.848 162.858V158.653L378.107 153.909H382.382Z" fill="black" fill-opacity="0.8"/>
    <rect x="538" y="124" width="320" height="88" rx="6" fill="#FFC943" stroke="#757575" stroke-width="4" stroke-linecap="round"/>
    <path d="M655.563 183V153.909H673.702V157.688H659.952V165.642H666.458C668.617 165.642 670.449 165.992 671.955 166.693C673.47 167.394 674.625 168.384 675.421 169.662C676.226 170.94 676.628 172.446 676.628 174.179C676.628 175.912 676.226 177.441 675.421 178.767C674.625 180.093 673.47 181.13 671.955 181.878C670.449 182.626 668.617 183 666.458 183H655.563ZM659.952 179.307H666.458C667.708 179.307 668.764 179.061 669.625 178.568C670.497 178.076 671.155 177.437 671.6 176.651C672.054 175.865 672.282 175.022 672.282 174.122C672.282 172.815 671.78 171.693 670.776 170.756C669.772 169.809 668.333 169.335 666.458 169.335H659.952V179.307ZM680.592 191.182V161.182H684.74V164.719H685.095C685.341 164.264 685.696 163.739 686.16 163.142C686.624 162.545 687.268 162.025 688.092 161.58C688.916 161.125 690.005 160.898 691.359 160.898C693.12 160.898 694.692 161.343 696.075 162.233C697.458 163.123 698.542 164.406 699.328 166.082C700.123 167.759 700.521 169.776 700.521 172.134C700.521 174.491 700.128 176.513 699.342 178.199C698.556 179.875 697.476 181.168 696.103 182.077C694.73 182.976 693.163 183.426 691.402 183.426C690.076 183.426 688.992 183.204 688.149 182.759C687.315 182.313 686.662 181.793 686.189 181.196C685.715 180.599 685.351 180.069 685.095 179.605H684.839V191.182H680.592ZM684.754 172.091C684.754 173.625 684.976 174.97 685.422 176.125C685.867 177.28 686.511 178.185 687.353 178.838C688.196 179.482 689.228 179.804 690.45 179.804C691.719 179.804 692.779 179.468 693.632 178.795C694.484 178.114 695.128 177.19 695.564 176.026C696.009 174.861 696.231 173.549 696.231 172.091C696.231 170.652 696.013 169.359 695.578 168.213C695.152 167.067 694.508 166.163 693.646 165.5C692.794 164.837 691.728 164.506 690.45 164.506C689.219 164.506 688.177 164.823 687.325 165.457C686.482 166.092 685.843 166.977 685.407 168.114C684.972 169.25 684.754 170.576 684.754 172.091ZM710.749 183.483C709.366 183.483 708.116 183.227 706.999 182.716C705.881 182.195 704.996 181.442 704.343 180.457C703.699 179.473 703.377 178.265 703.377 176.835C703.377 175.604 703.614 174.591 704.087 173.795C704.56 173 705.2 172.37 706.005 171.906C706.81 171.442 707.709 171.092 708.703 170.855C709.698 170.618 710.711 170.438 711.743 170.315C713.05 170.164 714.111 170.041 714.925 169.946C715.739 169.842 716.331 169.676 716.701 169.449C717.07 169.222 717.255 168.852 717.255 168.341V168.241C717.255 167.001 716.904 166.04 716.203 165.358C715.512 164.676 714.48 164.335 713.107 164.335C711.677 164.335 710.55 164.652 709.726 165.287C708.912 165.912 708.348 166.608 708.036 167.375L704.044 166.466C704.518 165.14 705.209 164.07 706.118 163.256C707.037 162.432 708.093 161.835 709.286 161.466C710.479 161.087 711.734 160.898 713.05 160.898C713.921 160.898 714.845 161.002 715.82 161.21C716.805 161.409 717.723 161.778 718.576 162.318C719.437 162.858 720.143 163.63 720.692 164.634C721.241 165.628 721.516 166.92 721.516 168.511V183H717.368V180.017H717.198C716.923 180.566 716.511 181.106 715.962 181.636C715.413 182.167 714.707 182.607 713.846 182.957C712.984 183.308 711.952 183.483 710.749 183.483ZM711.672 180.074C712.846 180.074 713.85 179.842 714.684 179.378C715.526 178.914 716.166 178.308 716.601 177.56C717.046 176.802 717.269 175.992 717.269 175.131V172.318C717.117 172.47 716.824 172.612 716.388 172.744C715.962 172.867 715.474 172.976 714.925 173.071C714.376 173.156 713.841 173.237 713.32 173.312C712.799 173.379 712.364 173.436 712.013 173.483C711.189 173.587 710.436 173.762 709.755 174.009C709.082 174.255 708.542 174.61 708.135 175.074C707.738 175.528 707.539 176.134 707.539 176.892C707.539 177.943 707.927 178.739 708.703 179.278C709.48 179.809 710.47 180.074 711.672 180.074ZM723.587 164.847V161.182H741.996V164.847H734.88V183H730.732V164.847H723.587Z" fill="black" fill-opacity="0.8"/>
    <rect x="858" y="124" width="320" height="88" rx="6" fill="#FFC943" stroke="#757575" stroke-width="4" stroke-linecap="round"/>
    <path d="M892.938 183.27C892.162 183.27 891.494 182.995 890.936 182.446C890.377 181.887 890.098 181.215 890.098 180.429C890.098 179.652 890.377 178.99 890.936 178.44C891.494 177.882 892.162 177.602 892.938 177.602C893.715 177.602 894.383 177.882 894.941 178.44C895.5 178.99 895.779 179.652 895.779 180.429C895.779 180.95 895.647 181.428 895.382 181.864C895.126 182.29 894.785 182.631 894.359 182.886C893.933 183.142 893.459 183.27 892.938 183.27ZM911.668 152.545L902.293 187.375H898.5L907.875 152.545H911.668ZM914.396 191.182V161.182H918.543V164.719H918.899C919.145 164.264 919.5 163.739 919.964 163.142C920.428 162.545 921.072 162.025 921.896 161.58C922.72 161.125 923.809 160.898 925.163 160.898C926.924 160.898 928.496 161.343 929.879 162.233C931.261 163.123 932.346 164.406 933.132 166.082C933.927 167.759 934.325 169.776 934.325 172.134C934.325 174.491 933.932 176.513 933.146 178.199C932.36 179.875 931.28 181.168 929.907 182.077C928.534 182.976 926.967 183.426 925.205 183.426C923.88 183.426 922.795 183.204 921.953 182.759C921.119 182.313 920.466 181.793 919.992 181.196C919.519 180.599 919.154 180.069 918.899 179.605H918.643V191.182H914.396ZM918.558 172.091C918.558 173.625 918.78 174.97 919.225 176.125C919.67 177.28 920.314 178.185 921.157 178.838C922 179.482 923.032 179.804 924.254 179.804C925.523 179.804 926.583 179.468 927.436 178.795C928.288 178.114 928.932 177.19 929.367 176.026C929.812 174.861 930.035 173.549 930.035 172.091C930.035 170.652 929.817 169.359 929.382 168.213C928.955 167.067 928.311 166.163 927.45 165.5C926.597 164.837 925.532 164.506 924.254 164.506C923.023 164.506 921.981 164.823 921.129 165.457C920.286 166.092 919.647 166.977 919.211 168.114C918.775 169.25 918.558 170.576 918.558 172.091ZM947.394 183.44C945.348 183.44 943.563 182.972 942.038 182.034C940.514 181.097 939.33 179.785 938.487 178.099C937.645 176.414 937.223 174.444 937.223 172.19C937.223 169.927 937.645 167.948 938.487 166.253C939.33 164.558 940.514 163.241 942.038 162.304C943.563 161.366 945.348 160.898 947.394 160.898C949.439 160.898 951.224 161.366 952.749 162.304C954.273 163.241 955.457 164.558 956.3 166.253C957.143 167.948 957.564 169.927 957.564 172.19C957.564 174.444 957.143 176.414 956.3 178.099C955.457 179.785 954.273 181.097 952.749 182.034C951.224 182.972 949.439 183.44 947.394 183.44ZM947.408 179.875C948.734 179.875 949.832 179.525 950.703 178.824C951.574 178.123 952.218 177.19 952.635 176.026C953.061 174.861 953.274 173.578 953.274 172.176C953.274 170.784 953.061 169.506 952.635 168.341C952.218 167.167 951.574 166.224 950.703 165.514C949.832 164.804 948.734 164.449 947.408 164.449C946.073 164.449 944.965 164.804 944.084 165.514C943.213 166.224 942.564 167.167 942.138 168.341C941.721 169.506 941.513 170.784 941.513 172.176C941.513 173.578 941.721 174.861 942.138 176.026C942.564 177.19 943.213 178.123 944.084 178.824C944.965 179.525 946.073 179.875 947.408 179.875ZM977.774 166.509L973.925 167.19C973.764 166.698 973.508 166.229 973.158 165.784C972.817 165.339 972.353 164.974 971.766 164.69C971.179 164.406 970.445 164.264 969.564 164.264C968.361 164.264 967.358 164.534 966.553 165.074C965.748 165.604 965.345 166.291 965.345 167.134C965.345 167.863 965.615 168.45 966.155 168.895C966.695 169.34 967.566 169.705 968.769 169.989L972.234 170.784C974.242 171.248 975.738 171.963 976.723 172.929C977.708 173.895 978.2 175.15 978.2 176.693C978.2 178 977.822 179.165 977.064 180.188C976.316 181.201 975.27 181.996 973.925 182.574C972.59 183.152 971.041 183.44 969.28 183.44C966.837 183.44 964.843 182.92 963.3 181.878C961.756 180.827 960.809 179.335 960.459 177.403L964.564 176.778C964.82 177.848 965.345 178.658 966.141 179.207C966.936 179.747 967.973 180.017 969.252 180.017C970.644 180.017 971.756 179.728 972.59 179.151C973.423 178.563 973.84 177.848 973.84 177.006C973.84 176.324 973.584 175.751 973.073 175.287C972.571 174.823 971.799 174.473 970.757 174.236L967.064 173.426C965.028 172.962 963.522 172.223 962.547 171.21C961.581 170.197 961.098 168.914 961.098 167.361C961.098 166.073 961.458 164.946 962.178 163.98C962.897 163.014 963.892 162.261 965.161 161.722C966.43 161.172 967.883 160.898 969.521 160.898C971.879 160.898 973.735 161.409 975.09 162.432C976.444 163.445 977.339 164.804 977.774 166.509ZM992.175 161.182V164.591H980.257V161.182H992.175ZM983.453 155.955H987.7V176.594C987.7 177.418 987.823 178.038 988.07 178.455C988.316 178.862 988.633 179.141 989.021 179.293C989.419 179.435 989.85 179.506 990.314 179.506C990.655 179.506 990.953 179.482 991.209 179.435C991.465 179.387 991.663 179.349 991.805 179.321L992.573 182.83C992.326 182.924 991.976 183.019 991.521 183.114C991.067 183.218 990.499 183.275 989.817 183.284C988.699 183.303 987.658 183.104 986.692 182.688C985.726 182.271 984.945 181.627 984.348 180.756C983.751 179.884 983.453 178.791 983.453 177.474V155.955ZM1005.16 183.44C1003.01 183.44 1001.16 182.981 999.608 182.062C998.064 181.134 996.871 179.832 996.028 178.156C995.195 176.471 994.778 174.496 994.778 172.233C994.778 169.998 995.195 168.028 996.028 166.324C996.871 164.619 998.045 163.289 999.551 162.332C1001.07 161.376 1002.84 160.898 1004.86 160.898C1006.09 160.898 1007.29 161.101 1008.44 161.509C1009.6 161.916 1010.64 162.555 1011.55 163.426C1012.47 164.297 1013.2 165.429 1013.73 166.821C1014.26 168.204 1014.52 169.884 1014.52 171.864V173.369H997.179V170.188H1010.36C1010.36 169.07 1010.13 168.08 1009.68 167.219C1009.22 166.348 1008.59 165.661 1007.76 165.159C1006.95 164.657 1005.99 164.406 1004.89 164.406C1003.7 164.406 1002.66 164.7 1001.77 165.287C1000.89 165.865 1000.2 166.622 999.722 167.56C999.248 168.488 999.011 169.496 999.011 170.585V173.071C999.011 174.529 999.267 175.77 999.778 176.793C1000.3 177.815 1001.02 178.597 1001.95 179.136C1002.88 179.667 1003.96 179.932 1005.2 179.932C1006.01 179.932 1006.74 179.818 1007.41 179.591C1008.07 179.354 1008.64 179.004 1009.13 178.54C1009.61 178.076 1009.98 177.503 1010.23 176.821L1014.25 177.545C1013.93 178.729 1013.35 179.766 1012.52 180.656C1011.7 181.537 1010.66 182.223 1009.41 182.716C1008.17 183.199 1006.75 183.44 1005.16 183.44ZM1018.36 183V161.182H1022.46V164.648H1022.69C1023.09 163.473 1023.79 162.55 1024.79 161.878C1025.8 161.196 1026.95 160.855 1028.23 160.855C1028.49 160.855 1028.8 160.865 1029.16 160.884C1029.53 160.902 1029.82 160.926 1030.03 160.955V165.017C1029.86 164.97 1029.56 164.918 1029.12 164.861C1028.69 164.795 1028.25 164.761 1027.82 164.761C1026.81 164.761 1025.92 164.974 1025.13 165.401C1024.35 165.817 1023.74 166.4 1023.28 167.148C1022.83 167.886 1022.6 168.729 1022.6 169.676V183H1018.36ZM1049.18 166.509L1045.33 167.19C1045.17 166.698 1044.91 166.229 1044.56 165.784C1044.22 165.339 1043.75 164.974 1043.17 164.69C1042.58 164.406 1041.85 164.264 1040.97 164.264C1039.76 164.264 1038.76 164.534 1037.95 165.074C1037.15 165.604 1036.75 166.291 1036.75 167.134C1036.75 167.863 1037.02 168.45 1037.56 168.895C1038.1 169.34 1038.97 169.705 1040.17 169.989L1043.64 170.784C1045.64 171.248 1047.14 171.963 1048.12 172.929C1049.11 173.895 1049.6 175.15 1049.6 176.693C1049.6 178 1049.22 179.165 1048.47 180.188C1047.72 181.201 1046.67 181.996 1045.33 182.574C1043.99 183.152 1042.44 183.44 1040.68 183.44C1038.24 183.44 1036.25 182.92 1034.7 181.878C1033.16 180.827 1032.21 179.335 1031.86 177.403L1035.97 176.778C1036.22 177.848 1036.75 178.658 1037.54 179.207C1038.34 179.747 1039.37 180.017 1040.65 180.017C1042.05 180.017 1043.16 179.728 1043.99 179.151C1044.82 178.563 1045.24 177.848 1045.24 177.006C1045.24 176.324 1044.99 175.751 1044.47 175.287C1043.97 174.823 1043.2 174.473 1042.16 174.236L1038.47 173.426C1036.43 172.962 1034.92 172.223 1033.95 171.21C1032.98 170.197 1032.5 168.914 1032.5 167.361C1032.5 166.073 1032.86 164.946 1033.58 163.98C1034.3 163.014 1035.29 162.261 1036.56 161.722C1037.83 161.172 1039.29 160.898 1040.92 160.898C1043.28 160.898 1045.14 161.409 1046.49 162.432C1047.85 163.445 1048.74 164.804 1049.18 166.509ZM1064.47 152.545L1055.1 187.375H1051.3L1060.68 152.545H1064.47ZM1078.18 153.909V183H1073.78V158.312H1073.61L1066.65 162.858V158.653L1073.9 153.909H1078.18ZM1086.34 183.27C1085.57 183.27 1084.9 182.995 1084.34 182.446C1083.78 181.887 1083.5 181.215 1083.5 180.429C1083.5 179.652 1083.78 178.99 1084.34 178.44C1084.9 177.882 1085.57 177.602 1086.34 177.602C1087.12 177.602 1087.79 177.882 1088.35 178.44C1088.91 178.99 1089.19 179.652 1089.19 180.429C1089.19 180.95 1089.05 181.428 1088.79 181.864C1088.53 182.29 1088.19 182.631 1087.76 182.886C1087.34 183.142 1086.87 183.27 1086.34 183.27ZM1093.99 161.182H1098.24V184.42C1098.24 185.879 1097.98 187.11 1097.45 188.114C1096.93 189.117 1096.15 189.88 1095.12 190.401C1094.09 190.921 1092.83 191.182 1091.32 191.182C1091.17 191.182 1091.03 191.182 1090.9 191.182C1090.76 191.182 1090.61 191.177 1090.46 191.168V187.517C1090.59 187.517 1090.71 187.517 1090.81 187.517C1090.91 187.517 1091.02 187.517 1091.14 187.517C1092.14 187.517 1092.87 187.247 1093.31 186.707C1093.77 186.177 1093.99 185.405 1093.99 184.392V161.182ZM1096.1 157.815C1095.36 157.815 1094.72 157.569 1094.19 157.077C1093.67 156.575 1093.41 155.978 1093.41 155.287C1093.41 154.586 1093.67 153.99 1094.19 153.497C1094.72 152.995 1095.36 152.744 1096.1 152.744C1096.84 152.744 1097.46 152.995 1097.99 153.497C1098.52 153.99 1098.78 154.586 1098.78 155.287C1098.78 155.978 1098.52 156.575 1097.99 157.077C1097.46 157.569 1096.84 157.815 1096.1 157.815ZM1103.08 191.182V161.182H1107.22V164.719H1107.58C1107.82 164.264 1108.18 163.739 1108.64 163.142C1109.11 162.545 1109.75 162.025 1110.58 161.58C1111.4 161.125 1112.49 160.898 1113.84 160.898C1115.6 160.898 1117.18 161.343 1118.56 162.233C1119.94 163.123 1121.02 164.406 1121.81 166.082C1122.61 167.759 1123 169.776 1123 172.134C1123 174.491 1122.61 176.513 1121.83 178.199C1121.04 179.875 1119.96 181.168 1118.59 182.077C1117.21 182.976 1115.65 183.426 1113.88 183.426C1112.56 183.426 1111.47 183.204 1110.63 182.759C1109.8 182.313 1109.15 181.793 1108.67 181.196C1108.2 180.599 1107.83 180.069 1107.58 179.605H1107.32V191.182H1103.08ZM1107.24 172.091C1107.24 173.625 1107.46 174.97 1107.9 176.125C1108.35 177.28 1108.99 178.185 1109.84 178.838C1110.68 179.482 1111.71 179.804 1112.93 179.804C1114.2 179.804 1115.26 179.468 1116.11 178.795C1116.97 178.114 1117.61 177.19 1118.05 176.026C1118.49 174.861 1118.71 173.549 1118.71 172.091C1118.71 170.652 1118.5 169.359 1118.06 168.213C1117.63 167.067 1116.99 166.163 1116.13 165.5C1115.28 164.837 1114.21 164.506 1112.93 164.506C1111.7 164.506 1110.66 164.823 1109.81 165.457C1108.97 166.092 1108.33 166.977 1107.89 168.114C1107.45 169.25 1107.24 170.576 1107.24 172.091ZM1136.03 191.636C1134.3 191.636 1132.81 191.409 1131.56 190.955C1130.32 190.5 1129.3 189.899 1128.52 189.151C1127.73 188.402 1127.14 187.583 1126.75 186.693L1130.41 185.188C1130.66 185.604 1131 186.045 1131.43 186.509C1131.86 186.982 1132.45 187.384 1133.19 187.716C1133.94 188.047 1134.9 188.213 1136.07 188.213C1137.68 188.213 1139.01 187.82 1140.06 187.034C1141.12 186.258 1141.64 185.017 1141.64 183.312V179.023H1141.37C1141.12 179.487 1140.75 180.003 1140.26 180.571C1139.79 181.139 1139.14 181.632 1138.3 182.048C1137.47 182.465 1136.39 182.673 1135.05 182.673C1133.33 182.673 1131.77 182.271 1130.39 181.466C1129.02 180.652 1127.93 179.454 1127.12 177.872C1126.33 176.281 1125.93 174.326 1125.93 172.006C1125.93 169.686 1126.32 167.697 1127.11 166.04C1127.91 164.383 1128.99 163.114 1130.38 162.233C1131.76 161.343 1133.33 160.898 1135.08 160.898C1136.43 160.898 1137.53 161.125 1138.36 161.58C1139.19 162.025 1139.84 162.545 1140.31 163.142C1140.78 163.739 1141.14 164.264 1141.4 164.719H1141.71V161.182H1145.87V183.483C1145.87 185.358 1145.44 186.897 1144.57 188.099C1143.7 189.302 1142.52 190.192 1141.03 190.77C1139.55 191.348 1137.89 191.636 1136.03 191.636ZM1135.99 179.151C1137.21 179.151 1138.24 178.866 1139.08 178.298C1139.94 177.721 1140.58 176.897 1141.02 175.827C1141.46 174.747 1141.68 173.455 1141.68 171.949C1141.68 170.481 1141.47 169.188 1141.03 168.071C1140.59 166.954 1139.96 166.082 1139.11 165.457C1138.27 164.823 1137.23 164.506 1135.99 164.506C1134.71 164.506 1133.64 164.837 1132.79 165.5C1131.94 166.153 1131.3 167.044 1130.86 168.17C1130.43 169.297 1130.22 170.557 1130.22 171.949C1130.22 173.379 1130.44 174.634 1130.87 175.713C1131.31 176.793 1131.95 177.635 1132.81 178.241C1133.67 178.848 1134.73 179.151 1135.99 179.151Z" fill="black" fill-opacity="0.8"/>
    <rect x="1178" y="124" width="320" height="88" rx="6" fill="#FFC943" stroke="#757575" stroke-width="4" stroke-linecap="round"/>
    <path d="M1312.21 189.051V152.815H1321.54V156.182H1316.27V185.685H1321.54V189.051H1312.21ZM1327.54 183.27C1326.76 183.27 1326.1 182.995 1325.54 182.446C1324.98 181.887 1324.7 181.215 1324.7 180.429C1324.7 179.652 1324.98 178.99 1325.54 178.44C1326.1 177.882 1326.76 177.602 1327.54 177.602C1328.32 177.602 1328.99 177.882 1329.54 178.44C1330.1 178.99 1330.38 179.652 1330.38 180.429C1330.38 180.95 1330.25 181.428 1329.98 181.864C1329.73 182.29 1329.39 182.631 1328.96 182.886C1328.54 183.142 1328.06 183.27 1327.54 183.27ZM1337.99 183.27C1337.21 183.27 1336.55 182.995 1335.99 182.446C1335.43 181.887 1335.15 181.215 1335.15 180.429C1335.15 179.652 1335.43 178.99 1335.99 178.44C1336.55 177.882 1337.21 177.602 1337.99 177.602C1338.77 177.602 1339.43 177.882 1339.99 178.44C1340.55 178.99 1340.83 179.652 1340.83 180.429C1340.83 180.95 1340.7 181.428 1340.43 181.864C1340.18 182.29 1339.84 182.631 1339.41 182.886C1338.98 183.142 1338.51 183.27 1337.99 183.27ZM1348.44 183.27C1347.66 183.27 1346.99 182.995 1346.43 182.446C1345.88 181.887 1345.6 181.215 1345.6 180.429C1345.6 179.652 1345.88 178.99 1346.43 178.44C1346.99 177.882 1347.66 177.602 1348.44 177.602C1349.21 177.602 1349.88 177.882 1350.44 178.44C1351 178.99 1351.28 179.652 1351.28 180.429C1351.28 180.95 1351.15 181.428 1350.88 181.864C1350.62 182.29 1350.28 182.631 1349.86 182.886C1349.43 183.142 1348.96 183.27 1348.44 183.27ZM1363.79 152.815V189.051H1354.45V185.685H1359.72V156.182H1354.45V152.815H1363.79Z" fill="black" fill-opacity="0.8"/>
    <rect x="218" y="12" width="1280" height="88" rx="6" stroke="#757575" stroke-width="4" stroke-linecap="round"/>
    <rect x="218" y="12" width="320" height="88" rx="6" stroke="#757575" stroke-width="4" stroke-linecap="round"/>
    <path d="M363.795 71V49.1818H368.042V71H363.795ZM365.94 45.8153C365.201 45.8153 364.567 45.5691 364.037 45.0767C363.516 44.5748 363.255 43.9782 363.255 43.2869C363.255 42.5862 363.516 41.9896 364.037 41.4972C364.567 40.9953 365.201 40.7443 365.94 40.7443C366.679 40.7443 367.308 40.9953 367.829 41.4972C368.36 41.9896 368.625 42.5862 368.625 43.2869C368.625 43.9782 368.36 44.5748 367.829 45.0767C367.308 45.5691 366.679 45.8153 365.94 45.8153ZM381.044 71.4261C379.282 71.4261 377.71 70.9763 376.328 70.0767C374.955 69.1676 373.875 67.875 373.089 66.1989C372.313 64.5133 371.924 62.4915 371.924 60.1335C371.924 57.7756 372.317 55.7585 373.103 54.0824C373.899 52.4062 374.988 51.1231 376.37 50.233C377.753 49.3428 379.32 48.8977 381.072 48.8977C382.426 48.8977 383.515 49.125 384.339 49.5795C385.172 50.0246 385.816 50.5455 386.271 51.142C386.735 51.7386 387.095 52.2642 387.35 52.7188H387.606V41.9091H391.853V71H387.706V67.6051H387.35C387.095 68.0691 386.725 68.5994 386.243 69.196C385.769 69.7926 385.116 70.3134 384.282 70.7585C383.449 71.2036 382.369 71.4261 381.044 71.4261ZM381.981 67.804C383.203 67.804 384.235 67.482 385.078 66.8381C385.93 66.1847 386.574 65.2803 387.01 64.125C387.455 62.9697 387.677 61.625 387.677 60.0909C387.677 58.5758 387.459 57.25 387.024 56.1136C386.588 54.9773 385.949 54.0919 385.106 53.4574C384.263 52.8229 383.222 52.5057 381.981 52.5057C380.703 52.5057 379.637 52.8371 378.785 53.5C377.933 54.1629 377.289 55.0672 376.853 56.2131C376.427 57.3589 376.214 58.6515 376.214 60.0909C376.214 61.5492 376.432 62.8608 376.868 64.0256C377.303 65.1903 377.947 66.1136 378.799 66.7955C379.661 67.4678 380.722 67.804 381.981 67.804Z" fill="black" fill-opacity="0.8"/>
    <rect x="538" y="12" width="320" height="88" rx="6" stroke="#757575" stroke-width="4" stroke-linecap="round"/>
    <path d="M675.983 49.1818V52.5909H664.066V49.1818H675.983ZM667.262 43.9545H671.509V64.5938C671.509 65.4176 671.632 66.0379 671.878 66.4545C672.124 66.8617 672.442 67.1411 672.83 67.2926C673.228 67.4347 673.659 67.5057 674.123 67.5057C674.463 67.5057 674.762 67.482 675.017 67.4347C675.273 67.3873 675.472 67.3494 675.614 67.321L676.381 70.8295C676.135 70.9242 675.784 71.0189 675.33 71.1136C674.875 71.2178 674.307 71.2746 673.625 71.2841C672.508 71.303 671.466 71.1042 670.5 70.6875C669.534 70.2708 668.753 69.6269 668.157 68.7557C667.56 67.8845 667.262 66.7907 667.262 65.4744V43.9545ZM679.802 71V49.1818H684.049V71H679.802ZM681.946 45.8153C681.208 45.8153 680.573 45.5691 680.043 45.0767C679.522 44.5748 679.262 43.9782 679.262 43.2869C679.262 42.5862 679.522 41.9896 680.043 41.4972C680.573 40.9953 681.208 40.7443 681.946 40.7443C682.685 40.7443 683.315 40.9953 683.836 41.4972C684.366 41.9896 684.631 42.5862 684.631 43.2869C684.631 43.9782 684.366 44.5748 683.836 45.0767C683.315 45.5691 682.685 45.8153 681.946 45.8153ZM699.067 49.1818V52.5909H687.15V49.1818H699.067ZM690.346 43.9545H694.593V64.5938C694.593 65.4176 694.716 66.0379 694.962 66.4545C695.208 66.8617 695.525 67.1411 695.914 67.2926C696.311 67.4347 696.742 67.5057 697.206 67.5057C697.547 67.5057 697.846 67.482 698.101 67.4347C698.357 67.3873 698.556 67.3494 698.698 67.321L699.465 70.8295C699.219 70.9242 698.868 71.0189 698.414 71.1136C697.959 71.2178 697.391 71.2746 696.709 71.2841C695.592 71.303 694.55 71.1042 693.584 70.6875C692.618 70.2708 691.837 69.6269 691.24 68.7557C690.644 67.8845 690.346 66.7907 690.346 65.4744V43.9545ZM707.601 41.9091V71H703.354V41.9091H707.601ZM721.838 71.4403C719.689 71.4403 717.837 70.9811 716.284 70.0625C714.741 69.1345 713.548 67.8324 712.705 66.1562C711.872 64.4706 711.455 62.4962 711.455 60.233C711.455 57.9981 711.872 56.0284 712.705 54.3239C713.548 52.6193 714.722 51.2888 716.228 50.3324C717.743 49.3759 719.514 48.8977 721.54 48.8977C722.771 48.8977 723.964 49.1013 725.12 49.5085C726.275 49.9157 727.312 50.5549 728.23 51.4261C729.149 52.2973 729.873 53.429 730.404 54.821C730.934 56.2036 731.199 57.8845 731.199 59.8636V61.3693H713.855V58.1875H727.037C727.037 57.0701 726.81 56.0805 726.355 55.2188C725.901 54.3475 725.262 53.661 724.438 53.1591C723.623 52.6572 722.667 52.4062 721.568 52.4062C720.375 52.4062 719.334 52.6998 718.443 53.2869C717.563 53.8646 716.881 54.6222 716.398 55.5597C715.925 56.4877 715.688 57.4962 715.688 58.5852V61.071C715.688 62.5294 715.943 63.7699 716.455 64.7926C716.976 65.8153 717.7 66.5966 718.628 67.1364C719.556 67.6667 720.64 67.9318 721.881 67.9318C722.686 67.9318 723.42 67.8182 724.083 67.5909C724.746 67.3542 725.318 67.0038 725.801 66.5398C726.284 66.0758 726.654 65.5028 726.909 64.821L730.929 65.5455C730.607 66.7292 730.03 67.7661 729.196 68.6562C728.372 69.5369 727.336 70.2235 726.086 70.7159C724.845 71.1989 723.429 71.4403 721.838 71.4403Z" fill="black" fill-opacity="0.8"/>
    <rect x="858" y="12" width="320" height="88" rx="6" stroke="#757575" stroke-width="4" stroke-linecap="round"/>
    <path d="M956.551 71V49.1818H960.798V71H956.551ZM958.696 45.8153C957.957 45.8153 957.323 45.5691 956.793 45.0767C956.272 44.5748 956.011 43.9782 956.011 43.2869C956.011 42.5862 956.272 41.9896 956.793 41.4972C957.323 40.9953 957.957 40.7443 958.696 40.7443C959.435 40.7443 960.064 40.9953 960.585 41.4972C961.116 41.9896 961.381 42.5862 961.381 43.2869C961.381 43.9782 961.116 44.5748 960.585 45.0767C960.064 45.5691 959.435 45.8153 958.696 45.8153ZM965.632 71V49.1818H969.709V52.733H969.979C970.433 51.5303 971.177 50.5928 972.209 49.9205C973.241 49.2386 974.477 48.8977 975.916 48.8977C977.375 48.8977 978.596 49.2386 979.581 49.9205C980.575 50.6023 981.309 51.5398 981.783 52.733H982.01C982.531 51.5682 983.359 50.6402 984.496 49.9489C985.632 49.2481 986.986 48.8977 988.558 48.8977C990.537 48.8977 992.152 49.518 993.402 50.7585C994.662 51.9991 995.291 53.8693 995.291 56.3693V71H991.044V56.767C991.044 55.2898 990.642 54.2197 989.837 53.5568C989.032 52.8939 988.071 52.5625 986.953 52.5625C985.571 52.5625 984.496 52.9886 983.729 53.8409C982.962 54.6837 982.578 55.768 982.578 57.0938V71H978.345V56.4972C978.345 55.3134 977.976 54.3617 977.237 53.642C976.499 52.9223 975.537 52.5625 974.354 52.5625C973.549 52.5625 972.805 52.7756 972.124 53.2017C971.451 53.6184 970.907 54.2008 970.49 54.9489C970.083 55.697 969.879 56.5634 969.879 57.5483V71H965.632ZM1009.25 79.6364C1007.52 79.6364 1006.03 79.4091 1004.78 78.9545C1003.54 78.5 1002.52 77.8987 1001.74 77.1506C1000.95 76.4025 1000.36 75.5833 999.976 74.6932L1003.63 73.1875C1003.88 73.6042 1004.22 74.0445 1004.65 74.5085C1005.08 74.982 1005.67 75.3845 1006.41 75.7159C1007.16 76.0473 1008.12 76.2131 1009.29 76.2131C1010.9 76.2131 1012.23 75.8201 1013.29 75.0341C1014.34 74.2576 1014.86 73.017 1014.86 71.3125V67.0227H1014.59C1014.34 67.4867 1013.97 68.0028 1013.48 68.571C1013.01 69.1392 1012.36 69.6316 1011.52 70.0483C1010.69 70.465 1009.61 70.6733 1008.27 70.6733C1006.55 70.6733 1004.99 70.2708 1003.61 69.4659C1002.24 68.6515 1001.15 67.4536 1000.35 65.8722C999.55 64.2812 999.152 62.3258 999.152 60.0057C999.152 57.6856 999.545 55.697 1000.33 54.0398C1001.13 52.3826 1002.22 51.1136 1003.6 50.233C1004.98 49.3428 1006.55 48.8977 1008.3 48.8977C1009.65 48.8977 1010.75 49.125 1011.58 49.5795C1012.41 50.0246 1013.06 50.5455 1013.53 51.142C1014 51.7386 1014.37 52.2642 1014.62 52.7188H1014.93V49.1818H1019.1V71.483C1019.1 73.358 1018.66 74.8968 1017.79 76.0994C1016.92 77.3021 1015.74 78.1922 1014.25 78.7699C1012.77 79.3475 1011.11 79.6364 1009.25 79.6364ZM1009.21 67.1506C1010.43 67.1506 1011.46 66.8665 1012.31 66.2983C1013.16 65.7206 1013.8 64.8968 1014.24 63.8267C1014.68 62.7472 1014.9 61.4545 1014.9 59.9489C1014.9 58.4811 1014.69 57.1884 1014.25 56.071C1013.82 54.9536 1013.18 54.0824 1012.33 53.4574C1011.49 52.8229 1010.45 52.5057 1009.21 52.5057C1007.93 52.5057 1006.87 52.8371 1006.01 53.5C1005.16 54.1534 1004.52 55.0436 1004.08 56.1705C1003.65 57.2973 1003.44 58.5568 1003.44 59.9489C1003.44 61.3788 1003.66 62.6335 1004.1 63.7131C1004.53 64.7926 1005.17 65.6354 1006.03 66.2415C1006.89 66.8475 1007.95 67.1506 1009.21 67.1506ZM1040.12 49.5511C1039.97 48.2064 1039.34 47.1648 1038.24 46.4261C1037.15 45.678 1035.76 45.304 1034.1 45.304C1032.9 45.304 1031.87 45.4934 1031 45.8722C1030.13 46.2415 1029.45 46.7528 1028.97 47.4062C1028.49 48.0502 1028.26 48.7841 1028.26 49.608C1028.26 50.2992 1028.42 50.8958 1028.74 51.3977C1029.07 51.8996 1029.5 52.321 1030.03 52.6619C1030.57 52.9934 1031.15 53.2727 1031.77 53.5C1032.38 53.7178 1032.97 53.8977 1033.54 54.0398L1036.38 54.7784C1037.31 55.0057 1038.26 55.3134 1039.24 55.7017C1040.21 56.09 1041.12 56.6013 1041.95 57.2358C1042.78 57.8703 1043.46 58.6562 1043.97 59.5938C1044.49 60.5312 1044.75 61.6534 1044.75 62.9602C1044.75 64.608 1044.32 66.071 1043.47 67.3494C1042.63 68.6278 1041.4 69.6364 1039.79 70.375C1038.19 71.1136 1036.25 71.483 1033.98 71.483C1031.8 71.483 1029.92 71.1373 1028.33 70.446C1026.74 69.7547 1025.49 68.7746 1024.59 67.5057C1023.69 66.2273 1023.2 64.7121 1023.1 62.9602H1027.5C1027.59 64.0114 1027.93 64.8873 1028.53 65.5881C1029.13 66.2794 1029.91 66.7955 1030.84 67.1364C1031.79 67.4678 1032.83 67.6335 1033.95 67.6335C1035.19 67.6335 1036.3 67.4394 1037.26 67.0511C1038.24 66.6534 1039.01 66.1042 1039.56 65.4034C1040.12 64.6932 1040.4 63.8646 1040.4 62.9176C1040.4 62.0559 1040.16 61.3504 1039.66 60.8011C1039.18 60.2519 1038.52 59.7973 1037.69 59.4375C1036.87 59.0777 1035.93 58.7604 1034.89 58.4858L1031.45 57.5483C1029.12 56.9138 1027.28 55.9811 1025.91 54.75C1024.56 53.5189 1023.88 51.8902 1023.88 49.8636C1023.88 48.1875 1024.34 46.7244 1025.25 45.4744C1026.16 44.2244 1027.39 43.2538 1028.94 42.5625C1030.49 41.8617 1032.24 41.5114 1034.2 41.5114C1036.16 41.5114 1037.9 41.857 1039.41 42.5483C1040.92 43.2396 1042.12 44.1913 1042.99 45.4034C1043.86 46.6061 1044.31 47.9886 1044.35 49.5511H1040.12ZM1048.77 71V49.1818H1052.88V52.6477H1053.11C1053.5 51.4735 1054.2 50.5502 1055.21 49.8778C1056.22 49.196 1057.37 48.8551 1058.65 48.8551C1058.91 48.8551 1059.22 48.8646 1059.58 48.8835C1059.95 48.9025 1060.24 48.9261 1060.45 48.9545V53.017C1060.28 52.9697 1059.98 52.9176 1059.54 52.8608C1059.1 52.7945 1058.67 52.7614 1058.23 52.7614C1057.23 52.7614 1056.33 52.9744 1055.55 53.4006C1054.77 53.8172 1054.16 54.3996 1053.7 55.1477C1053.25 55.8864 1053.02 56.7292 1053.02 57.6761V71H1048.77ZM1071.65 71.4403C1069.54 71.4403 1067.72 70.9621 1066.2 70.0057C1064.68 69.0398 1063.52 67.7093 1062.71 66.0142C1061.89 64.3191 1061.48 62.3778 1061.48 60.1903C1061.48 57.9744 1061.9 56.0189 1062.73 54.3239C1063.57 52.6193 1064.74 51.2888 1066.26 50.3324C1067.77 49.3759 1069.56 48.8977 1071.61 48.8977C1073.27 48.8977 1074.75 49.2055 1076.04 49.821C1077.34 50.4271 1078.39 51.2794 1079.18 52.3778C1079.99 53.4763 1080.47 54.7595 1080.62 56.2273H1076.48C1076.26 55.2045 1075.74 54.3239 1074.92 53.5852C1074.12 52.8466 1073.04 52.4773 1071.68 52.4773C1070.5 52.4773 1069.46 52.7898 1068.57 53.4148C1067.69 54.0303 1067 54.911 1066.51 56.0568C1066.02 57.1932 1065.77 58.5379 1065.77 60.0909C1065.77 61.6818 1066.01 63.0549 1066.5 64.2102C1066.98 65.3655 1067.66 66.2604 1068.54 66.8949C1069.43 67.5294 1070.48 67.8466 1071.68 67.8466C1072.49 67.8466 1073.22 67.6998 1073.87 67.4062C1074.53 67.1032 1075.09 66.6723 1075.53 66.1136C1075.99 65.5549 1076.3 64.8826 1076.48 64.0966H1080.62C1080.47 65.5076 1080.01 66.767 1079.24 67.875C1078.47 68.983 1077.44 69.8542 1076.16 70.4886C1074.88 71.1231 1073.38 71.4403 1071.65 71.4403Z" fill="black" fill-opacity="0.8"/>
    <rect x="1178" y="12" width="320" height="88" rx="6" stroke="#757575" stroke-width="4" stroke-linecap="round"/>
    <path d="M1310.47 49.1818V52.5909H1298.55V49.1818H1310.47ZM1301.74 43.9545H1305.99V64.5938C1305.99 65.4176 1306.11 66.0379 1306.36 66.4545C1306.61 66.8617 1306.92 67.1411 1307.31 67.2926C1307.71 67.4347 1308.14 67.5057 1308.6 67.5057C1308.95 67.5057 1309.24 67.482 1309.5 67.4347C1309.76 67.3873 1309.95 67.3494 1310.1 67.321L1310.86 70.8295C1310.62 70.9242 1310.27 71.0189 1309.81 71.1136C1309.36 71.2178 1308.79 71.2746 1308.11 71.2841C1306.99 71.303 1305.95 71.1042 1304.98 70.6875C1304.02 70.2708 1303.24 69.6269 1302.64 68.7557C1302.04 67.8845 1301.74 66.7907 1301.74 65.4744V43.9545ZM1320.63 71.483C1319.25 71.483 1318 71.2273 1316.88 70.7159C1315.77 70.1951 1314.88 69.4422 1314.23 68.4574C1313.58 67.4725 1313.26 66.2652 1313.26 64.8352C1313.26 63.6042 1313.5 62.5909 1313.97 61.7955C1314.44 61 1315.08 60.3703 1315.89 59.9062C1316.69 59.4422 1317.59 59.0919 1318.59 58.8551C1319.58 58.6184 1320.59 58.4384 1321.63 58.3153C1322.93 58.1638 1323.99 58.0407 1324.81 57.946C1325.62 57.8419 1326.22 57.6761 1326.58 57.4489C1326.95 57.2216 1327.14 56.8523 1327.14 56.3409V56.2415C1327.14 55.0009 1326.79 54.0398 1326.09 53.358C1325.4 52.6761 1324.36 52.3352 1322.99 52.3352C1321.56 52.3352 1320.43 52.6525 1319.61 53.2869C1318.8 53.9119 1318.23 54.608 1317.92 55.375L1313.93 54.4659C1314.4 53.1402 1315.09 52.0701 1316 51.2557C1316.92 50.4318 1317.98 49.8352 1319.17 49.4659C1320.36 49.0871 1321.62 48.8977 1322.93 48.8977C1323.81 48.8977 1324.73 49.0019 1325.7 49.2102C1326.69 49.4091 1327.61 49.7784 1328.46 50.3182C1329.32 50.858 1330.03 51.6297 1330.58 52.6335C1331.13 53.6278 1331.4 54.9205 1331.4 56.5114V71H1327.25V68.017H1327.08C1326.81 68.5663 1326.4 69.1061 1325.85 69.6364C1325.3 70.1667 1324.59 70.607 1323.73 70.9574C1322.87 71.3078 1321.84 71.483 1320.63 71.483ZM1321.56 68.0739C1322.73 68.0739 1323.73 67.8419 1324.57 67.3778C1325.41 66.9138 1326.05 66.3078 1326.49 65.5597C1326.93 64.8021 1327.15 63.9924 1327.15 63.1307V60.3182C1327 60.4697 1326.71 60.6117 1326.27 60.7443C1325.85 60.8674 1325.36 60.9763 1324.81 61.071C1324.26 61.1562 1323.72 61.2367 1323.2 61.3125C1322.68 61.3788 1322.25 61.4356 1321.9 61.483C1321.07 61.5871 1320.32 61.7623 1319.64 62.0085C1318.97 62.2547 1318.43 62.6098 1318.02 63.0739C1317.62 63.5284 1317.42 64.1345 1317.42 64.892C1317.42 65.9432 1317.81 66.7386 1318.59 67.2784C1319.36 67.8087 1320.35 68.0739 1321.56 68.0739ZM1345.32 79.6364C1343.59 79.6364 1342.1 79.4091 1340.85 78.9545C1339.61 78.5 1338.6 77.8987 1337.81 77.1506C1337.02 76.4025 1336.44 75.5833 1336.05 74.6932L1339.7 73.1875C1339.96 73.6042 1340.3 74.0445 1340.72 74.5085C1341.16 74.982 1341.75 75.3845 1342.48 75.7159C1343.23 76.0473 1344.19 76.2131 1345.37 76.2131C1346.98 76.2131 1348.31 75.8201 1349.36 75.0341C1350.41 74.2576 1350.94 73.017 1350.94 71.3125V67.0227H1350.67C1350.41 67.4867 1350.04 68.0028 1349.56 68.571C1349.08 69.1392 1348.43 69.6316 1347.6 70.0483C1346.76 70.465 1345.68 70.6733 1344.34 70.6733C1342.62 70.6733 1341.07 70.2708 1339.69 69.4659C1338.31 68.6515 1337.22 67.4536 1336.42 65.8722C1335.62 64.2812 1335.23 62.3258 1335.23 60.0057C1335.23 57.6856 1335.62 55.697 1336.4 54.0398C1337.2 52.3826 1338.29 51.1136 1339.67 50.233C1341.05 49.3428 1342.62 48.8977 1344.37 48.8977C1345.73 48.8977 1346.82 49.125 1347.65 49.5795C1348.49 50.0246 1349.14 50.5455 1349.6 51.142C1350.07 51.7386 1350.44 52.2642 1350.69 52.7188H1351.01V49.1818H1355.17V71.483C1355.17 73.358 1354.73 74.8968 1353.86 76.0994C1352.99 77.3021 1351.81 78.1922 1350.32 78.7699C1348.85 79.3475 1347.18 79.6364 1345.32 79.6364ZM1345.28 67.1506C1346.5 67.1506 1347.54 66.8665 1348.38 66.2983C1349.23 65.7206 1349.87 64.8968 1350.31 63.8267C1350.76 62.7472 1350.98 61.4545 1350.98 59.9489C1350.98 58.4811 1350.76 57.1884 1350.32 56.071C1349.89 54.9536 1349.25 54.0824 1348.41 53.4574C1347.56 52.8229 1346.52 52.5057 1345.28 52.5057C1344 52.5057 1342.94 52.8371 1342.09 53.5C1341.23 54.1534 1340.59 55.0436 1340.15 56.1705C1339.73 57.2973 1339.51 58.5568 1339.51 59.9489C1339.51 61.3788 1339.73 62.6335 1340.17 63.7131C1340.6 64.7926 1341.25 65.6354 1342.1 66.2415C1342.96 66.8475 1344.02 67.1506 1345.28 67.1506ZM1376.33 54.5085L1372.48 55.1903C1372.32 54.6979 1372.07 54.2292 1371.72 53.7841C1371.38 53.339 1370.91 52.9744 1370.33 52.6903C1369.74 52.4062 1369 52.2642 1368.12 52.2642C1366.92 52.2642 1365.92 52.5341 1365.11 53.0739C1364.31 53.6042 1363.9 54.2907 1363.9 55.1335C1363.9 55.8627 1364.17 56.4498 1364.71 56.8949C1365.25 57.34 1366.13 57.7045 1367.33 57.9886L1370.79 58.7841C1372.8 59.2481 1374.3 59.9631 1375.28 60.929C1376.27 61.8949 1376.76 63.1496 1376.76 64.6932C1376.76 66 1376.38 67.1648 1375.62 68.1875C1374.88 69.2008 1373.83 69.9962 1372.48 70.5739C1371.15 71.1515 1369.6 71.4403 1367.84 71.4403C1365.4 71.4403 1363.4 70.9195 1361.86 69.8778C1360.32 68.8267 1359.37 67.3352 1359.02 65.4034L1363.12 64.7784C1363.38 65.8485 1363.9 66.6581 1364.7 67.2074C1365.5 67.7472 1366.53 68.017 1367.81 68.017C1369.2 68.017 1370.32 67.7282 1371.15 67.1506C1371.98 66.5634 1372.4 65.8485 1372.4 65.0057C1372.4 64.3239 1372.14 63.7509 1371.63 63.2869C1371.13 62.8229 1370.36 62.4725 1369.32 62.2358L1365.62 61.4261C1363.59 60.9621 1362.08 60.2235 1361.11 59.2102C1360.14 58.197 1359.66 56.9138 1359.66 55.3608C1359.66 54.0729 1360.02 52.946 1360.74 51.9801C1361.46 51.0142 1362.45 50.2614 1363.72 49.7216C1364.99 49.1723 1366.44 48.8977 1368.08 48.8977C1370.44 48.8977 1372.29 49.4091 1373.65 50.4318C1375 51.4451 1375.9 52.804 1376.33 54.5085Z" fill="black" fill-opacity="0.8"/>
    <path d="M70.8551 71.4545V49.6363H75.1023V58.7841H77.1477L84.3494 49.6363H89.6051L81.1534 60.2471L89.7045 71.4545H84.4347L77.858 62.7329H75.1023V71.4545H70.8551ZM90.4048 71.4545L90.3906 67.7756H91.1718C91.7779 67.7756 92.2845 67.6477 92.6917 67.392C93.1084 67.1269 93.4493 66.6818 93.7145 66.0568C93.9796 65.4318 94.1832 64.5701 94.3253 63.4716C94.4673 62.3636 94.5715 60.9716 94.6378 59.2954L95.0213 49.6363H110.249V71.4545H106.087V53.3011H98.9559L98.615 60.7159C98.5298 62.5151 98.3451 64.0871 98.0611 65.4318C97.7864 66.7765 97.384 67.8987 96.8537 68.7983C96.3234 69.6884 95.6415 70.356 94.8082 70.8011C93.9749 71.2367 92.9616 71.4545 91.7684 71.4545H90.4048ZM126.013 58.8693V62.5625H114.379V58.8693H126.013ZM117.831 49.6363V71.4545H113.584V49.6363H117.831ZM132.66 71.8949C130.634 71.8949 128.863 71.4214 127.348 70.4744C125.833 69.5274 124.659 68.2112 123.825 66.5256C122.992 64.8305 122.575 62.8655 122.575 60.6307C122.575 58.3769 122.992 56.4072 123.825 54.7216C124.659 53.0265 125.833 51.7102 127.348 50.7727C128.863 49.8257 130.634 49.3523 132.66 49.3523C134.696 49.3523 136.467 49.8257 137.973 50.7727C139.488 51.7102 140.662 53.0265 141.496 54.7216C142.338 56.4072 142.76 58.3769 142.76 60.6307C142.76 62.8655 142.338 64.8305 141.496 66.5256C140.662 68.2112 139.488 69.5274 137.973 70.4744C136.467 71.4214 134.696 71.8949 132.66 71.8949ZM132.66 68.2585C134.034 68.2585 135.156 67.9129 136.027 67.2216C136.908 66.5208 137.556 65.5928 137.973 64.4375C138.39 63.2822 138.598 62.0132 138.598 60.6307C138.598 59.2386 138.39 57.9649 137.973 56.8096C137.556 55.6449 136.908 54.7121 136.027 54.0113C135.156 53.3106 134.034 52.9602 132.66 52.9602C131.297 52.9602 130.175 53.3106 129.294 54.0113C128.413 54.7121 127.765 55.6449 127.348 56.8096C126.931 57.9649 126.723 59.2386 126.723 60.6307C126.723 62.0132 126.931 63.2822 127.348 64.4375C127.765 65.5928 128.413 66.5208 129.294 67.2216C130.175 67.9129 131.297 68.2585 132.66 68.2585ZM164.401 49.6363V71.4545H160.253V49.6363H164.401ZM162.597 59.7642V63.429C161.944 63.6941 161.253 63.9309 160.523 64.1392C159.794 64.3381 159.027 64.4943 158.222 64.6079C157.417 64.7216 156.579 64.7784 155.708 64.7784C153.009 64.7784 150.864 64.1202 149.273 62.804C147.682 61.4782 146.887 59.4517 146.887 56.7244V49.5937H151.021V56.7244C151.021 57.7566 151.21 58.5947 151.589 59.2386C151.967 59.8826 152.507 60.356 153.208 60.6591C153.909 60.9621 154.742 61.1136 155.708 61.1136C156.986 61.1136 158.165 60.9952 159.245 60.7585C160.334 60.5123 161.451 60.1809 162.597 59.7642ZM173.333 65.5028L182.949 49.6363H187.523V71.4545H183.361V55.5738L173.788 71.4545H169.171V49.6363H173.333V65.5028Z" fill="black"/>
    <path d="M14.5625 177.687H18.9091C18.9659 178.578 19.3684 179.264 20.1165 179.747C20.8741 180.23 21.8542 180.472 23.0568 180.472C24.2784 180.472 25.3201 180.211 26.1818 179.69C27.0436 179.16 27.4744 178.341 27.4744 177.233C27.4744 176.57 27.3087 175.992 26.9773 175.5C26.6553 174.998 26.196 174.61 25.5994 174.335C25.0123 174.061 24.3163 173.923 23.5114 173.923H19.9602V170.585H23.5114C24.714 170.585 25.6136 170.311 26.2102 169.761C26.8068 169.212 27.1051 168.526 27.1051 167.702C27.1051 166.812 26.7831 166.097 26.1392 165.557C25.5047 165.008 24.6193 164.733 23.483 164.733C22.3277 164.733 21.3665 164.993 20.5994 165.514C19.8324 166.026 19.4299 166.688 19.392 167.503H15.1023C15.1307 166.281 15.5 165.211 16.2102 164.293C16.9299 163.365 17.8958 162.645 19.108 162.134C20.3295 161.613 21.7169 161.352 23.2699 161.352C24.8892 161.352 26.2907 161.613 27.4744 162.134C28.6581 162.654 29.572 163.374 30.2159 164.293C30.8693 165.211 31.196 166.267 31.196 167.46C31.196 168.663 30.8362 169.648 30.1165 170.415C29.4062 171.172 28.4782 171.717 27.3324 172.048V172.276C28.1752 172.332 28.9233 172.588 29.5767 173.043C30.2301 173.497 30.7415 174.098 31.1108 174.847C31.4801 175.595 31.6648 176.442 31.6648 177.389C31.6648 178.724 31.2955 179.88 30.5568 180.855C29.8277 181.83 28.8144 182.583 27.517 183.114C26.2292 183.634 24.7566 183.895 23.0994 183.895C21.4896 183.895 20.0455 183.644 18.767 183.142C17.4981 182.631 16.4896 181.911 15.7415 180.983C15.0028 180.055 14.6098 178.956 14.5625 177.687ZM49.9574 170.713V174.392H38.1392V170.713H49.9574ZM39.3324 161.636V183.455H35.1704V161.636H39.3324ZM52.9261 161.636V183.455H48.7784V161.636H52.9261ZM64.0774 183.937C62.6948 183.937 61.4448 183.682 60.3274 183.17C59.2099 182.65 58.3245 181.897 57.6711 180.912C57.0272 179.927 56.7052 178.72 56.7052 177.29C56.7052 176.059 56.9419 175.045 57.4154 174.25C57.8889 173.455 58.5281 172.825 59.333 172.361C60.138 171.897 61.0376 171.546 62.0319 171.31C63.0262 171.073 64.0395 170.893 65.0717 170.77C66.3785 170.618 67.4391 170.495 68.2535 170.401C69.0679 170.296 69.6597 170.131 70.0291 169.903C70.3984 169.676 70.583 169.307 70.583 168.795V168.696C70.583 167.455 70.2327 166.494 69.5319 165.812C68.8406 165.131 67.8084 164.79 66.4353 164.79C65.0054 164.79 63.8785 165.107 63.0546 165.741C62.2402 166.366 61.6768 167.062 61.3643 167.83L57.3728 166.92C57.8463 165.595 58.5376 164.525 59.4467 163.71C60.3652 162.886 61.4211 162.29 62.6143 161.92C63.8075 161.542 65.0622 161.352 66.3785 161.352C67.2497 161.352 68.173 161.456 69.1484 161.665C70.1332 161.864 71.0518 162.233 71.9041 162.773C72.7658 163.312 73.4713 164.084 74.0205 165.088C74.5698 166.082 74.8444 167.375 74.8444 168.966V183.455H70.6967V180.472H70.5262C70.2516 181.021 69.8397 181.561 69.2904 182.091C68.7412 182.621 68.0357 183.062 67.174 183.412C66.3122 183.762 65.28 183.937 64.0774 183.937ZM65.0007 180.528C66.1749 180.528 67.1787 180.296 68.012 179.832C68.8548 179.368 69.494 178.762 69.9296 178.014C70.3747 177.257 70.5972 176.447 70.5972 175.585V172.773C70.4457 172.924 70.1522 173.066 69.7166 173.199C69.2904 173.322 68.8027 173.431 68.2535 173.526C67.7043 173.611 67.1692 173.691 66.6484 173.767C66.1275 173.833 65.6919 173.89 65.3416 173.937C64.5177 174.042 63.7649 174.217 63.083 174.463C62.4107 174.709 61.8709 175.064 61.4637 175.528C61.066 175.983 60.8671 176.589 60.8671 177.347C60.8671 178.398 61.2554 179.193 62.0319 179.733C62.8084 180.263 63.798 180.528 65.0007 180.528ZM97.1356 161.636V183.455H92.9878V161.636H97.1356ZM95.3316 171.764V175.429C94.6782 175.694 93.9869 175.931 93.2577 176.139C92.5286 176.338 91.7615 176.494 90.9566 176.608C90.1517 176.722 89.3136 176.778 88.4424 176.778C85.7435 176.778 83.5986 176.12 82.0077 174.804C80.4168 173.478 79.6214 171.452 79.6214 168.724V161.594H83.7549V168.724C83.7549 169.757 83.9443 170.595 84.3231 171.239C84.7019 171.883 85.2416 172.356 85.9424 172.659C86.6431 172.962 87.4765 173.114 88.4424 173.114C89.7208 173.114 90.8998 172.995 91.9793 172.759C93.0683 172.512 94.1858 172.181 95.3316 171.764ZM111.309 183.895C109.159 183.895 107.308 183.436 105.755 182.517C104.211 181.589 103.018 180.287 102.175 178.611C101.342 176.925 100.925 174.951 100.925 172.687C100.925 170.453 101.342 168.483 102.175 166.778C103.018 165.074 104.192 163.743 105.698 162.787C107.213 161.83 108.984 161.352 111.011 161.352C112.242 161.352 113.435 161.556 114.59 161.963C115.745 162.37 116.782 163.009 117.701 163.881C118.619 164.752 119.344 165.884 119.874 167.276C120.404 168.658 120.67 170.339 120.67 172.318V173.824H103.326V170.642H116.508C116.508 169.525 116.28 168.535 115.826 167.673C115.371 166.802 114.732 166.116 113.908 165.614C113.094 165.112 112.137 164.861 111.039 164.861C109.846 164.861 108.804 165.154 107.914 165.741C107.033 166.319 106.351 167.077 105.868 168.014C105.395 168.942 105.158 169.951 105.158 171.04V173.526C105.158 174.984 105.414 176.224 105.925 177.247C106.446 178.27 107.171 179.051 108.099 179.591C109.027 180.121 110.111 180.386 111.351 180.386C112.156 180.386 112.89 180.273 113.553 180.045C114.216 179.809 114.789 179.458 115.272 178.994C115.755 178.53 116.124 177.957 116.38 177.276L120.4 178C120.078 179.184 119.5 180.221 118.667 181.111C117.843 181.991 116.806 182.678 115.556 183.17C114.315 183.653 112.9 183.895 111.309 183.895ZM139.289 170.713V174.392H127.471V170.713H139.289ZM128.664 161.636V183.455H124.502V161.636H128.664ZM142.258 161.636V183.455H138.11V161.636H142.258ZM151.221 177.503L160.838 161.636H165.412V183.455H161.25V167.574L151.676 183.455H147.059V161.636H151.221V177.503ZM183.253 183.455V165.259H178.026C176.786 165.259 175.82 165.547 175.128 166.125C174.437 166.703 174.091 167.46 174.091 168.398C174.091 169.326 174.409 170.074 175.043 170.642C175.687 171.201 176.587 171.48 177.742 171.48H184.489V174.918H177.742C176.132 174.918 174.74 174.652 173.566 174.122C172.401 173.582 171.501 172.82 170.867 171.835C170.242 170.85 169.929 169.686 169.929 168.341C169.929 166.968 170.251 165.784 170.895 164.79C171.549 163.786 172.482 163.009 173.694 162.46C174.915 161.911 176.359 161.636 178.026 161.636H187.245V183.455H183.253ZM168.935 183.455L175.086 172.432H179.432L173.282 183.455H168.935Z" fill="black"/>
</svg>
