<svg width="841" height="442" viewBox="0 0 841 442" fill="none" xmlns="http://www.w3.org/2000/svg">
    <rect width="841" height="442" fill="white"/>
    <circle cx="93" cy="93" r="88" fill="#FFC943"/>
    <path d="M36.6534 108H31.9943L42.4631 78.9091H47.5341L58.0028 108H53.3438L45.1193 84.1932H44.892L36.6534 108ZM37.4347 96.608H52.5483V100.301H37.4347V96.608Z" fill="black" fill-opacity="0.8"/>
    <circle cx="173" cy="93" r="88" fill="#FFC943"/>
    <path d="M211.946 108V78.9091H230.085V82.6875H216.335V90.642H222.841C225 90.642 226.832 90.9924 228.338 91.6932C229.853 92.3939 231.009 93.3835 231.804 94.6619C232.609 95.9403 233.011 97.446 233.011 99.179C233.011 100.912 232.609 102.441 231.804 103.767C231.009 105.093 229.853 106.13 228.338 106.878C226.832 107.626 225 108 222.841 108H211.946ZM216.335 104.307H222.841C224.091 104.307 225.147 104.061 226.009 103.568C226.88 103.076 227.538 102.437 227.983 101.651C228.438 100.865 228.665 100.022 228.665 99.1222C228.665 97.8153 228.163 96.6932 227.159 95.7557C226.155 94.8087 224.716 94.3352 222.841 94.3352H216.335V104.307Z" fill="black" fill-opacity="0.8"/>
    <ellipse cx="133" cy="93" rx="48" ry="78" fill="#FF9E42"/>
    <circle cx="381" cy="93" r="88" fill="#FF9E42"/>
    <path d="M353.771 108H349.112L359.581 78.9091H364.652L375.121 108H370.462L362.237 84.1932H362.01L353.771 108ZM354.552 96.608H369.666V100.301H354.552V96.608Z" fill="white"/>
    <g clip-path="url(#clip0_2_134)">
        <circle cx="461" cy="93" r="88" fill="#FF9E42"/>
        <path d="M470.138 108V78.9091H488.277V82.6875H474.527V90.642H481.032C483.192 90.642 485.024 90.9924 486.53 91.6932C488.045 92.3939 489.2 93.3835 489.996 94.6619C490.8 95.9403 491.203 97.446 491.203 99.179C491.203 100.912 490.8 102.441 489.996 103.767C489.2 105.093 488.045 106.13 486.53 106.878C485.024 107.626 483.192 108 481.032 108H470.138ZM474.527 104.307H481.032C482.282 104.307 483.338 104.061 484.2 103.568C485.071 103.076 485.729 102.437 486.175 101.651C486.629 100.865 486.856 100.022 486.856 99.1222C486.856 97.8153 486.354 96.6932 485.351 95.7557C484.347 94.8087 482.907 94.3352 481.032 94.3352H474.527V104.307Z" fill="white"/>
    </g>
    <circle cx="669" cy="93" r="88" fill="#FF9E42"/>
    <path d="M612.653 108H607.994L618.463 78.9091H623.534L634.003 108H629.344L621.119 84.1932H620.892L612.653 108ZM613.435 96.608H628.548V100.301H613.435V96.608Z" fill="white"/>
    <circle cx="749" cy="93" r="88" fill="#FF9E42"/>
    <path d="M787.946 108V78.9091H806.085V82.6875H792.335V90.642H798.841C801 90.642 802.832 90.9924 804.338 91.6932C805.853 92.3939 807.009 93.3835 807.804 94.6619C808.609 95.9403 809.011 97.446 809.011 99.179C809.011 100.912 808.609 102.441 807.804 103.767C807.009 105.093 805.853 106.13 804.338 106.878C802.832 107.626 801 108 798.841 108H787.946ZM792.335 104.307H798.841C800.091 104.307 801.147 104.061 802.009 103.568C802.88 103.076 803.538 102.437 803.983 101.651C804.438 100.865 804.665 100.022 804.665 99.1222C804.665 97.8153 804.163 96.6932 803.159 95.7557C802.155 94.8087 800.716 94.3352 798.841 94.3352H792.335V104.307Z" fill="white"/>
    <ellipse cx="709" cy="93" rx="48" ry="78" fill="#FFC943"/>
    <circle cx="205" cy="317" r="88" fill="#FF9E42"/>
    <path d="M177.771 332H173.112L183.581 302.909H188.652L199.121 332H194.462L186.237 308.193H186.01L177.771 332ZM178.552 320.608H193.666V324.301H178.552V320.608Z" fill="white"/>
    <circle cx="301" cy="317" r="88" fill="#FFC943"/>
    <path d="M300.432 332V302.909H318.571V306.688H304.821V314.642H311.327C313.486 314.642 315.318 314.992 316.824 315.693C318.339 316.394 319.494 317.384 320.29 318.662C321.095 319.94 321.497 321.446 321.497 323.179C321.497 324.912 321.095 326.441 320.29 327.767C319.494 329.093 318.339 330.13 316.824 330.878C315.318 331.626 313.486 332 311.327 332H300.432ZM304.821 328.307H311.327C312.577 328.307 313.632 328.061 314.494 327.568C315.365 327.076 316.024 326.437 316.469 325.651C316.923 324.865 317.15 324.022 317.15 323.122C317.15 321.815 316.649 320.693 315.645 319.756C314.641 318.809 313.202 318.335 311.327 318.335H304.821V328.307Z" fill="black" fill-opacity="0.8"/>
    <circle cx="597" cy="317" r="88" fill="#FF9E42"/>
    <path d="M616.189 332V302.909H634.328V306.688H620.578V314.642H627.084C629.243 314.642 631.075 314.992 632.581 315.693C634.096 316.394 635.251 317.384 636.047 318.662C636.852 319.94 637.254 321.446 637.254 323.179C637.254 324.912 636.852 326.441 636.047 327.767C635.251 329.093 634.096 330.13 632.581 330.878C631.075 331.626 629.243 332 627.084 332H616.189ZM620.578 328.307H627.084C628.334 328.307 629.39 328.061 630.251 327.568C631.123 327.076 631.781 326.437 632.226 325.651C632.68 324.865 632.908 324.022 632.908 323.122C632.908 321.815 632.406 320.693 631.402 319.756C630.398 318.809 628.959 318.335 627.084 318.335H620.578V328.307Z" fill="white"/>
    <circle cx="509" cy="317" r="88" fill="#FFC943"/>
    <path d="M491.477 332H486.818L497.287 302.909H502.358L512.827 332H508.167L499.943 308.193H499.716L491.477 332ZM492.258 320.608H507.372V324.301H492.258V320.608Z" fill="black" fill-opacity="0.8"/>
    <path d="M66.142 199V190.273H73.2614V199H71.5966V191.739H67.7955V199H66.142ZM78.942 199.176C78.0822 199.176 77.3417 198.992 76.7204 198.625C76.103 198.254 75.6257 197.733 75.2886 197.062C74.9553 196.388 74.7886 195.598 74.7886 194.693C74.7886 193.799 74.9553 193.011 75.2886 192.33C75.6257 191.648 76.0954 191.116 76.6977 190.733C77.3038 190.35 78.0121 190.159 78.8227 190.159C79.3151 190.159 79.7924 190.241 80.2545 190.403C80.7167 190.566 81.1314 190.822 81.4989 191.17C81.8663 191.519 82.156 191.972 82.3682 192.528C82.5803 193.081 82.6864 193.754 82.6864 194.545V195.148H75.7489V193.875H81.0216C81.0216 193.428 80.9307 193.032 80.7489 192.688C80.567 192.339 80.3114 192.064 79.9818 191.864C79.656 191.663 79.2735 191.562 78.8341 191.562C78.3568 191.562 77.9401 191.68 77.5841 191.915C77.2318 192.146 76.9591 192.449 76.7659 192.824C76.5765 193.195 76.4818 193.598 76.4818 194.034V195.028C76.4818 195.612 76.5841 196.108 76.7886 196.517C76.997 196.926 77.2867 197.239 77.6579 197.455C78.0292 197.667 78.4629 197.773 78.9591 197.773C79.281 197.773 79.5746 197.727 79.8398 197.636C80.1049 197.542 80.3341 197.402 80.5273 197.216C80.7204 197.03 80.8682 196.801 80.9704 196.528L82.5784 196.818C82.4496 197.292 82.2185 197.706 81.8852 198.062C81.5557 198.415 81.1409 198.689 80.6409 198.886C80.1447 199.08 79.5784 199.176 78.942 199.176ZM84.2193 202.273V190.273H85.8784V191.688H86.0204C86.1189 191.506 86.261 191.295 86.4466 191.057C86.6322 190.818 86.8897 190.61 87.2193 190.432C87.5488 190.25 87.9844 190.159 88.5261 190.159C89.2307 190.159 89.8594 190.337 90.4125 190.693C90.9655 191.049 91.3992 191.562 91.7136 192.233C92.0318 192.903 92.1909 193.71 92.1909 194.653C92.1909 195.597 92.0337 196.405 91.7193 197.08C91.4049 197.75 90.9731 198.267 90.4238 198.631C89.8746 198.991 89.2477 199.17 88.5432 199.17C88.0129 199.17 87.5791 199.081 87.242 198.903C86.9087 198.725 86.6473 198.517 86.4579 198.278C86.2685 198.04 86.1227 197.828 86.0204 197.642H85.9182V202.273H84.2193ZM85.8841 194.636C85.8841 195.25 85.9731 195.788 86.1511 196.25C86.3291 196.712 86.5867 197.074 86.9238 197.335C87.261 197.593 87.6738 197.722 88.1625 197.722C88.6701 197.722 89.0943 197.587 89.4352 197.318C89.7761 197.045 90.0337 196.676 90.2079 196.21C90.386 195.744 90.475 195.22 90.475 194.636C90.475 194.061 90.3879 193.544 90.2136 193.085C90.0432 192.627 89.7856 192.265 89.4409 192C89.1 191.735 88.6738 191.602 88.1625 191.602C87.6701 191.602 87.2534 191.729 86.9125 191.983C86.5754 192.237 86.3197 192.591 86.1454 193.045C85.9712 193.5 85.8841 194.03 85.8841 194.636ZM97.5037 199.176C96.6438 199.176 95.9033 198.992 95.2821 198.625C94.6646 198.254 94.1874 197.733 93.8503 197.062C93.5169 196.388 93.3503 195.598 93.3503 194.693C93.3503 193.799 93.5169 193.011 93.8503 192.33C94.1874 191.648 94.6571 191.116 95.2593 190.733C95.8654 190.35 96.5737 190.159 97.3843 190.159C97.8768 190.159 98.354 190.241 98.8162 190.403C99.2783 190.566 99.6931 190.822 100.06 191.17C100.428 191.519 100.718 191.972 100.93 192.528C101.142 193.081 101.248 193.754 101.248 194.545V195.148H94.3105V193.875H99.5832C99.5832 193.428 99.4923 193.032 99.3105 192.688C99.1287 192.339 98.873 192.064 98.5434 191.864C98.2177 191.663 97.8351 191.562 97.3957 191.562C96.9184 191.562 96.5018 191.68 96.1457 191.915C95.7934 192.146 95.5207 192.449 95.3275 192.824C95.1381 193.195 95.0434 193.598 95.0434 194.034V195.028C95.0434 195.612 95.1457 196.108 95.3503 196.517C95.5586 196.926 95.8484 197.239 96.2196 197.455C96.5908 197.667 97.0245 197.773 97.5207 197.773C97.8427 197.773 98.1362 197.727 98.4014 197.636C98.6665 197.542 98.8957 197.402 99.0889 197.216C99.2821 197.03 99.4298 196.801 99.5321 196.528L101.14 196.818C101.011 197.292 100.78 197.706 100.447 198.062C100.117 198.415 99.7025 198.689 99.2025 198.886C98.7063 199.08 98.14 199.176 97.5037 199.176ZM106.457 199.176C105.612 199.176 104.885 198.985 104.275 198.602C103.669 198.216 103.203 197.684 102.878 197.006C102.552 196.328 102.389 195.551 102.389 194.676C102.389 193.79 102.556 193.008 102.889 192.33C103.222 191.648 103.692 191.116 104.298 190.733C104.904 190.35 105.618 190.159 106.44 190.159C107.103 190.159 107.694 190.282 108.213 190.528C108.732 190.771 109.15 191.112 109.468 191.551C109.79 191.991 109.982 192.504 110.042 193.091H108.389C108.298 192.682 108.09 192.33 107.764 192.034C107.442 191.739 107.01 191.591 106.468 191.591C105.995 191.591 105.58 191.716 105.224 191.966C104.872 192.212 104.597 192.564 104.4 193.023C104.203 193.477 104.105 194.015 104.105 194.636C104.105 195.273 104.201 195.822 104.395 196.284C104.588 196.746 104.86 197.104 105.213 197.358C105.569 197.612 105.987 197.739 106.468 197.739C106.79 197.739 107.082 197.68 107.343 197.562C107.609 197.441 107.83 197.269 108.008 197.045C108.19 196.822 108.317 196.553 108.389 196.239H110.042C109.982 196.803 109.798 197.307 109.491 197.75C109.184 198.193 108.773 198.542 108.258 198.795C107.747 199.049 107.146 199.176 106.457 199.176ZM115.268 199.176C114.409 199.176 113.668 198.992 113.047 198.625C112.429 198.254 111.952 197.733 111.615 197.062C111.282 196.388 111.115 195.598 111.115 194.693C111.115 193.799 111.282 193.011 111.615 192.33C111.952 191.648 112.422 191.116 113.024 190.733C113.63 190.35 114.338 190.159 115.149 190.159C115.642 190.159 116.119 190.241 116.581 190.403C117.043 190.566 117.458 190.822 117.825 191.17C118.193 191.519 118.482 191.972 118.695 192.528C118.907 193.081 119.013 193.754 119.013 194.545V195.148H112.075V193.875H117.348C117.348 193.428 117.257 193.032 117.075 192.688C116.893 192.339 116.638 192.064 116.308 191.864C115.982 191.663 115.6 191.562 115.16 191.562C114.683 191.562 114.267 191.68 113.91 191.915C113.558 192.146 113.285 192.449 113.092 192.824C112.903 193.195 112.808 193.598 112.808 194.034V195.028C112.808 195.612 112.91 196.108 113.115 196.517C113.323 196.926 113.613 197.239 113.984 197.455C114.356 197.667 114.789 197.773 115.285 197.773C115.607 197.773 115.901 197.727 116.166 197.636C116.431 197.542 116.66 197.402 116.854 197.216C117.047 197.03 117.195 196.801 117.297 196.528L118.905 196.818C118.776 197.292 118.545 197.706 118.212 198.062C117.882 198.415 117.467 198.689 116.967 198.886C116.471 199.08 115.905 199.176 115.268 199.176ZM127.551 190.273V199H125.892V190.273H127.551ZM126.83 194.324V195.79C126.568 195.896 126.292 195.991 126 196.074C125.709 196.153 125.402 196.216 125.08 196.261C124.758 196.307 124.423 196.33 124.074 196.33C122.995 196.33 122.137 196.066 121.5 195.54C120.864 195.009 120.546 194.199 120.546 193.108V190.256H122.199V193.108C122.199 193.521 122.275 193.856 122.426 194.114C122.578 194.371 122.794 194.561 123.074 194.682C123.354 194.803 123.688 194.864 124.074 194.864C124.585 194.864 125.057 194.816 125.489 194.722C125.924 194.623 126.371 194.491 126.83 194.324ZM133.221 199.176C132.361 199.176 131.62 198.992 130.999 198.625C130.382 198.254 129.904 197.733 129.567 197.062C129.234 196.388 129.067 195.598 129.067 194.693C129.067 193.799 129.234 193.011 129.567 192.33C129.904 191.648 130.374 191.116 130.976 190.733C131.582 190.35 132.291 190.159 133.101 190.159C133.594 190.159 134.071 190.241 134.533 190.403C134.995 190.566 135.41 190.822 135.777 191.17C136.145 191.519 136.435 191.972 136.647 192.528C136.859 193.081 136.965 193.754 136.965 194.545V195.148H130.027V193.875H135.3C135.3 193.428 135.209 193.032 135.027 192.688C134.846 192.339 134.59 192.064 134.26 191.864C133.935 191.663 133.552 191.562 133.113 191.562C132.635 191.562 132.219 191.68 131.863 191.915C131.51 192.146 131.238 192.449 131.045 192.824C130.855 193.195 130.76 193.598 130.76 194.034V195.028C130.76 195.612 130.863 196.108 131.067 196.517C131.276 196.926 131.565 197.239 131.937 197.455C132.308 197.667 132.741 197.773 133.238 197.773C133.56 197.773 133.853 197.727 134.118 197.636C134.384 197.542 134.613 197.402 134.806 197.216C134.999 197.03 135.147 196.801 135.249 196.528L136.857 196.818C136.728 197.292 136.497 197.706 136.164 198.062C135.834 198.415 135.42 198.689 134.92 198.886C134.423 199.08 133.857 199.176 133.221 199.176ZM144.413 193.903V195.375H139.685V193.903H144.413ZM140.163 190.273V199H138.498V190.273H140.163ZM145.6 190.273V199H143.941V190.273H145.6ZM149.186 196.619L153.032 190.273H154.862V199H153.197V192.648L149.368 199H147.521V190.273H149.186V196.619ZM160.555 199.176C159.695 199.176 158.955 198.992 158.334 198.625C157.716 198.254 157.239 197.733 156.902 197.062C156.569 196.388 156.402 195.598 156.402 194.693C156.402 193.799 156.569 193.011 156.902 192.33C157.239 191.648 157.709 191.116 158.311 190.733C158.917 190.35 159.625 190.159 160.436 190.159C160.928 190.159 161.406 190.241 161.868 190.403C162.33 190.566 162.745 190.822 163.112 191.17C163.48 191.519 163.769 191.972 163.981 192.528C164.194 193.081 164.3 193.754 164.3 194.545V195.148H157.362V193.875H162.635C162.635 193.428 162.544 193.032 162.362 192.688C162.18 192.339 161.925 192.064 161.595 191.864C161.269 191.663 160.887 191.562 160.447 191.562C159.97 191.562 159.553 191.68 159.197 191.915C158.845 192.146 158.572 192.449 158.379 192.824C158.19 193.195 158.095 193.598 158.095 194.034V195.028C158.095 195.612 158.197 196.108 158.402 196.517C158.61 196.926 158.9 197.239 159.271 197.455C159.642 197.667 160.076 197.773 160.572 197.773C160.894 197.773 161.188 197.727 161.453 197.636C161.718 197.542 161.947 197.402 162.141 197.216C162.334 197.03 162.481 196.801 162.584 196.528L164.192 196.818C164.063 197.292 163.832 197.706 163.498 198.062C163.169 198.415 162.754 198.689 162.254 198.886C161.758 199.08 161.192 199.176 160.555 199.176ZM170.834 199H168.971L173.158 187.364H175.187L179.374 199H177.51L174.221 189.477H174.13L170.834 199ZM171.147 194.443H177.192V195.92H171.147V194.443ZM183.952 199.165C183.172 199.165 182.5 199.023 181.935 198.739C181.375 198.455 180.943 198.068 180.64 197.58C180.337 197.087 180.185 196.53 180.185 195.909C180.185 195.436 180.284 195.015 180.481 194.648C180.678 194.277 180.952 193.934 181.305 193.619C181.657 193.305 182.064 192.989 182.526 192.67L184.401 191.347C184.719 191.138 184.968 190.919 185.146 190.688C185.324 190.453 185.413 190.163 185.413 189.818C185.413 189.545 185.295 189.284 185.06 189.034C184.826 188.784 184.511 188.659 184.117 188.659C183.844 188.659 183.604 188.725 183.396 188.858C183.191 188.991 183.03 189.161 182.913 189.369C182.799 189.574 182.742 189.79 182.742 190.017C182.742 190.282 182.814 190.549 182.958 190.818C183.106 191.087 183.295 191.366 183.526 191.653C183.757 191.937 184 192.233 184.254 192.54L189.657 199H187.737L183.265 193.744C182.89 193.301 182.541 192.884 182.219 192.494C181.897 192.1 181.636 191.703 181.435 191.301C181.238 190.896 181.14 190.458 181.14 189.989C181.14 189.455 181.261 188.981 181.504 188.568C181.75 188.152 182.093 187.826 182.532 187.591C182.971 187.356 183.487 187.239 184.077 187.239C184.676 187.239 185.189 187.356 185.617 187.591C186.049 187.822 186.38 188.131 186.612 188.517C186.846 188.9 186.964 189.318 186.964 189.773C186.964 190.326 186.826 190.814 186.549 191.239C186.276 191.659 185.899 192.045 185.418 192.398L183.083 194.119C182.629 194.453 182.312 194.782 182.134 195.108C181.96 195.43 181.873 195.682 181.873 195.864C181.873 196.197 181.958 196.506 182.129 196.79C182.303 197.074 182.545 197.301 182.856 197.472C183.17 197.642 183.538 197.727 183.958 197.727C184.39 197.727 184.81 197.634 185.219 197.449C185.632 197.259 186.005 196.989 186.339 196.636C186.676 196.284 186.943 195.862 187.14 195.369C187.337 194.877 187.435 194.326 187.435 193.716H188.969C188.969 194.466 188.884 195.1 188.714 195.619C188.543 196.134 188.337 196.555 188.094 196.881C187.856 197.203 187.63 197.455 187.418 197.636C187.35 197.697 187.286 197.758 187.225 197.818C187.165 197.879 187.1 197.939 187.032 198C186.638 198.398 186.161 198.691 185.6 198.881C185.043 199.07 184.494 199.165 183.952 199.165ZM190.772 199V187.364H198.028V188.875H192.528V192.057H195.13C195.994 192.057 196.727 192.197 197.329 192.477C197.935 192.758 198.397 193.153 198.715 193.665C199.037 194.176 199.198 194.778 199.198 195.472C199.198 196.165 199.037 196.777 198.715 197.307C198.397 197.837 197.935 198.252 197.329 198.551C196.727 198.85 195.994 199 195.13 199H190.772ZM192.528 197.523H195.13C195.63 197.523 196.053 197.424 196.397 197.227C196.746 197.03 197.009 196.775 197.187 196.46C197.369 196.146 197.46 195.809 197.46 195.449C197.46 194.926 197.259 194.477 196.858 194.102C196.456 193.723 195.88 193.534 195.13 193.534H192.528V197.523Z" fill="black"/>
    <path d="M201.142 426.273V414.273H202.801V415.688H202.943C203.042 415.506 203.184 415.295 203.369 415.057C203.555 414.818 203.813 414.61 204.142 414.432C204.472 414.25 204.907 414.159 205.449 414.159C206.153 414.159 206.782 414.337 207.335 414.693C207.888 415.049 208.322 415.562 208.636 416.233C208.955 416.903 209.114 417.71 209.114 418.653C209.114 419.597 208.956 420.405 208.642 421.08C208.328 421.75 207.896 422.267 207.347 422.631C206.797 422.991 206.17 423.17 205.466 423.17C204.936 423.17 204.502 423.081 204.165 422.903C203.831 422.725 203.57 422.517 203.381 422.278C203.191 422.04 203.045 421.828 202.943 421.642H202.841V426.273H201.142ZM202.807 418.636C202.807 419.25 202.896 419.788 203.074 420.25C203.252 420.712 203.509 421.074 203.847 421.335C204.184 421.593 204.597 421.722 205.085 421.722C205.593 421.722 206.017 421.587 206.358 421.318C206.699 421.045 206.956 420.676 207.131 420.21C207.309 419.744 207.398 419.22 207.398 418.636C207.398 418.061 207.311 417.544 207.136 417.085C206.966 416.627 206.708 416.265 206.364 416C206.023 415.735 205.597 415.602 205.085 415.602C204.593 415.602 204.176 415.729 203.835 415.983C203.498 416.237 203.242 416.591 203.068 417.045C202.894 417.5 202.807 418.03 202.807 418.636ZM213.205 423.193C212.652 423.193 212.152 423.091 211.705 422.886C211.258 422.678 210.904 422.377 210.642 421.983C210.385 421.589 210.256 421.106 210.256 420.534C210.256 420.042 210.351 419.636 210.54 419.318C210.729 419 210.985 418.748 211.307 418.562C211.629 418.377 211.989 418.237 212.387 418.142C212.784 418.047 213.19 417.975 213.603 417.926C214.125 417.866 214.55 417.816 214.875 417.778C215.201 417.737 215.438 417.67 215.585 417.58C215.733 417.489 215.807 417.341 215.807 417.136V417.097C215.807 416.6 215.667 416.216 215.387 415.943C215.11 415.67 214.697 415.534 214.148 415.534C213.576 415.534 213.125 415.661 212.796 415.915C212.47 416.165 212.245 416.443 212.12 416.75L210.523 416.386C210.712 415.856 210.989 415.428 211.353 415.102C211.72 414.773 212.142 414.534 212.62 414.386C213.097 414.235 213.599 414.159 214.125 414.159C214.474 414.159 214.843 414.201 215.233 414.284C215.627 414.364 215.995 414.511 216.335 414.727C216.68 414.943 216.962 415.252 217.182 415.653C217.402 416.051 217.512 416.568 217.512 417.205V423H215.853V421.807H215.784C215.675 422.027 215.51 422.242 215.29 422.455C215.07 422.667 214.788 422.843 214.443 422.983C214.099 423.123 213.686 423.193 213.205 423.193ZM213.574 421.83C214.044 421.83 214.445 421.737 214.779 421.551C215.116 421.366 215.371 421.123 215.546 420.824C215.724 420.521 215.813 420.197 215.813 419.852V418.727C215.752 418.788 215.635 418.845 215.46 418.898C215.29 418.947 215.095 418.991 214.875 419.028C214.656 419.062 214.442 419.095 214.233 419.125C214.025 419.152 213.851 419.174 213.71 419.193C213.381 419.235 213.08 419.305 212.807 419.403C212.538 419.502 212.322 419.644 212.159 419.83C212 420.011 211.921 420.254 211.921 420.557C211.921 420.977 212.076 421.295 212.387 421.511C212.697 421.723 213.093 421.83 213.574 421.83ZM218.905 420.693H220.644C220.667 421.049 220.828 421.324 221.127 421.517C221.43 421.71 221.822 421.807 222.303 421.807C222.792 421.807 223.208 421.703 223.553 421.494C223.898 421.282 224.07 420.955 224.07 420.511C224.07 420.246 224.004 420.015 223.871 419.818C223.742 419.617 223.559 419.462 223.32 419.352C223.085 419.242 222.807 419.188 222.485 419.188H221.064V417.852H222.485C222.966 417.852 223.326 417.742 223.564 417.523C223.803 417.303 223.922 417.028 223.922 416.699C223.922 416.343 223.794 416.057 223.536 415.841C223.282 415.621 222.928 415.511 222.474 415.511C222.011 415.511 221.627 415.616 221.32 415.824C221.013 416.028 220.852 416.294 220.837 416.619H219.121C219.133 416.131 219.28 415.703 219.564 415.335C219.852 414.964 220.239 414.676 220.724 414.472C221.212 414.263 221.767 414.159 222.388 414.159C223.036 414.159 223.597 414.263 224.07 414.472C224.544 414.68 224.909 414.968 225.167 415.335C225.428 415.703 225.559 416.125 225.559 416.602C225.559 417.083 225.415 417.477 225.127 417.784C224.843 418.087 224.472 418.305 224.013 418.438V418.528C224.35 418.551 224.65 418.653 224.911 418.835C225.172 419.017 225.377 419.258 225.525 419.557C225.672 419.856 225.746 420.195 225.746 420.574C225.746 421.108 225.599 421.57 225.303 421.96C225.011 422.35 224.606 422.652 224.087 422.864C223.572 423.072 222.983 423.176 222.32 423.176C221.676 423.176 221.099 423.076 220.587 422.875C220.08 422.67 219.676 422.383 219.377 422.011C219.082 421.64 218.924 421.201 218.905 420.693ZM233.063 417.903V419.375H228.336V417.903H233.063ZM228.813 414.273V423H227.149V414.273H228.813ZM234.251 414.273V423H232.592V414.273H234.251ZM237.836 420.619L241.683 414.273H243.512V423H241.848V416.648L238.018 423H236.172V414.273H237.836V420.619ZM252.564 414.273V421.608H253.842V425.812H252.166V423H245.445V414.273H247.109V421.534H250.905V414.273H252.564ZM257.914 423.193C257.361 423.193 256.861 423.091 256.414 422.886C255.967 422.678 255.612 422.377 255.351 421.983C255.093 421.589 254.965 421.106 254.965 420.534C254.965 420.042 255.059 419.636 255.249 419.318C255.438 419 255.694 418.748 256.016 418.562C256.338 418.377 256.698 418.237 257.095 418.142C257.493 418.047 257.898 417.975 258.311 417.926C258.834 417.866 259.258 417.816 259.584 417.778C259.91 417.737 260.147 417.67 260.294 417.58C260.442 417.489 260.516 417.341 260.516 417.136V417.097C260.516 416.6 260.376 416.216 260.095 415.943C259.819 415.67 259.406 415.534 258.857 415.534C258.285 415.534 257.834 415.661 257.504 415.915C257.179 416.165 256.953 416.443 256.828 416.75L255.232 416.386C255.421 415.856 255.698 415.428 256.061 415.102C256.429 414.773 256.851 414.534 257.328 414.386C257.806 414.235 258.308 414.159 258.834 414.159C259.183 414.159 259.552 414.201 259.942 414.284C260.336 414.364 260.703 414.511 261.044 414.727C261.389 414.943 261.671 415.252 261.891 415.653C262.111 416.051 262.22 416.568 262.22 417.205V423H260.561V421.807H260.493C260.383 422.027 260.218 422.242 259.999 422.455C259.779 422.667 259.497 422.843 259.152 422.983C258.808 423.123 258.395 423.193 257.914 423.193ZM258.283 421.83C258.753 421.83 259.154 421.737 259.487 421.551C259.825 421.366 260.08 421.123 260.254 420.824C260.433 420.521 260.522 420.197 260.522 419.852V418.727C260.461 418.788 260.343 418.845 260.169 418.898C259.999 418.947 259.804 418.991 259.584 419.028C259.364 419.062 259.15 419.095 258.942 419.125C258.734 419.152 258.559 419.174 258.419 419.193C258.09 419.235 257.789 419.305 257.516 419.403C257.247 419.502 257.031 419.644 256.868 419.83C256.709 420.011 256.629 420.254 256.629 420.557C256.629 420.977 256.785 421.295 257.095 421.511C257.406 421.723 257.802 421.83 258.283 421.83ZM269.133 423H267.269L271.457 411.364H273.485L277.673 423H275.809L272.519 413.477H272.428L269.133 423ZM269.445 418.443H275.491V419.92H269.445V418.443ZM284.007 416.443V417.92H278.848V416.443H284.007ZM286.055 423V411.364H293.311V412.875H287.811V416.057H290.413C291.277 416.057 292.01 416.197 292.612 416.477C293.218 416.758 293.68 417.153 293.998 417.665C294.32 418.176 294.481 418.778 294.481 419.472C294.481 420.165 294.32 420.777 293.998 421.307C293.68 421.837 293.218 422.252 292.612 422.551C292.01 422.85 291.277 423 290.413 423H286.055ZM287.811 421.523H290.413C290.913 421.523 291.336 421.424 291.68 421.227C292.029 421.03 292.292 420.775 292.47 420.46C292.652 420.146 292.743 419.809 292.743 419.449C292.743 418.926 292.542 418.477 292.141 418.102C291.739 417.723 291.163 417.534 290.413 417.534H287.811V421.523Z" fill="black"/>
    <path d="M509.142 426.273V414.273H510.801V415.688H510.943C511.042 415.506 511.184 415.295 511.369 415.057C511.555 414.818 511.813 414.61 512.142 414.432C512.472 414.25 512.907 414.159 513.449 414.159C514.153 414.159 514.782 414.337 515.335 414.693C515.888 415.049 516.322 415.562 516.636 416.233C516.955 416.903 517.114 417.71 517.114 418.653C517.114 419.597 516.956 420.405 516.642 421.08C516.328 421.75 515.896 422.267 515.347 422.631C514.797 422.991 514.17 423.17 513.466 423.17C512.936 423.17 512.502 423.081 512.165 422.903C511.831 422.725 511.57 422.517 511.381 422.278C511.191 422.04 511.045 421.828 510.943 421.642H510.841V426.273H509.142ZM510.807 418.636C510.807 419.25 510.896 419.788 511.074 420.25C511.252 420.712 511.509 421.074 511.847 421.335C512.184 421.593 512.597 421.722 513.085 421.722C513.593 421.722 514.017 421.587 514.358 421.318C514.699 421.045 514.956 420.676 515.131 420.21C515.309 419.744 515.398 419.22 515.398 418.636C515.398 418.061 515.311 417.544 515.136 417.085C514.966 416.627 514.708 416.265 514.364 416C514.023 415.735 513.597 415.602 513.085 415.602C512.593 415.602 512.176 415.729 511.835 415.983C511.498 416.237 511.242 416.591 511.068 417.045C510.894 417.5 510.807 418.03 510.807 418.636ZM521.205 423.193C520.652 423.193 520.152 423.091 519.705 422.886C519.258 422.678 518.904 422.377 518.642 421.983C518.385 421.589 518.256 421.106 518.256 420.534C518.256 420.042 518.351 419.636 518.54 419.318C518.729 419 518.985 418.748 519.307 418.562C519.629 418.377 519.989 418.237 520.387 418.142C520.784 418.047 521.19 417.975 521.603 417.926C522.125 417.866 522.55 417.816 522.875 417.778C523.201 417.737 523.438 417.67 523.585 417.58C523.733 417.489 523.807 417.341 523.807 417.136V417.097C523.807 416.6 523.667 416.216 523.387 415.943C523.11 415.67 522.697 415.534 522.148 415.534C521.576 415.534 521.125 415.661 520.796 415.915C520.47 416.165 520.245 416.443 520.12 416.75L518.523 416.386C518.712 415.856 518.989 415.428 519.353 415.102C519.72 414.773 520.142 414.534 520.62 414.386C521.097 414.235 521.599 414.159 522.125 414.159C522.474 414.159 522.843 414.201 523.233 414.284C523.627 414.364 523.995 414.511 524.335 414.727C524.68 414.943 524.962 415.252 525.182 415.653C525.402 416.051 525.512 416.568 525.512 417.205V423H523.853V421.807H523.784C523.675 422.027 523.51 422.242 523.29 422.455C523.07 422.667 522.788 422.843 522.443 422.983C522.099 423.123 521.686 423.193 521.205 423.193ZM521.574 421.83C522.044 421.83 522.445 421.737 522.779 421.551C523.116 421.366 523.371 421.123 523.546 420.824C523.724 420.521 523.813 420.197 523.813 419.852V418.727C523.752 418.788 523.635 418.845 523.46 418.898C523.29 418.947 523.095 418.991 522.875 419.028C522.656 419.062 522.442 419.095 522.233 419.125C522.025 419.152 521.851 419.174 521.71 419.193C521.381 419.235 521.08 419.305 520.807 419.403C520.538 419.502 520.322 419.644 520.159 419.83C520 420.011 519.921 420.254 519.921 420.557C519.921 420.977 520.076 421.295 520.387 421.511C520.697 421.723 521.093 421.83 521.574 421.83ZM526.905 420.693H528.644C528.667 421.049 528.828 421.324 529.127 421.517C529.43 421.71 529.822 421.807 530.303 421.807C530.792 421.807 531.208 421.703 531.553 421.494C531.898 421.282 532.07 420.955 532.07 420.511C532.07 420.246 532.004 420.015 531.871 419.818C531.742 419.617 531.559 419.462 531.32 419.352C531.085 419.242 530.807 419.188 530.485 419.188H529.064V417.852H530.485C530.966 417.852 531.326 417.742 531.564 417.523C531.803 417.303 531.922 417.028 531.922 416.699C531.922 416.343 531.794 416.057 531.536 415.841C531.282 415.621 530.928 415.511 530.474 415.511C530.011 415.511 529.627 415.616 529.32 415.824C529.013 416.028 528.852 416.294 528.837 416.619H527.121C527.133 416.131 527.28 415.703 527.564 415.335C527.852 414.964 528.239 414.676 528.724 414.472C529.212 414.263 529.767 414.159 530.388 414.159C531.036 414.159 531.597 414.263 532.07 414.472C532.544 414.68 532.909 414.968 533.167 415.335C533.428 415.703 533.559 416.125 533.559 416.602C533.559 417.083 533.415 417.477 533.127 417.784C532.843 418.087 532.472 418.305 532.013 418.438V418.528C532.35 418.551 532.65 418.653 532.911 418.835C533.172 419.017 533.377 419.258 533.525 419.557C533.672 419.856 533.746 420.195 533.746 420.574C533.746 421.108 533.599 421.57 533.303 421.96C533.011 422.35 532.606 422.652 532.087 422.864C531.572 423.072 530.983 423.176 530.32 423.176C529.676 423.176 529.099 423.076 528.587 422.875C528.08 422.67 527.676 422.383 527.377 422.011C527.082 421.64 526.924 421.201 526.905 420.693ZM541.063 417.903V419.375H536.336V417.903H541.063ZM536.813 414.273V423H535.149V414.273H536.813ZM542.251 414.273V423H540.592V414.273H542.251ZM545.836 420.619L549.683 414.273H551.512V423H549.848V416.648L546.018 423H544.172V414.273H545.836V420.619ZM560.564 414.273V421.608H561.842V425.812H560.166V423H553.445V414.273H555.109V421.534H558.905V414.273H560.564ZM565.914 423.193C565.361 423.193 564.861 423.091 564.414 422.886C563.967 422.678 563.612 422.377 563.351 421.983C563.093 421.589 562.965 421.106 562.965 420.534C562.965 420.042 563.059 419.636 563.249 419.318C563.438 419 563.694 418.748 564.016 418.562C564.338 418.377 564.698 418.237 565.095 418.142C565.493 418.047 565.898 417.975 566.311 417.926C566.834 417.866 567.258 417.816 567.584 417.778C567.91 417.737 568.147 417.67 568.294 417.58C568.442 417.489 568.516 417.341 568.516 417.136V417.097C568.516 416.6 568.376 416.216 568.095 415.943C567.819 415.67 567.406 415.534 566.857 415.534C566.285 415.534 565.834 415.661 565.504 415.915C565.179 416.165 564.953 416.443 564.828 416.75L563.232 416.386C563.421 415.856 563.698 415.428 564.061 415.102C564.429 414.773 564.851 414.534 565.328 414.386C565.806 414.235 566.308 414.159 566.834 414.159C567.183 414.159 567.552 414.201 567.942 414.284C568.336 414.364 568.703 414.511 569.044 414.727C569.389 414.943 569.671 415.252 569.891 415.653C570.111 416.051 570.22 416.568 570.22 417.205V423H568.561V421.807H568.493C568.383 422.027 568.218 422.242 567.999 422.455C567.779 422.667 567.497 422.843 567.152 422.983C566.808 423.123 566.395 423.193 565.914 423.193ZM566.283 421.83C566.753 421.83 567.154 421.737 567.487 421.551C567.825 421.366 568.08 421.123 568.254 420.824C568.433 420.521 568.522 420.197 568.522 419.852V418.727C568.461 418.788 568.343 418.845 568.169 418.898C567.999 418.947 567.804 418.991 567.584 419.028C567.364 419.062 567.15 419.095 566.942 419.125C566.734 419.152 566.559 419.174 566.419 419.193C566.09 419.235 565.789 419.305 565.516 419.403C565.247 419.502 565.031 419.644 564.868 419.83C564.709 420.011 564.629 420.254 564.629 420.557C564.629 420.977 564.785 421.295 565.095 421.511C565.406 421.723 565.802 421.83 566.283 421.83ZM576.15 423V411.364H583.406V412.875H577.906V416.057H580.508C581.371 416.057 582.104 416.197 582.707 416.477C583.313 416.758 583.775 417.153 584.093 417.665C584.415 418.176 584.576 418.778 584.576 419.472C584.576 420.165 584.415 420.777 584.093 421.307C583.775 421.837 583.313 422.252 582.707 422.551C582.104 422.85 581.371 423 580.508 423H576.15ZM577.906 421.523H580.508C581.008 421.523 581.43 421.424 581.775 421.227C582.123 421.03 582.387 420.775 582.565 420.46C582.746 420.146 582.837 419.809 582.837 419.449C582.837 418.926 582.637 418.477 582.235 418.102C581.834 417.723 581.258 417.534 580.508 417.534H577.906V421.523ZM591.304 416.443V417.92H586.145V416.443H591.304ZM594.335 423H592.471L596.659 411.364H598.687L602.875 423H601.011L597.721 413.477H597.631L594.335 423ZM594.648 418.443H600.693V419.92H594.648V418.443Z" fill="black"/>
    <path d="M359.818 199.176C359 199.176 358.286 198.989 357.676 198.614C357.066 198.239 356.593 197.714 356.256 197.04C355.919 196.366 355.75 195.578 355.75 194.676C355.75 193.771 355.919 192.979 356.256 192.301C356.593 191.623 357.066 191.097 357.676 190.722C358.286 190.347 359 190.159 359.818 190.159C360.636 190.159 361.35 190.347 361.96 190.722C362.57 191.097 363.044 191.623 363.381 192.301C363.718 192.979 363.886 193.771 363.886 194.676C363.886 195.578 363.718 196.366 363.381 197.04C363.044 197.714 362.57 198.239 361.96 198.614C361.35 198.989 360.636 199.176 359.818 199.176ZM359.824 197.75C360.354 197.75 360.794 197.61 361.142 197.33C361.491 197.049 361.748 196.676 361.915 196.21C362.085 195.744 362.17 195.231 362.17 194.67C362.17 194.114 362.085 193.602 361.915 193.136C361.748 192.667 361.491 192.29 361.142 192.006C360.794 191.722 360.354 191.58 359.824 191.58C359.29 191.58 358.847 191.722 358.494 192.006C358.146 192.29 357.886 192.667 357.716 193.136C357.549 193.602 357.466 194.114 357.466 194.67C357.466 195.231 357.549 195.744 357.716 196.21C357.886 196.676 358.146 197.049 358.494 197.33C358.847 197.61 359.29 197.75 359.824 197.75ZM372.164 187.023L372.868 188.097C372.607 188.335 372.309 188.506 371.976 188.608C371.647 188.706 371.266 188.769 370.834 188.795C370.402 188.818 369.908 188.839 369.351 188.858C368.722 188.877 368.205 189.013 367.8 189.267C367.395 189.517 367.082 189.888 366.862 190.381C366.647 190.869 366.506 191.483 366.442 192.222H366.55C366.834 191.68 367.228 191.275 367.732 191.006C368.239 190.737 368.809 190.602 369.442 190.602C370.147 190.602 370.773 190.763 371.323 191.085C371.872 191.407 372.304 191.879 372.618 192.5C372.936 193.117 373.095 193.873 373.095 194.767C373.095 195.672 372.929 196.455 372.595 197.114C372.266 197.773 371.8 198.282 371.198 198.642C370.599 198.998 369.893 199.176 369.078 199.176C368.264 199.176 367.554 198.992 366.948 198.625C366.345 198.254 365.878 197.705 365.544 196.977C365.215 196.25 365.05 195.352 365.05 194.284V193.42C365.05 191.424 365.406 189.922 366.118 188.915C366.83 187.907 367.895 187.39 369.311 187.364C369.77 187.352 370.179 187.35 370.539 187.358C370.898 187.362 371.213 187.345 371.482 187.307C371.755 187.265 371.982 187.17 372.164 187.023ZM369.084 197.75C369.558 197.75 369.965 197.631 370.306 197.392C370.65 197.15 370.916 196.807 371.101 196.364C371.287 195.92 371.38 195.398 371.38 194.795C371.38 194.205 371.287 193.703 371.101 193.29C370.916 192.877 370.65 192.562 370.306 192.347C369.961 192.127 369.548 192.017 369.067 192.017C368.711 192.017 368.393 192.08 368.112 192.205C367.832 192.326 367.592 192.506 367.391 192.744C367.194 192.983 367.041 193.275 366.931 193.619C366.825 193.96 366.768 194.352 366.76 194.795C366.76 195.697 366.967 196.415 367.38 196.949C367.796 197.483 368.364 197.75 369.084 197.75ZM375.793 190.273V191.744H373.424V190.273H375.793ZM377.072 193.273H379.606C380.674 193.273 381.496 193.538 382.072 194.068C382.647 194.598 382.937 195.282 382.941 196.119C382.937 196.665 382.806 197.155 382.549 197.591C382.291 198.027 381.914 198.371 381.418 198.625C380.922 198.875 380.318 199 379.606 199H375.793V190.273H377.458V197.534H379.606C380.094 197.534 380.496 197.407 380.81 197.153C381.125 196.896 381.282 196.568 381.282 196.17C381.282 195.75 381.125 195.407 380.81 195.142C380.496 194.873 380.094 194.739 379.606 194.739H377.072V193.273ZM388.254 199.176C387.394 199.176 386.653 198.992 386.032 198.625C385.415 198.254 384.937 197.733 384.6 197.062C384.267 196.388 384.1 195.598 384.1 194.693C384.1 193.799 384.267 193.011 384.6 192.33C384.937 191.648 385.407 191.116 386.009 190.733C386.615 190.35 387.324 190.159 388.134 190.159C388.627 190.159 389.104 190.241 389.566 190.403C390.028 190.566 390.443 190.822 390.81 191.17C391.178 191.519 391.468 191.972 391.68 192.528C391.892 193.081 391.998 193.754 391.998 194.545V195.148H385.06V193.875H390.333C390.333 193.428 390.242 193.032 390.06 192.688C389.879 192.339 389.623 192.064 389.293 191.864C388.968 191.663 388.585 191.562 388.146 191.562C387.668 191.562 387.252 191.68 386.896 191.915C386.543 192.146 386.271 192.449 386.078 192.824C385.888 193.195 385.793 193.598 385.793 194.034V195.028C385.793 195.612 385.896 196.108 386.1 196.517C386.309 196.926 386.598 197.239 386.97 197.455C387.341 197.667 387.774 197.773 388.271 197.773C388.593 197.773 388.886 197.727 389.151 197.636C389.417 197.542 389.646 197.402 389.839 197.216C390.032 197.03 390.18 196.801 390.282 196.528L391.89 196.818C391.761 197.292 391.53 197.706 391.197 198.062C390.867 198.415 390.453 198.689 389.953 198.886C389.456 199.08 388.89 199.176 388.254 199.176ZM392.679 201.517V197.528H393.389C393.571 197.362 393.724 197.163 393.849 196.932C393.978 196.701 394.086 196.426 394.173 196.108C394.264 195.79 394.34 195.419 394.4 194.994C394.461 194.566 394.514 194.078 394.559 193.528L394.832 190.273H400.764V197.528H402.105V201.517H400.446V199H394.36V201.517H392.679ZM395.207 197.528H399.105V191.727H396.355L396.173 193.528C396.086 194.445 395.976 195.241 395.843 195.915C395.711 196.585 395.499 197.123 395.207 197.528ZM405.078 196.619L408.925 190.273H410.754V199H409.089V192.648L405.26 199H403.413V190.273H405.078V196.619ZM418.601 193.903V195.375H413.874V193.903H418.601ZM414.351 190.273V199H412.686V190.273H414.351ZM419.789 190.273V199H418.129V190.273H419.789ZM425.471 199.176C424.611 199.176 423.87 198.992 423.249 198.625C422.632 198.254 422.154 197.733 421.817 197.062C421.484 196.388 421.317 195.598 421.317 194.693C421.317 193.799 421.484 193.011 421.817 192.33C422.154 191.648 422.624 191.116 423.226 190.733C423.832 190.35 424.541 190.159 425.351 190.159C425.844 190.159 426.321 190.241 426.783 190.403C427.245 190.566 427.66 190.822 428.027 191.17C428.395 191.519 428.685 191.972 428.897 192.528C429.109 193.081 429.215 193.754 429.215 194.545V195.148H422.277V193.875H427.55C427.55 193.428 427.459 193.032 427.277 192.688C427.096 192.339 426.84 192.064 426.51 191.864C426.185 191.663 425.802 191.562 425.363 191.562C424.885 191.562 424.469 191.68 424.113 191.915C423.76 192.146 423.488 192.449 423.295 192.824C423.105 193.195 423.01 193.598 423.01 194.034V195.028C423.01 195.612 423.113 196.108 423.317 196.517C423.526 196.926 423.815 197.239 424.187 197.455C424.558 197.667 424.991 197.773 425.488 197.773C425.81 197.773 426.103 197.727 426.368 197.636C426.634 197.542 426.863 197.402 427.056 197.216C427.249 197.03 427.397 196.801 427.499 196.528L429.107 196.818C428.978 197.292 428.747 197.706 428.414 198.062C428.084 198.415 427.67 198.689 427.17 198.886C426.673 199.08 426.107 199.176 425.471 199.176ZM436.663 193.903V195.375H431.935V193.903H436.663ZM432.413 190.273V199H430.748V190.273H432.413ZM437.85 190.273V199H436.191V190.273H437.85ZM441.436 196.619L445.282 190.273H447.112V199H445.447V192.648L441.618 199H439.771V190.273H441.436V196.619ZM452.805 199.176C451.945 199.176 451.205 198.992 450.584 198.625C449.966 198.254 449.489 197.733 449.152 197.062C448.819 196.388 448.652 195.598 448.652 194.693C448.652 193.799 448.819 193.011 449.152 192.33C449.489 191.648 449.959 191.116 450.561 190.733C451.167 190.35 451.875 190.159 452.686 190.159C453.178 190.159 453.656 190.241 454.118 190.403C454.58 190.566 454.995 190.822 455.362 191.17C455.73 191.519 456.019 191.972 456.231 192.528C456.444 193.081 456.55 193.754 456.55 194.545V195.148H449.612V193.875H454.885C454.885 193.428 454.794 193.032 454.612 192.688C454.43 192.339 454.175 192.064 453.845 191.864C453.519 191.663 453.137 191.562 452.697 191.562C452.22 191.562 451.803 191.68 451.447 191.915C451.095 192.146 450.822 192.449 450.629 192.824C450.44 193.195 450.345 193.598 450.345 194.034V195.028C450.345 195.612 450.447 196.108 450.652 196.517C450.86 196.926 451.15 197.239 451.521 197.455C451.892 197.667 452.326 197.773 452.822 197.773C453.144 197.773 453.438 197.727 453.703 197.636C453.968 197.542 454.197 197.402 454.391 197.216C454.584 197.03 454.731 196.801 454.834 196.528L456.442 196.818C456.313 197.292 456.082 197.706 455.748 198.062C455.419 198.415 455.004 198.689 454.504 198.886C454.008 199.08 453.442 199.176 452.805 199.176ZM463.084 199H461.221L465.408 187.364H467.437L471.624 199H469.76L466.471 189.477H466.38L463.084 199ZM463.397 194.443H469.442V195.92H463.397V194.443ZM475.174 183.614V202.75H473.651V183.614H475.174ZM478.085 199V187.364H485.34V188.875H479.84V192.057H482.443C483.306 192.057 484.039 192.197 484.642 192.477C485.248 192.758 485.71 193.153 486.028 193.665C486.35 194.176 486.511 194.778 486.511 195.472C486.511 196.165 486.35 196.777 486.028 197.307C485.71 197.837 485.248 198.252 484.642 198.551C484.039 198.85 483.306 199 482.443 199H478.085ZM479.84 197.523H482.443C482.943 197.523 483.365 197.424 483.71 197.227C484.058 197.03 484.322 196.775 484.5 196.46C484.681 196.146 484.772 195.809 484.772 195.449C484.772 194.926 484.572 194.477 484.17 194.102C483.768 193.723 483.193 193.534 482.443 193.534H479.84V197.523Z" fill="black"/>
    <path d="M607.818 199.176C606.973 199.176 606.246 198.985 605.636 198.602C605.03 198.216 604.564 197.684 604.239 197.006C603.913 196.328 603.75 195.551 603.75 194.676C603.75 193.79 603.917 193.008 604.25 192.33C604.583 191.648 605.053 191.116 605.659 190.733C606.265 190.35 606.979 190.159 607.801 190.159C608.464 190.159 609.055 190.282 609.574 190.528C610.093 190.771 610.511 191.112 610.83 191.551C611.152 191.991 611.343 192.504 611.403 193.091H609.75C609.659 192.682 609.451 192.33 609.125 192.034C608.803 191.739 608.371 191.591 607.83 191.591C607.356 191.591 606.941 191.716 606.585 191.966C606.233 192.212 605.958 192.564 605.761 193.023C605.564 193.477 605.466 194.015 605.466 194.636C605.466 195.273 605.563 195.822 605.756 196.284C605.949 196.746 606.222 197.104 606.574 197.358C606.93 197.612 607.348 197.739 607.83 197.739C608.152 197.739 608.443 197.68 608.705 197.562C608.97 197.441 609.191 197.269 609.369 197.045C609.551 196.822 609.678 196.553 609.75 196.239H611.403C611.343 196.803 611.159 197.307 610.852 197.75C610.545 198.193 610.134 198.542 609.619 198.795C609.108 199.049 608.508 199.176 607.818 199.176ZM614.533 196.619L618.38 190.273H620.209V199H618.544V192.648L614.715 199H612.868V190.273H614.533V196.619ZM627.039 196.898L629.857 190.273H631.323L627.67 199H626.408L622.829 190.273H624.278L627.039 196.898ZM623.806 190.273V199H622.141V190.273H623.806ZM630.317 199V190.273H631.971V199H630.317ZM638.781 196.898L641.599 190.273H643.065L639.411 199H638.15L634.57 190.273H636.019L638.781 196.898ZM635.548 190.273V199H633.883V190.273H635.548ZM642.059 199V190.273H643.712V199H642.059ZM649.386 199.176C648.526 199.176 647.786 198.992 647.164 198.625C646.547 198.254 646.07 197.733 645.733 197.062C645.399 196.388 645.233 195.598 645.233 194.693C645.233 193.799 645.399 193.011 645.733 192.33C646.07 191.648 646.539 191.116 647.142 190.733C647.748 190.35 648.456 190.159 649.267 190.159C649.759 190.159 650.236 190.241 650.699 190.403C651.161 190.566 651.575 190.822 651.943 191.17C652.31 191.519 652.6 191.972 652.812 192.528C653.024 193.081 653.13 193.754 653.13 194.545V195.148H646.193V193.875H651.466C651.466 193.428 651.375 193.032 651.193 192.688C651.011 192.339 650.755 192.064 650.426 191.864C650.1 191.663 649.717 191.562 649.278 191.562C648.801 191.562 648.384 191.68 648.028 191.915C647.676 192.146 647.403 192.449 647.21 192.824C647.021 193.195 646.926 193.598 646.926 194.034V195.028C646.926 195.612 647.028 196.108 647.233 196.517C647.441 196.926 647.731 197.239 648.102 197.455C648.473 197.667 648.907 197.773 649.403 197.773C649.725 197.773 650.019 197.727 650.284 197.636C650.549 197.542 650.778 197.402 650.971 197.216C651.164 197.03 651.312 196.801 651.414 196.528L653.022 196.818C652.894 197.292 652.663 197.706 652.329 198.062C652 198.415 651.585 198.689 651.085 198.886C650.589 199.08 650.022 199.176 649.386 199.176ZM653.893 191.739V190.273H661.257V191.739H658.41V199H656.751V191.739H653.893ZM662.702 202.273V190.273H664.361V191.688H664.503C664.602 191.506 664.744 191.295 664.929 191.057C665.115 190.818 665.372 190.61 665.702 190.432C666.031 190.25 666.467 190.159 667.009 190.159C667.713 190.159 668.342 190.337 668.895 190.693C669.448 191.049 669.882 191.562 670.196 192.233C670.514 192.903 670.674 193.71 670.674 194.653C670.674 195.597 670.516 196.405 670.202 197.08C669.888 197.75 669.456 198.267 668.906 198.631C668.357 198.991 667.73 199.17 667.026 199.17C666.495 199.17 666.062 199.081 665.725 198.903C665.391 198.725 665.13 198.517 664.941 198.278C664.751 198.04 664.605 197.828 664.503 197.642H664.401V202.273H662.702ZM664.367 194.636C664.367 195.25 664.456 195.788 664.634 196.25C664.812 196.712 665.069 197.074 665.406 197.335C665.744 197.593 666.156 197.722 666.645 197.722C667.153 197.722 667.577 197.587 667.918 197.318C668.259 197.045 668.516 196.676 668.691 196.21C668.869 195.744 668.958 195.22 668.958 194.636C668.958 194.061 668.87 193.544 668.696 193.085C668.526 192.627 668.268 192.265 667.924 192C667.583 191.735 667.156 191.602 666.645 191.602C666.153 191.602 665.736 191.729 665.395 191.983C665.058 192.237 664.802 192.591 664.628 193.045C664.454 193.5 664.367 194.03 664.367 194.636ZM673.89 196.619L677.736 190.273H679.566V199H677.901V192.648L674.072 199H672.225V190.273H673.89V196.619ZM688.504 190.273V199H686.845V190.273H688.504ZM687.782 194.324V195.79C687.521 195.896 687.244 195.991 686.952 196.074C686.661 196.153 686.354 196.216 686.032 196.261C685.71 196.307 685.375 196.33 685.026 196.33C683.947 196.33 683.089 196.066 682.452 195.54C681.816 195.009 681.498 194.199 681.498 193.108V190.256H683.151V193.108C683.151 193.521 683.227 193.856 683.379 194.114C683.53 194.371 683.746 194.561 684.026 194.682C684.307 194.803 684.64 194.864 685.026 194.864C685.538 194.864 686.009 194.816 686.441 194.722C686.877 194.623 687.324 194.491 687.782 194.324ZM696.326 193.903V195.375H691.599V193.903H696.326ZM692.076 190.273V199H690.412V190.273H692.076ZM697.514 190.273V199H695.855V190.273H697.514ZM701.974 199.193C701.421 199.193 700.921 199.091 700.474 198.886C700.027 198.678 699.673 198.377 699.412 197.983C699.154 197.589 699.025 197.106 699.025 196.534C699.025 196.042 699.12 195.636 699.31 195.318C699.499 195 699.755 194.748 700.077 194.562C700.399 194.377 700.758 194.237 701.156 194.142C701.554 194.047 701.959 193.975 702.372 193.926C702.895 193.866 703.319 193.816 703.645 193.778C703.971 193.737 704.207 193.67 704.355 193.58C704.503 193.489 704.577 193.341 704.577 193.136V193.097C704.577 192.6 704.436 192.216 704.156 191.943C703.88 191.67 703.467 191.534 702.918 191.534C702.346 191.534 701.895 191.661 701.565 191.915C701.239 192.165 701.014 192.443 700.889 192.75L699.293 192.386C699.482 191.856 699.758 191.428 700.122 191.102C700.489 190.773 700.912 190.534 701.389 190.386C701.866 190.235 702.368 190.159 702.895 190.159C703.243 190.159 703.613 190.201 704.003 190.284C704.397 190.364 704.764 190.511 705.105 190.727C705.45 190.943 705.732 191.252 705.952 191.653C706.171 192.051 706.281 192.568 706.281 193.205V199H704.622V197.807H704.554C704.444 198.027 704.279 198.242 704.06 198.455C703.84 198.667 703.558 198.843 703.213 198.983C702.868 199.123 702.455 199.193 701.974 199.193ZM702.344 197.83C702.813 197.83 703.215 197.737 703.548 197.551C703.885 197.366 704.141 197.123 704.315 196.824C704.493 196.521 704.582 196.197 704.582 195.852V194.727C704.522 194.788 704.404 194.845 704.23 194.898C704.06 194.947 703.864 194.991 703.645 195.028C703.425 195.062 703.211 195.095 703.003 195.125C702.794 195.152 702.62 195.174 702.48 195.193C702.15 195.235 701.849 195.305 701.577 195.403C701.308 195.502 701.092 195.644 700.929 195.83C700.77 196.011 700.69 196.254 700.69 196.557C700.69 196.977 700.846 197.295 701.156 197.511C701.467 197.723 701.863 197.83 702.344 197.83ZM713.396 199V191.722H711.306C710.809 191.722 710.423 191.837 710.146 192.068C709.87 192.299 709.732 192.602 709.732 192.977C709.732 193.348 709.859 193.648 710.112 193.875C710.37 194.098 710.73 194.21 711.192 194.21H713.891V195.585H711.192C710.548 195.585 709.991 195.479 709.521 195.267C709.056 195.051 708.696 194.746 708.442 194.352C708.192 193.958 708.067 193.492 708.067 192.955C708.067 192.405 708.196 191.932 708.453 191.534C708.715 191.133 709.088 190.822 709.573 190.602C710.061 190.383 710.639 190.273 711.306 190.273H714.993V199H713.396ZM707.669 199L710.129 194.591H711.868L709.408 199H707.669ZM720.785 202.273V190.273H722.444V191.688H722.586C722.684 191.506 722.826 191.295 723.012 191.057C723.198 190.818 723.455 190.61 723.785 190.432C724.114 190.25 724.55 190.159 725.092 190.159C725.796 190.159 726.425 190.337 726.978 190.693C727.531 191.049 727.965 191.562 728.279 192.233C728.597 192.903 728.756 193.71 728.756 194.653C728.756 195.597 728.599 196.405 728.285 197.08C727.97 197.75 727.539 198.267 726.989 198.631C726.44 198.991 725.813 199.17 725.109 199.17C724.578 199.17 724.145 199.081 723.808 198.903C723.474 198.725 723.213 198.517 723.023 198.278C722.834 198.04 722.688 197.828 722.586 197.642H722.484V202.273H720.785ZM722.45 194.636C722.45 195.25 722.539 195.788 722.717 196.25C722.895 196.712 723.152 197.074 723.489 197.335C723.826 197.593 724.239 197.722 724.728 197.722C725.236 197.722 725.66 197.587 726.001 197.318C726.342 197.045 726.599 196.676 726.773 196.21C726.951 195.744 727.04 195.22 727.04 194.636C727.04 194.061 726.953 193.544 726.779 193.085C726.609 192.627 726.351 192.265 726.006 192C725.665 191.735 725.239 191.602 724.728 191.602C724.236 191.602 723.819 191.729 723.478 191.983C723.141 192.237 722.885 192.591 722.711 193.045C722.537 193.5 722.45 194.03 722.45 194.636ZM732.848 199.193C732.295 199.193 731.795 199.091 731.348 198.886C730.901 198.678 730.546 198.377 730.285 197.983C730.027 197.589 729.899 197.106 729.899 196.534C729.899 196.042 729.993 195.636 730.183 195.318C730.372 195 730.628 194.748 730.95 194.562C731.272 194.377 731.632 194.237 732.029 194.142C732.427 194.047 732.832 193.975 733.245 193.926C733.768 193.866 734.192 193.816 734.518 193.778C734.844 193.737 735.081 193.67 735.228 193.58C735.376 193.489 735.45 193.341 735.45 193.136V193.097C735.45 192.6 735.31 192.216 735.029 191.943C734.753 191.67 734.34 191.534 733.791 191.534C733.219 191.534 732.768 191.661 732.438 191.915C732.113 192.165 731.887 192.443 731.762 192.75L730.166 192.386C730.355 191.856 730.632 191.428 730.995 191.102C731.363 190.773 731.785 190.534 732.262 190.386C732.74 190.235 733.242 190.159 733.768 190.159C734.117 190.159 734.486 190.201 734.876 190.284C735.27 190.364 735.637 190.511 735.978 190.727C736.323 190.943 736.605 191.252 736.825 191.653C737.045 192.051 737.154 192.568 737.154 193.205V199H735.495V197.807H735.427C735.317 198.027 735.152 198.242 734.933 198.455C734.713 198.667 734.431 198.843 734.086 198.983C733.742 199.123 733.329 199.193 732.848 199.193ZM733.217 197.83C733.687 197.83 734.088 197.737 734.421 197.551C734.759 197.366 735.014 197.123 735.188 196.824C735.367 196.521 735.456 196.197 735.456 195.852V194.727C735.395 194.788 735.277 194.845 735.103 194.898C734.933 194.947 734.738 194.991 734.518 195.028C734.298 195.062 734.084 195.095 733.876 195.125C733.668 195.152 733.493 195.174 733.353 195.193C733.024 195.235 732.723 195.305 732.45 195.403C732.181 195.502 731.965 195.644 731.802 195.83C731.643 196.011 731.563 196.254 731.563 196.557C731.563 196.977 731.719 197.295 732.029 197.511C732.34 197.723 732.736 197.83 733.217 197.83ZM738.548 196.693H740.287C740.309 197.049 740.47 197.324 740.77 197.517C741.073 197.71 741.465 197.807 741.946 197.807C742.434 197.807 742.851 197.703 743.196 197.494C743.541 197.282 743.713 196.955 743.713 196.511C743.713 196.246 743.647 196.015 743.514 195.818C743.385 195.617 743.202 195.462 742.963 195.352C742.728 195.242 742.45 195.188 742.128 195.188H740.707V193.852H742.128C742.609 193.852 742.969 193.742 743.207 193.523C743.446 193.303 743.565 193.028 743.565 192.699C743.565 192.343 743.436 192.057 743.179 191.841C742.925 191.621 742.571 191.511 742.116 191.511C741.654 191.511 741.27 191.616 740.963 191.824C740.656 192.028 740.495 192.294 740.48 192.619H738.764C738.775 192.131 738.923 191.703 739.207 191.335C739.495 190.964 739.881 190.676 740.366 190.472C740.855 190.263 741.41 190.159 742.031 190.159C742.679 190.159 743.239 190.263 743.713 190.472C744.186 190.68 744.552 190.968 744.809 191.335C745.071 191.703 745.202 192.125 745.202 192.602C745.202 193.083 745.058 193.477 744.77 193.784C744.486 194.087 744.114 194.305 743.656 194.438V194.528C743.993 194.551 744.292 194.653 744.554 194.835C744.815 195.017 745.02 195.258 745.167 195.557C745.315 195.856 745.389 196.195 745.389 196.574C745.389 197.108 745.241 197.57 744.946 197.96C744.654 198.35 744.249 198.652 743.73 198.864C743.215 199.072 742.626 199.176 741.963 199.176C741.319 199.176 740.741 199.076 740.23 198.875C739.722 198.67 739.319 198.383 739.02 198.011C738.724 197.64 738.567 197.201 738.548 196.693ZM752.706 193.903V195.375H747.979V193.903H752.706ZM748.456 190.273V199H746.791V190.273H748.456ZM753.894 190.273V199H752.234V190.273H753.894ZM757.479 196.619L761.326 190.273H763.155V199H761.49V192.648L757.661 199H755.814V190.273H757.479V196.619ZM772.207 190.273V197.608H773.485V201.812H771.809V199H765.087V190.273H766.752V197.534H770.548V190.273H772.207ZM777.556 199.193C777.003 199.193 776.503 199.091 776.056 198.886C775.609 198.678 775.255 198.377 774.994 197.983C774.736 197.589 774.607 197.106 774.607 196.534C774.607 196.042 774.702 195.636 774.892 195.318C775.081 195 775.337 194.748 775.659 194.562C775.981 194.377 776.34 194.237 776.738 194.142C777.136 194.047 777.541 193.975 777.954 193.926C778.477 193.866 778.901 193.816 779.227 193.778C779.553 193.737 779.789 193.67 779.937 193.58C780.085 193.489 780.159 193.341 780.159 193.136V193.097C780.159 192.6 780.018 192.216 779.738 191.943C779.462 191.67 779.049 191.534 778.499 191.534C777.928 191.534 777.477 191.661 777.147 191.915C776.821 192.165 776.596 192.443 776.471 192.75L774.874 192.386C775.064 191.856 775.34 191.428 775.704 191.102C776.071 190.773 776.494 190.534 776.971 190.386C777.448 190.235 777.95 190.159 778.477 190.159C778.825 190.159 779.195 190.201 779.585 190.284C779.979 190.364 780.346 190.511 780.687 190.727C781.032 190.943 781.314 191.252 781.534 191.653C781.753 192.051 781.863 192.568 781.863 193.205V199H780.204V197.807H780.136C780.026 198.027 779.861 198.242 779.642 198.455C779.422 198.667 779.14 198.843 778.795 198.983C778.45 199.123 778.037 199.193 777.556 199.193ZM777.926 197.83C778.395 197.83 778.797 197.737 779.13 197.551C779.467 197.366 779.723 197.123 779.897 196.824C780.075 196.521 780.164 196.197 780.164 195.852V194.727C780.104 194.788 779.986 194.845 779.812 194.898C779.642 194.947 779.446 194.991 779.227 195.028C779.007 195.062 778.793 195.095 778.585 195.125C778.376 195.152 778.202 195.174 778.062 195.193C777.732 195.235 777.431 195.305 777.159 195.403C776.89 195.502 776.674 195.644 776.511 195.83C776.352 196.011 776.272 196.254 776.272 196.557C776.272 196.977 776.428 197.295 776.738 197.511C777.049 197.723 777.445 197.83 777.926 197.83ZM788.776 199H786.912L791.099 187.364H793.128L797.315 199H795.452L792.162 189.477H792.071L788.776 199ZM789.088 194.443H795.134V195.92H789.088V194.443ZM799.603 188.449H800.012V189.034H799.603V188.449ZM796.608 192.636L798.966 187.693H800.648L803.006 192.636H801.5L799.745 188.807H799.87L798.131 192.636H796.608ZM804.542 199V187.364H811.797V188.875H806.297V192.057H808.9C809.763 192.057 810.496 192.197 811.099 192.477C811.705 192.758 812.167 193.153 812.485 193.665C812.807 194.176 812.968 194.778 812.968 195.472C812.968 196.165 812.807 196.777 812.485 197.307C812.167 197.837 811.705 198.252 811.099 198.551C810.496 198.85 809.763 199 808.9 199H804.542ZM806.297 197.523H808.9C809.4 197.523 809.822 197.424 810.167 197.227C810.515 197.03 810.779 196.775 810.957 196.46C811.138 196.146 811.229 195.809 811.229 195.449C811.229 194.926 811.029 194.477 810.627 194.102C810.226 193.723 809.65 193.534 808.9 193.534H806.297V197.523Z" fill="black"/>
    <defs>
        <clipPath id="clip0_2_134">
            <rect width="128" height="176" fill="white" transform="translate(421 5)"/>
        </clipPath>
    </defs>
</svg>
