<svg width="1488" height="624" viewBox="0 0 1488 624" fill="none" xmlns="http://www.w3.org/2000/svg">
    <rect width="1488" height="624" rx="12" fill="white"/>
    <rect x="16" y="144" width="256" height="400" rx="6" fill="white" stroke="#757575" stroke-width="4" stroke-linecap="round"/>
    <rect y="112" width="288" height="48" rx="3" fill="white"/>
    <rect x="400" y="144" width="256" height="400" rx="6" fill="white" stroke="#757575" stroke-width="4" stroke-linecap="round"/>
    <rect x="384" y="112" width="288" height="48" rx="3" fill="white"/>
    <rect x="416" y="208" width="224" height="96" rx="6" fill="#FFC943"/>
    <path d="M532.382 241.909V271H527.979V246.312H527.808L520.848 250.858V246.653L528.107 241.909H532.382Z" fill="black" fill-opacity="0.8"/>
    <path d="M350.891 46.3355C349.972 46.9479 349.723 48.1895 350.336 49.1088C350.948 50.0281 352.19 50.2769 353.109 49.6645L352 48L350.891 46.3355ZM526.905 202.836C527.636 203.664 528.9 203.743 529.728 203.012L543.223 191.1C544.051 190.369 544.13 189.106 543.399 188.277C542.668 187.449 541.404 187.371 540.576 188.101L528.58 198.69L517.992 186.694C517.261 185.866 515.997 185.787 515.169 186.518C514.341 187.249 514.262 188.513 514.993 189.341L526.905 202.836ZM352 48L353.109 49.6645C353.383 49.482 354.308 49.128 356.167 48.7864C357.921 48.4639 360.255 48.1941 363.097 48.0223C368.776 47.6791 376.366 47.7341 385.186 48.4931C402.832 50.0115 425.272 54.3367 447.054 63.8249C468.829 73.3105 489.876 87.9243 504.868 109.989C519.845 132.031 528.884 161.662 526.408 201.388L528.404 201.513L530.4 201.637C532.924 161.141 523.713 130.606 508.176 107.741C492.655 84.8969 470.926 69.8609 448.651 60.1577C426.382 50.4569 403.497 46.054 385.529 44.5078C376.542 43.7345 368.755 43.6731 362.856 44.0296C359.909 44.2077 357.405 44.4917 355.444 44.8523C353.586 45.1937 351.918 45.6518 350.891 46.3355L352 48Z" fill="#757575"/>
    <rect x="784" y="144" width="256" height="400" rx="6" fill="white" stroke="#757575" stroke-width="4" stroke-linecap="round"/>
    <rect x="768" y="112" width="288" height="48" rx="3" fill="white"/>
    <rect x="800" y="208" width="224" height="128" rx="6" fill="#FFC943" fill-opacity="0.01"/>
    <path d="M735.545 46.0524C734.469 46.3037 733.801 47.3793 734.052 48.4549C734.304 49.5305 735.379 50.1988 736.455 49.9476L736 48L735.545 46.0524ZM910.939 202.829C911.665 203.662 912.928 203.749 913.761 203.024L927.335 191.202C928.168 190.477 928.255 189.214 927.53 188.381C926.805 187.548 925.541 187.461 924.708 188.186L912.642 198.694L902.135 186.628C901.409 185.795 900.146 185.708 899.313 186.433C898.48 187.158 898.393 188.422 899.118 189.255L910.939 202.829ZM736 48L736.455 49.9476C737.593 49.6819 741.342 49.3853 747.228 49.4395C753.024 49.4929 760.707 49.8834 769.591 50.9106C787.37 52.9663 809.88 57.563 831.676 67.0564C853.468 76.5485 874.467 90.9 889.358 112.427C904.23 133.927 913.119 162.741 910.452 201.378L912.448 201.515L914.443 201.653C917.165 162.22 908.095 132.483 892.647 110.151C877.219 87.8466 855.536 73.0864 833.273 63.3892C811.012 53.6933 788.092 49.0232 770.05 46.9371C761.024 45.8935 753.2 45.4944 747.265 45.4397C741.419 45.3858 737.213 45.6628 735.545 46.0524L736 48Z" fill="#757575"/>
    <rect x="800" y="432" width="224" height="92" rx="6" fill="#FFC943"/>
    <path d="M916.382 463.909V493H911.979V468.312H911.808L904.848 472.858V468.653L912.107 463.909H916.382Z" fill="black" fill-opacity="0.8"/>
    <rect x="800" y="320" width="224" height="96" rx="6" fill="#FFC943"/>
    <path d="M902.533 383V379.818L912.376 369.619C913.428 368.511 914.294 367.541 914.976 366.707C915.667 365.865 916.183 365.064 916.524 364.307C916.865 363.549 917.036 362.744 917.036 361.892C917.036 360.926 916.808 360.093 916.354 359.392C915.899 358.682 915.279 358.137 914.493 357.759C913.707 357.37 912.821 357.176 911.837 357.176C910.795 357.176 909.886 357.389 909.109 357.815C908.333 358.241 907.736 358.843 907.32 359.619C906.903 360.396 906.695 361.305 906.695 362.347H902.504C902.504 360.576 902.911 359.027 903.726 357.702C904.54 356.376 905.658 355.348 907.078 354.619C908.499 353.881 910.113 353.511 911.922 353.511C913.75 353.511 915.359 353.876 916.751 354.605C918.153 355.325 919.247 356.31 920.033 357.56C920.819 358.8 921.212 360.202 921.212 361.764C921.212 362.844 921.008 363.9 920.601 364.932C920.203 365.964 919.507 367.115 918.513 368.384C917.518 369.643 916.136 371.172 914.365 372.972L908.584 379.023V379.236H921.68V383H902.533Z" fill="black" fill-opacity="0.8"/>
    <rect x="1168" y="144" width="256" height="400" rx="6" fill="white" stroke="#757575" stroke-width="4" stroke-linecap="round"/>
    <rect x="1152" y="112" width="288" height="48" rx="3" fill="white"/>
    <rect x="1184" y="176" width="224" height="96" rx="6" fill="#FFC943"/>
    <path d="M1286.53 239V235.818L1296.38 225.619C1297.43 224.511 1298.29 223.541 1298.98 222.707C1299.67 221.865 1300.18 221.064 1300.52 220.307C1300.87 219.549 1301.04 218.744 1301.04 217.892C1301.04 216.926 1300.81 216.093 1300.35 215.392C1299.9 214.682 1299.28 214.137 1298.49 213.759C1297.71 213.37 1296.82 213.176 1295.84 213.176C1294.79 213.176 1293.89 213.389 1293.11 213.815C1292.33 214.241 1291.74 214.843 1291.32 215.619C1290.9 216.396 1290.69 217.305 1290.69 218.347H1286.5C1286.5 216.576 1286.91 215.027 1287.73 213.702C1288.54 212.376 1289.66 211.348 1291.08 210.619C1292.5 209.881 1294.11 209.511 1295.92 209.511C1297.75 209.511 1299.36 209.876 1300.75 210.605C1302.15 211.325 1303.25 212.31 1304.03 213.56C1304.82 214.8 1305.21 216.202 1305.21 217.764C1305.21 218.844 1305.01 219.9 1304.6 220.932C1304.2 221.964 1303.51 223.115 1302.51 224.384C1301.52 225.643 1300.14 227.172 1298.37 228.972L1292.58 235.023V235.236H1305.68V239H1286.53Z" fill="black" fill-opacity="0.8"/>
    <rect x="1184" y="432" width="224" height="92" rx="6" fill="#FFC943"/>
    <path d="M1300.38 463.909V493H1295.98V468.312H1295.81L1288.85 472.858V468.653L1296.11 463.909H1300.38Z" fill="black" fill-opacity="0.8"/>
    <rect x="16" y="564" width="256" height="48" rx="3" fill="#FFC943" fill-opacity="0.01"/>
    <path d="M53.5367 573.909V603H49.1617V577.659H35.4685V603H31.0935V573.909H53.5367ZM61.7121 611.182C61.0777 611.182 60.5 611.13 59.9792 611.026C59.4583 610.931 59.0701 610.827 58.8144 610.713L59.8371 607.233C60.6136 607.441 61.3049 607.531 61.911 607.503C62.517 607.474 63.0521 607.247 63.5161 606.821C63.9896 606.395 64.4062 605.699 64.7661 604.733L65.2917 603.284L57.3087 581.182H61.8542L67.3797 598.114H67.607L73.1326 581.182H77.6922L68.7008 605.912C68.2841 607.048 67.7538 608.009 67.1098 608.795C66.4659 609.591 65.6989 610.188 64.8087 610.585C63.9186 610.983 62.8864 611.182 61.7121 611.182ZM89.2519 603.44C87.1401 603.44 85.3219 602.962 83.7973 602.006C82.2822 601.04 81.1174 599.709 80.303 598.014C79.4886 596.319 79.0814 594.378 79.0814 592.19C79.0814 589.974 79.4981 588.019 80.3314 586.324C81.1647 584.619 82.339 583.289 83.8541 582.332C85.3693 581.376 87.1543 580.898 89.2093 580.898C90.8664 580.898 92.3437 581.205 93.6411 581.821C94.9384 582.427 95.9848 583.279 96.7803 584.378C97.5852 585.476 98.0634 586.759 98.2149 588.227H94.0814C93.8541 587.205 93.3333 586.324 92.5189 585.585C91.714 584.847 90.6344 584.477 89.2803 584.477C88.0966 584.477 87.0596 584.79 86.1695 585.415C85.2888 586.03 84.6022 586.911 84.1098 588.057C83.6174 589.193 83.3712 590.538 83.3712 592.091C83.3712 593.682 83.6127 595.055 84.0956 596.21C84.5786 597.366 85.2604 598.26 86.1411 598.895C87.0312 599.529 88.0776 599.847 89.2803 599.847C90.0852 599.847 90.8144 599.7 91.4678 599.406C92.1307 599.103 92.6846 598.672 93.1297 598.114C93.5843 597.555 93.9015 596.883 94.0814 596.097H98.2149C98.0634 597.508 97.6041 598.767 96.8371 599.875C96.07 600.983 95.0426 601.854 93.7547 602.489C92.4763 603.123 90.9753 603.44 89.2519 603.44ZM100.226 584.847V581.182H118.635V584.847H111.518V603H107.37V584.847H100.226ZM130.422 603.44C128.376 603.44 126.591 602.972 125.066 602.034C123.542 601.097 122.358 599.785 121.515 598.099C120.673 596.414 120.251 594.444 120.251 592.19C120.251 589.927 120.673 587.948 121.515 586.253C122.358 584.558 123.542 583.241 125.066 582.304C126.591 581.366 128.376 580.898 130.422 580.898C132.467 580.898 134.252 581.366 135.777 582.304C137.301 583.241 138.485 584.558 139.328 586.253C140.171 587.948 140.592 589.927 140.592 592.19C140.592 594.444 140.171 596.414 139.328 598.099C138.485 599.785 137.301 601.097 135.777 602.034C134.252 602.972 132.467 603.44 130.422 603.44ZM130.436 599.875C131.762 599.875 132.86 599.525 133.731 598.824C134.602 598.123 135.246 597.19 135.663 596.026C136.089 594.861 136.302 593.578 136.302 592.176C136.302 590.784 136.089 589.506 135.663 588.341C135.246 587.167 134.602 586.224 133.731 585.514C132.86 584.804 131.762 584.449 130.436 584.449C129.101 584.449 127.993 584.804 127.112 585.514C126.241 586.224 125.592 587.167 125.166 588.341C124.749 589.506 124.541 590.784 124.541 592.176C124.541 593.578 124.749 594.861 125.166 596.026C125.592 597.19 126.241 598.123 127.112 598.824C127.993 599.525 129.101 599.875 130.436 599.875ZM148.615 597.048L158.231 581.182H162.805V603H158.643V587.119L149.069 603H144.453V581.182H148.615V597.048ZM156.413 573.795H159.907C159.907 575.396 159.339 576.698 158.203 577.702C157.076 578.696 155.551 579.193 153.629 579.193C151.716 579.193 150.196 578.696 149.069 577.702C147.942 576.698 147.379 575.396 147.379 573.795H150.859C150.859 574.506 151.067 575.135 151.484 575.685C151.901 576.224 152.616 576.494 153.629 576.494C154.623 576.494 155.333 576.224 155.76 575.685C156.195 575.145 156.413 574.515 156.413 573.795ZM186.532 603.44C184.42 603.44 182.602 602.962 181.077 602.006C179.562 601.04 178.397 599.709 177.583 598.014C176.768 596.319 176.361 594.378 176.361 592.19C176.361 589.974 176.778 588.019 177.611 586.324C178.444 584.619 179.619 583.289 181.134 582.332C182.649 581.376 184.434 580.898 186.489 580.898C188.146 580.898 189.623 581.205 190.921 581.821C192.218 582.427 193.264 583.279 194.06 584.378C194.865 585.476 195.343 586.759 195.495 588.227H191.361C191.134 587.205 190.613 586.324 189.799 585.585C188.994 584.847 187.914 584.477 186.56 584.477C185.376 584.477 184.339 584.79 183.449 585.415C182.568 586.03 181.882 586.911 181.389 588.057C180.897 589.193 180.651 590.538 180.651 592.091C180.651 593.682 180.892 595.055 181.375 596.21C181.858 597.366 182.54 598.26 183.421 598.895C184.311 599.529 185.357 599.847 186.56 599.847C187.365 599.847 188.094 599.7 188.747 599.406C189.41 599.103 189.964 598.672 190.409 598.114C190.864 597.555 191.181 596.883 191.361 596.097H195.495C195.343 597.508 194.884 598.767 194.117 599.875C193.35 600.983 192.322 601.854 191.034 602.489C189.756 603.123 188.255 603.44 186.532 603.44ZM197.505 584.847V581.182H215.914V584.847H208.798V603H204.65V584.847H197.505ZM227.914 603.44C225.765 603.44 223.913 602.981 222.36 602.062C220.817 601.134 219.624 599.832 218.781 598.156C217.947 596.471 217.531 594.496 217.531 592.233C217.531 589.998 217.947 588.028 218.781 586.324C219.624 584.619 220.798 583.289 222.304 582.332C223.819 581.376 225.59 580.898 227.616 580.898C228.847 580.898 230.04 581.101 231.196 581.509C232.351 581.916 233.388 582.555 234.306 583.426C235.225 584.297 235.949 585.429 236.48 586.821C237.01 588.204 237.275 589.884 237.275 591.864V593.369H219.931V590.188H233.113C233.113 589.07 232.886 588.08 232.431 587.219C231.977 586.348 231.338 585.661 230.514 585.159C229.699 584.657 228.743 584.406 227.644 584.406C226.451 584.406 225.41 584.7 224.519 585.287C223.639 585.865 222.957 586.622 222.474 587.56C222 588.488 221.764 589.496 221.764 590.585V593.071C221.764 594.529 222.019 595.77 222.531 596.793C223.052 597.815 223.776 598.597 224.704 599.136C225.632 599.667 226.716 599.932 227.957 599.932C228.762 599.932 229.496 599.818 230.159 599.591C230.822 599.354 231.394 599.004 231.877 598.54C232.36 598.076 232.73 597.503 232.985 596.821L237.005 597.545C236.683 598.729 236.106 599.766 235.272 600.656C234.448 601.537 233.411 602.223 232.161 602.716C230.921 603.199 229.505 603.44 227.914 603.44ZM241.107 603V581.182H245.355V590.33H247.4L254.602 581.182H259.857L251.406 591.793L259.957 603H254.687L248.11 594.278H245.355V603H241.107Z" fill="black" fill-opacity="0.8"/>
    <rect x="400" y="564" width="256" height="48" rx="3" fill="#FFC943" fill-opacity="0.01"/>
    <path d="M485.183 611.182V581.182H489.331V584.719H489.686C489.932 584.264 490.287 583.739 490.751 583.142C491.215 582.545 491.859 582.025 492.683 581.58C493.507 581.125 494.596 580.898 495.95 580.898C497.711 580.898 499.283 581.343 500.666 582.233C502.048 583.123 503.133 584.406 503.919 586.082C504.714 587.759 505.112 589.776 505.112 592.134C505.112 594.491 504.719 596.513 503.933 598.199C503.147 599.875 502.067 601.168 500.694 602.077C499.321 602.976 497.754 603.426 495.993 603.426C494.667 603.426 493.583 603.204 492.74 602.759C491.906 602.313 491.253 601.793 490.78 601.196C490.306 600.599 489.941 600.069 489.686 599.605H489.43V611.182H485.183ZM489.345 592.091C489.345 593.625 489.567 594.97 490.012 596.125C490.458 597.28 491.101 598.185 491.944 598.838C492.787 599.482 493.819 599.804 495.041 599.804C496.31 599.804 497.37 599.468 498.223 598.795C499.075 598.114 499.719 597.19 500.155 596.026C500.6 594.861 500.822 593.549 500.822 592.091C500.822 590.652 500.604 589.359 500.169 588.213C499.743 587.067 499.099 586.163 498.237 585.5C497.385 584.837 496.319 584.506 495.041 584.506C493.81 584.506 492.768 584.823 491.916 585.457C491.073 586.092 490.434 586.977 489.998 588.114C489.563 589.25 489.345 590.576 489.345 592.091ZM522.811 593.952V581.182H527.073V603H522.897V599.222H522.669C522.168 600.386 521.363 601.357 520.255 602.134C519.156 602.901 517.788 603.284 516.15 603.284C514.748 603.284 513.507 602.976 512.428 602.361C511.358 601.736 510.515 600.812 509.9 599.591C509.293 598.369 508.99 596.859 508.99 595.06V581.182H513.238V594.548C513.238 596.035 513.65 597.219 514.473 598.099C515.297 598.98 516.367 599.42 517.684 599.42C518.479 599.42 519.27 599.222 520.056 598.824C520.851 598.426 521.509 597.825 522.03 597.02C522.561 596.215 522.821 595.192 522.811 593.952ZM548.249 586.509L544.399 587.19C544.239 586.698 543.983 586.229 543.632 585.784C543.292 585.339 542.828 584.974 542.24 584.69C541.653 584.406 540.919 584.264 540.039 584.264C538.836 584.264 537.832 584.534 537.027 585.074C536.222 585.604 535.82 586.291 535.82 587.134C535.82 587.863 536.09 588.45 536.63 588.895C537.169 589.34 538.041 589.705 539.243 589.989L542.709 590.784C544.717 591.248 546.213 591.963 547.198 592.929C548.183 593.895 548.675 595.15 548.675 596.693C548.675 598 548.296 599.165 547.539 600.188C546.791 601.201 545.744 601.996 544.399 602.574C543.064 603.152 541.516 603.44 539.755 603.44C537.311 603.44 535.318 602.92 533.774 601.878C532.231 600.827 531.284 599.335 530.934 597.403L535.039 596.778C535.294 597.848 535.82 598.658 536.615 599.207C537.411 599.747 538.448 600.017 539.726 600.017C541.118 600.017 542.231 599.728 543.064 599.151C543.898 598.563 544.314 597.848 544.314 597.006C544.314 596.324 544.059 595.751 543.547 595.287C543.045 594.823 542.274 594.473 541.232 594.236L537.539 593.426C535.503 592.962 533.997 592.223 533.022 591.21C532.056 590.197 531.573 588.914 531.573 587.361C531.573 586.073 531.933 584.946 532.652 583.98C533.372 583.014 534.366 582.261 535.635 581.722C536.904 581.172 538.358 580.898 539.996 580.898C542.354 580.898 544.21 581.409 545.564 582.432C546.918 583.445 547.813 584.804 548.249 586.509ZM556.712 590.045V603H552.465V573.909H556.655V584.733H556.925C557.436 583.559 558.218 582.626 559.269 581.935C560.32 581.243 561.693 580.898 563.388 580.898C564.884 580.898 566.191 581.205 567.309 581.821C568.435 582.437 569.307 583.355 569.922 584.577C570.547 585.789 570.86 587.304 570.86 589.122V603H566.613V589.634C566.613 588.033 566.201 586.793 565.377 585.912C564.553 585.022 563.407 584.577 561.939 584.577C560.935 584.577 560.036 584.79 559.24 585.216C558.454 585.642 557.834 586.267 557.38 587.091C556.934 587.905 556.712 588.89 556.712 590.045Z" fill="black" fill-opacity="0.8"/>
    <rect x="784" y="564" width="256" height="48" rx="3" fill="#FFC943" fill-opacity="0.01"/>
    <path d="M869.183 611.182V581.182H873.331V584.719H873.686C873.932 584.264 874.287 583.739 874.751 583.142C875.215 582.545 875.859 582.025 876.683 581.58C877.507 581.125 878.596 580.898 879.95 580.898C881.711 580.898 883.283 581.343 884.666 582.233C886.048 583.123 887.133 584.406 887.919 586.082C888.714 587.759 889.112 589.776 889.112 592.134C889.112 594.491 888.719 596.513 887.933 598.199C887.147 599.875 886.067 601.168 884.694 602.077C883.321 602.976 881.754 603.426 879.993 603.426C878.667 603.426 877.583 603.204 876.74 602.759C875.906 602.313 875.253 601.793 874.78 601.196C874.306 600.599 873.941 600.069 873.686 599.605H873.43V611.182H869.183ZM873.345 592.091C873.345 593.625 873.567 594.97 874.012 596.125C874.458 597.28 875.101 598.185 875.944 598.838C876.787 599.482 877.819 599.804 879.041 599.804C880.31 599.804 881.37 599.468 882.223 598.795C883.075 598.114 883.719 597.19 884.155 596.026C884.6 594.861 884.822 593.549 884.822 592.091C884.822 590.652 884.604 589.359 884.169 588.213C883.743 587.067 883.099 586.163 882.237 585.5C881.385 584.837 880.319 584.506 879.041 584.506C877.81 584.506 876.768 584.823 875.916 585.457C875.073 586.092 874.434 586.977 873.998 588.114C873.563 589.25 873.345 590.576 873.345 592.091ZM906.811 593.952V581.182H911.073V603H906.897V599.222H906.669C906.168 600.386 905.363 601.357 904.255 602.134C903.156 602.901 901.788 603.284 900.15 603.284C898.748 603.284 897.507 602.976 896.428 602.361C895.358 601.736 894.515 600.812 893.9 599.591C893.293 598.369 892.99 596.859 892.99 595.06V581.182H897.238V594.548C897.238 596.035 897.65 597.219 898.473 598.099C899.297 598.98 900.367 599.42 901.684 599.42C902.479 599.42 903.27 599.222 904.056 598.824C904.851 598.426 905.509 597.825 906.03 597.02C906.561 596.215 906.821 595.192 906.811 593.952ZM932.249 586.509L928.399 587.19C928.239 586.698 927.983 586.229 927.632 585.784C927.292 585.339 926.828 584.974 926.24 584.69C925.653 584.406 924.919 584.264 924.039 584.264C922.836 584.264 921.832 584.534 921.027 585.074C920.222 585.604 919.82 586.291 919.82 587.134C919.82 587.863 920.09 588.45 920.63 588.895C921.169 589.34 922.041 589.705 923.243 589.989L926.709 590.784C928.717 591.248 930.213 591.963 931.198 592.929C932.183 593.895 932.675 595.15 932.675 596.693C932.675 598 932.296 599.165 931.539 600.188C930.791 601.201 929.744 601.996 928.399 602.574C927.064 603.152 925.516 603.44 923.755 603.44C921.311 603.44 919.318 602.92 917.774 601.878C916.231 600.827 915.284 599.335 914.934 597.403L919.039 596.778C919.294 597.848 919.82 598.658 920.615 599.207C921.411 599.747 922.448 600.017 923.726 600.017C925.118 600.017 926.231 599.728 927.064 599.151C927.898 598.563 928.314 597.848 928.314 597.006C928.314 596.324 928.059 595.751 927.547 595.287C927.045 594.823 926.274 594.473 925.232 594.236L921.539 593.426C919.503 592.962 917.997 592.223 917.022 591.21C916.056 590.197 915.573 588.914 915.573 587.361C915.573 586.073 915.933 584.946 916.652 583.98C917.372 583.014 918.366 582.261 919.635 581.722C920.904 581.172 922.358 580.898 923.996 580.898C926.354 580.898 928.21 581.409 929.564 582.432C930.918 583.445 931.813 584.804 932.249 586.509ZM940.712 590.045V603H936.465V573.909H940.655V584.733H940.925C941.436 583.559 942.218 582.626 943.269 581.935C944.32 581.243 945.693 580.898 947.388 580.898C948.884 580.898 950.191 581.205 951.309 581.821C952.435 582.437 953.307 583.355 953.922 584.577C954.547 585.789 954.86 587.304 954.86 589.122V603H950.613V589.634C950.613 588.033 950.201 586.793 949.377 585.912C948.553 585.022 947.407 584.577 945.939 584.577C944.935 584.577 944.036 584.79 943.24 585.216C942.454 585.642 941.834 586.267 941.38 587.091C940.934 587.905 940.712 588.89 940.712 590.045Z" fill="black" fill-opacity="0.8"/>
    <rect x="1168" y="564" width="256" height="48" rx="3" fill="#FFC943" fill-opacity="0.01"/>
    <path d="M1265.98 611.182V581.182H1270.12V584.719H1270.48C1270.72 584.264 1271.08 583.739 1271.54 583.142C1272.01 582.545 1272.65 582.025 1273.48 581.58C1274.3 581.125 1275.39 580.898 1276.74 580.898C1278.5 580.898 1280.08 581.343 1281.46 582.233C1282.84 583.123 1283.93 584.406 1284.71 586.082C1285.51 587.759 1285.9 589.776 1285.9 592.134C1285.9 594.491 1285.51 596.513 1284.73 598.199C1283.94 599.875 1282.86 601.168 1281.49 602.077C1280.11 602.976 1278.55 603.426 1276.79 603.426C1275.46 603.426 1274.38 603.204 1273.53 602.759C1272.7 602.313 1272.05 601.793 1271.57 601.196C1271.1 600.599 1270.73 600.069 1270.48 599.605H1270.22V611.182H1265.98ZM1270.14 592.091C1270.14 593.625 1270.36 594.97 1270.81 596.125C1271.25 597.28 1271.89 598.185 1272.74 598.838C1273.58 599.482 1274.61 599.804 1275.83 599.804C1277.1 599.804 1278.16 599.468 1279.02 598.795C1279.87 598.114 1280.51 597.19 1280.95 596.026C1281.39 594.861 1281.62 593.549 1281.62 592.091C1281.62 590.652 1281.4 589.359 1280.96 588.213C1280.54 587.067 1279.89 586.163 1279.03 585.5C1278.18 584.837 1277.11 584.506 1275.83 584.506C1274.6 584.506 1273.56 584.823 1272.71 585.457C1271.87 586.092 1271.23 586.977 1270.79 588.114C1270.36 589.25 1270.14 590.576 1270.14 592.091ZM1303.6 593.952V581.182H1307.87V603H1303.69V599.222H1303.46C1302.96 600.386 1302.16 601.357 1301.05 602.134C1299.95 602.901 1298.58 603.284 1296.94 603.284C1295.54 603.284 1294.3 602.976 1293.22 602.361C1292.15 601.736 1291.31 600.812 1290.69 599.591C1290.09 598.369 1289.78 596.859 1289.78 595.06V581.182H1294.03V594.548C1294.03 596.035 1294.44 597.219 1295.27 598.099C1296.09 598.98 1297.16 599.42 1298.48 599.42C1299.27 599.42 1300.06 599.222 1300.85 598.824C1301.64 598.426 1302.3 597.825 1302.82 597.02C1303.35 596.215 1303.61 595.192 1303.6 593.952ZM1316.94 573.909V603H1312.69V573.909H1316.94ZM1326.02 573.909V603H1321.77V573.909H1326.02Z" fill="black" fill-opacity="0.8"/>
    <path d="M1293.78 170.079C1293.82 171.182 1294.75 172.044 1295.85 172.003C1296.96 171.962 1297.82 171.034 1297.78 169.93L1295.78 170.004L1293.78 170.079ZM1481.56 66.9194C1482.62 66.6089 1483.23 65.4979 1482.92 64.4378L1477.86 47.1636C1477.55 46.1036 1476.44 45.4959 1475.38 45.8064C1474.32 46.1169 1473.71 47.2279 1474.02 48.288L1478.52 63.6429L1463.16 68.1404C1462.1 68.4509 1461.5 69.5619 1461.81 70.6219C1462.12 71.682 1463.23 72.2896 1464.29 71.9791L1481.56 66.9194ZM1295.78 170.004L1297.78 169.93C1296.3 130.328 1316.4 90.5737 1349.6 67.7049C1382.69 44.9031 1428.93 38.8045 1480.04 66.7547L1481 65L1481.96 63.2453C1429.59 34.6055 1381.72 40.7117 1347.33 64.411C1313.03 88.0432 1292.25 129.086 1293.78 170.079L1295.78 170.004Z" fill="#757575"/>
</svg>
