<svg width="1242" height="448" viewBox="0 0 1242 448" fill="none" xmlns="http://www.w3.org/2000/svg">
    <rect width="1242" height="448" fill="white"/>
    <rect x="535" y="8" width="176" height="80" rx="6" fill="#FFC943"/>
    <path d="M581.413 63V41.1818H599.212V63H595.05V44.8466H585.547V63H581.413ZM613.2 63.4403C611.155 63.4403 609.37 62.9716 607.845 62.0341C606.321 61.0966 605.137 59.785 604.294 58.0994C603.451 56.4138 603.03 54.4441 603.03 52.1903C603.03 49.9271 603.451 47.9479 604.294 46.2528C605.137 44.5578 606.321 43.2415 607.845 42.304C609.37 41.3665 611.155 40.8977 613.2 40.8977C615.246 40.8977 617.031 41.3665 618.555 42.304C620.08 43.2415 621.264 44.5578 622.107 46.2528C622.949 47.9479 623.371 49.9271 623.371 52.1903C623.371 54.4441 622.949 56.4138 622.107 58.0994C621.264 59.785 620.08 61.0966 618.555 62.0341C617.031 62.9716 615.246 63.4403 613.2 63.4403ZM613.215 59.875C614.54 59.875 615.639 59.5246 616.51 58.8239C617.381 58.1231 618.025 57.1903 618.442 56.0256C618.868 54.8608 619.081 53.5777 619.081 52.1761C619.081 50.7841 618.868 49.5057 618.442 48.3409C618.025 47.1667 617.381 46.2244 616.51 45.5142C615.639 44.804 614.54 44.4489 613.215 44.4489C611.879 44.4489 610.771 44.804 609.891 45.5142C609.019 46.2244 608.371 47.1667 607.945 48.3409C607.528 49.5057 607.32 50.7841 607.32 52.1761C607.32 53.5777 607.528 54.8608 607.945 56.0256C608.371 57.1903 609.019 58.1231 609.891 58.8239C610.771 59.5246 611.879 59.875 613.215 59.875ZM636.422 63.4403C634.31 63.4403 632.492 62.9621 630.967 62.0057C629.452 61.0398 628.287 59.7093 627.473 58.0142C626.659 56.3191 626.251 54.3778 626.251 52.1903C626.251 49.9744 626.668 48.0189 627.501 46.3239C628.335 44.6193 629.509 43.2888 631.024 42.3324C632.539 41.3759 634.324 40.8977 636.379 40.8977C638.036 40.8977 639.514 41.2055 640.811 41.821C642.108 42.4271 643.155 43.2794 643.95 44.3778C644.755 45.4763 645.233 46.7595 645.385 48.2273H641.251C641.024 47.2045 640.503 46.3239 639.689 45.5852C638.884 44.8466 637.804 44.4773 636.45 44.4773C635.267 44.4773 634.23 44.7898 633.339 45.4148C632.459 46.0303 631.772 46.911 631.28 48.0568C630.787 49.1932 630.541 50.5379 630.541 52.0909C630.541 53.6818 630.783 55.0549 631.266 56.2102C631.749 57.3655 632.43 58.2604 633.311 58.8949C634.201 59.5294 635.248 59.8466 636.45 59.8466C637.255 59.8466 637.984 59.6998 638.638 59.4062C639.301 59.1032 639.855 58.6723 640.3 58.1136C640.754 57.5549 641.071 56.8826 641.251 56.0966H645.385C645.233 57.5076 644.774 58.767 644.007 59.875C643.24 60.983 642.213 61.8542 640.925 62.4886C639.646 63.1231 638.145 63.4403 636.422 63.4403ZM647.396 44.8466V41.1818H665.805V44.8466H658.688V63H654.54V44.8466H647.396Z" fill="black" fill-opacity="0.8"/>
    <rect x="103" y="152" width="464" height="80" rx="6" fill="#FFC943"/>
    <path d="M145.09 207V185.182H149.338V194.33H151.383L158.585 185.182H163.84L155.389 195.793L163.94 207H158.67L152.093 198.278H149.338V207H145.09ZM174.651 207.44C172.605 207.44 170.82 206.972 169.296 206.034C167.771 205.097 166.587 203.785 165.745 202.099C164.902 200.414 164.48 198.444 164.48 196.19C164.48 193.927 164.902 191.948 165.745 190.253C166.587 188.558 167.771 187.241 169.296 186.304C170.82 185.366 172.605 184.898 174.651 184.898C176.696 184.898 178.481 185.366 180.006 186.304C181.53 187.241 182.714 188.558 183.557 190.253C184.4 191.948 184.821 193.927 184.821 196.19C184.821 198.444 184.4 200.414 183.557 202.099C182.714 203.785 181.53 205.097 180.006 206.034C178.481 206.972 176.696 207.44 174.651 207.44ZM174.665 203.875C175.991 203.875 177.089 203.525 177.96 202.824C178.832 202.123 179.476 201.19 179.892 200.026C180.318 198.861 180.531 197.578 180.531 196.176C180.531 194.784 180.318 193.506 179.892 192.341C179.476 191.167 178.832 190.224 177.96 189.514C177.089 188.804 175.991 188.449 174.665 188.449C173.33 188.449 172.222 188.804 171.341 189.514C170.47 190.224 169.821 191.167 169.395 192.341C168.978 193.506 168.77 194.784 168.77 196.176C168.77 197.578 168.978 198.861 169.395 200.026C169.821 201.19 170.47 202.123 171.341 202.824C172.222 203.525 173.33 203.875 174.665 203.875ZM200.926 201.744L207.972 185.182H211.637L202.503 207H199.35L190.401 185.182H194.023L200.926 201.744ZM192.844 185.182V207H188.682V185.182H192.844ZM209.122 207V185.182H213.256V207H209.122ZM230.281 201.744L237.326 185.182H240.991L231.857 207H228.704L219.755 185.182H223.377L230.281 201.744ZM222.198 185.182V207H218.036V185.182H222.198ZM238.477 207V185.182H242.61V207H238.477ZM256.794 207.44C254.645 207.44 252.793 206.981 251.24 206.062C249.697 205.134 248.503 203.832 247.661 202.156C246.827 200.471 246.411 198.496 246.411 196.233C246.411 193.998 246.827 192.028 247.661 190.324C248.503 188.619 249.678 187.289 251.183 186.332C252.698 185.376 254.469 184.898 256.496 184.898C257.727 184.898 258.92 185.101 260.075 185.509C261.231 185.916 262.268 186.555 263.186 187.426C264.105 188.297 264.829 189.429 265.359 190.821C265.89 192.204 266.155 193.884 266.155 195.864V197.369H248.811V194.188H261.993C261.993 193.07 261.766 192.08 261.311 191.219C260.857 190.348 260.217 189.661 259.394 189.159C258.579 188.657 257.623 188.406 256.524 188.406C255.331 188.406 254.289 188.7 253.399 189.287C252.519 189.865 251.837 190.622 251.354 191.56C250.88 192.488 250.644 193.496 250.644 194.585V197.071C250.644 198.529 250.899 199.77 251.411 200.793C251.931 201.815 252.656 202.597 253.584 203.136C254.512 203.667 255.596 203.932 256.837 203.932C257.642 203.932 258.376 203.818 259.038 203.591C259.701 203.354 260.274 203.004 260.757 202.54C261.24 202.076 261.609 201.503 261.865 200.821L265.885 201.545C265.563 202.729 264.985 203.766 264.152 204.656C263.328 205.537 262.291 206.223 261.041 206.716C259.801 207.199 258.385 207.44 256.794 207.44ZM284.774 194.259V197.938H272.956V194.259H284.774ZM274.149 185.182V207H269.987V185.182H274.149ZM287.743 185.182V207H283.595V185.182H287.743ZM289.839 188.847V185.182H308.248V188.847H301.131V207H296.984V188.847H289.839ZM317.194 207.483C315.811 207.483 314.561 207.227 313.444 206.716C312.326 206.195 311.441 205.442 310.788 204.457C310.144 203.473 309.822 202.265 309.822 200.835C309.822 199.604 310.058 198.591 310.532 197.795C311.005 197 311.645 196.37 312.45 195.906C313.255 195.442 314.154 195.092 315.148 194.855C316.143 194.618 317.156 194.438 318.188 194.315C319.495 194.164 320.556 194.041 321.37 193.946C322.184 193.842 322.776 193.676 323.146 193.449C323.515 193.222 323.7 192.852 323.7 192.341V192.241C323.7 191.001 323.349 190.04 322.648 189.358C321.957 188.676 320.925 188.335 319.552 188.335C318.122 188.335 316.995 188.652 316.171 189.287C315.357 189.912 314.793 190.608 314.481 191.375L310.489 190.466C310.963 189.14 311.654 188.07 312.563 187.256C313.482 186.432 314.538 185.835 315.731 185.466C316.924 185.087 318.179 184.898 319.495 184.898C320.366 184.898 321.29 185.002 322.265 185.21C323.25 185.409 324.168 185.778 325.021 186.318C325.882 186.858 326.588 187.63 327.137 188.634C327.686 189.628 327.961 190.92 327.961 192.511V207H323.813V204.017H323.643C323.368 204.566 322.956 205.106 322.407 205.636C321.858 206.167 321.152 206.607 320.291 206.957C319.429 207.308 318.397 207.483 317.194 207.483ZM318.117 204.074C319.291 204.074 320.295 203.842 321.129 203.378C321.971 202.914 322.611 202.308 323.046 201.56C323.491 200.802 323.714 199.992 323.714 199.131V196.318C323.562 196.47 323.269 196.612 322.833 196.744C322.407 196.867 321.919 196.976 321.37 197.071C320.821 197.156 320.286 197.237 319.765 197.312C319.244 197.379 318.808 197.436 318.458 197.483C317.634 197.587 316.881 197.762 316.2 198.009C315.527 198.255 314.987 198.61 314.58 199.074C314.183 199.528 313.984 200.134 313.984 200.892C313.984 201.943 314.372 202.739 315.148 203.278C315.925 203.809 316.915 204.074 318.117 204.074ZM332.738 215.182V185.182H336.886V188.719H337.241C337.487 188.264 337.842 187.739 338.306 187.142C338.77 186.545 339.414 186.025 340.238 185.58C341.062 185.125 342.151 184.898 343.505 184.898C345.266 184.898 346.838 185.343 348.221 186.233C349.603 187.123 350.688 188.406 351.474 190.082C352.269 191.759 352.667 193.776 352.667 196.134C352.667 198.491 352.274 200.513 351.488 202.199C350.702 203.875 349.622 205.168 348.249 206.077C346.876 206.976 345.309 207.426 343.548 207.426C342.222 207.426 341.138 207.204 340.295 206.759C339.461 206.313 338.808 205.793 338.335 205.196C337.861 204.599 337.496 204.069 337.241 203.605H336.985V215.182H332.738ZM336.9 196.091C336.9 197.625 337.122 198.97 337.567 200.125C338.013 201.28 338.656 202.185 339.499 202.838C340.342 203.482 341.374 203.804 342.596 203.804C343.865 203.804 344.925 203.468 345.778 202.795C346.63 202.114 347.274 201.19 347.71 200.026C348.155 198.861 348.377 197.549 348.377 196.091C348.377 194.652 348.159 193.359 347.724 192.213C347.298 191.067 346.654 190.163 345.792 189.5C344.94 188.837 343.874 188.506 342.596 188.506C341.365 188.506 340.323 188.823 339.471 189.457C338.628 190.092 337.989 190.977 337.553 192.114C337.118 193.25 336.9 194.576 336.9 196.091ZM360.707 201.048L370.324 185.182H374.898V207H370.736V191.119L361.162 207H356.545V185.182H360.707V201.048ZM383.89 201.048L393.506 185.182H398.08V207H393.918V191.119L384.344 207H379.728V185.182H383.89V201.048ZM391.688 177.795H395.182C395.182 179.396 394.614 180.698 393.478 181.702C392.351 182.696 390.826 183.193 388.904 183.193C386.991 183.193 385.471 182.696 384.344 181.702C383.217 180.698 382.654 179.396 382.654 177.795H386.134C386.134 178.506 386.342 179.135 386.759 179.685C387.176 180.224 387.891 180.494 388.904 180.494C389.898 180.494 390.609 180.224 391.035 179.685C391.47 179.145 391.688 178.515 391.688 177.795ZM412.957 177.909H417.304V199.273H417.574L432.375 177.909H436.437V207H432.048V185.665H431.778L417.006 207H412.957V177.909ZM441.619 207V185.182H450.667C453.13 185.182 455.08 185.707 456.52 186.759C457.959 187.8 458.679 189.216 458.679 191.006C458.679 192.284 458.272 193.297 457.457 194.045C456.643 194.794 455.563 195.295 454.219 195.551C455.194 195.665 456.089 195.958 456.903 196.432C457.718 196.896 458.371 197.521 458.863 198.307C459.365 199.093 459.616 200.03 459.616 201.119C459.616 202.275 459.318 203.297 458.721 204.188C458.125 205.068 457.258 205.759 456.122 206.261C454.995 206.754 453.636 207 452.045 207H441.619ZM445.611 203.449H452.045C453.096 203.449 453.92 203.198 454.517 202.696C455.113 202.194 455.412 201.512 455.412 200.651C455.412 199.637 455.113 198.842 454.517 198.264C453.92 197.677 453.096 197.384 452.045 197.384H445.611V203.449ZM445.611 194.273H450.71C451.506 194.273 452.187 194.159 452.756 193.932C453.333 193.705 453.774 193.383 454.077 192.966C454.389 192.54 454.545 192.038 454.545 191.46C454.545 190.617 454.2 189.959 453.508 189.486C452.817 189.012 451.87 188.776 450.667 188.776H445.611V194.273ZM469.745 207.483C468.362 207.483 467.112 207.227 465.995 206.716C464.877 206.195 463.992 205.442 463.339 204.457C462.695 203.473 462.373 202.265 462.373 200.835C462.373 199.604 462.609 198.591 463.083 197.795C463.556 197 464.196 196.37 465.001 195.906C465.805 195.442 466.705 195.092 467.699 194.855C468.694 194.618 469.707 194.438 470.739 194.315C472.046 194.164 473.107 194.041 473.921 193.946C474.735 193.842 475.327 193.676 475.697 193.449C476.066 193.222 476.251 192.852 476.251 192.341V192.241C476.251 191.001 475.9 190.04 475.199 189.358C474.508 188.676 473.476 188.335 472.103 188.335C470.673 188.335 469.546 188.652 468.722 189.287C467.908 189.912 467.344 190.608 467.032 191.375L463.04 190.466C463.514 189.14 464.205 188.07 465.114 187.256C466.033 186.432 467.089 185.835 468.282 185.466C469.475 185.087 470.73 184.898 472.046 184.898C472.917 184.898 473.84 185.002 474.816 185.21C475.801 185.409 476.719 185.778 477.572 186.318C478.433 186.858 479.139 187.63 479.688 188.634C480.237 189.628 480.512 190.92 480.512 192.511V207H476.364V204.017H476.194C475.919 204.566 475.507 205.106 474.958 205.636C474.409 206.167 473.703 206.607 472.841 206.957C471.98 207.308 470.947 207.483 469.745 207.483ZM470.668 204.074C471.842 204.074 472.846 203.842 473.679 203.378C474.522 202.914 475.161 202.308 475.597 201.56C476.042 200.802 476.265 199.992 476.265 199.131V196.318C476.113 196.47 475.82 196.612 475.384 196.744C474.958 196.867 474.47 196.976 473.921 197.071C473.372 197.156 472.837 197.237 472.316 197.312C471.795 197.379 471.359 197.436 471.009 197.483C470.185 197.587 469.432 197.762 468.751 198.009C468.078 198.255 467.538 198.61 467.131 199.074C466.733 199.528 466.535 200.134 466.535 200.892C466.535 201.943 466.923 202.739 467.699 203.278C468.476 203.809 469.465 204.074 470.668 204.074ZM500.076 194.259V197.938H488.258V194.259H500.076ZM489.451 185.182V207H485.289V185.182H489.451ZM503.045 185.182V207H498.897V185.182H503.045ZM514.196 207.483C512.813 207.483 511.563 207.227 510.446 206.716C509.328 206.195 508.443 205.442 507.79 204.457C507.146 203.473 506.824 202.265 506.824 200.835C506.824 199.604 507.06 198.591 507.534 197.795C508.007 197 508.647 196.37 509.451 195.906C510.256 195.442 511.156 195.092 512.15 194.855C513.145 194.618 514.158 194.438 515.19 194.315C516.497 194.164 517.558 194.041 518.372 193.946C519.186 193.842 519.778 193.676 520.148 193.449C520.517 193.222 520.701 192.852 520.701 192.341V192.241C520.701 191.001 520.351 190.04 519.65 189.358C518.959 188.676 517.927 188.335 516.554 188.335C515.124 188.335 513.997 188.652 513.173 189.287C512.359 189.912 511.795 190.608 511.483 191.375L507.491 190.466C507.965 189.14 508.656 188.07 509.565 187.256C510.484 186.432 511.54 185.835 512.733 185.466C513.926 185.087 515.181 184.898 516.497 184.898C517.368 184.898 518.291 185.002 519.267 185.21C520.252 185.409 521.17 185.778 522.023 186.318C522.884 186.858 523.59 187.63 524.139 188.634C524.688 189.628 524.963 190.92 524.963 192.511V207H520.815V204.017H520.645C520.37 204.566 519.958 205.106 519.409 205.636C518.86 206.167 518.154 206.607 517.292 206.957C516.431 207.308 515.398 207.483 514.196 207.483ZM515.119 204.074C516.293 204.074 517.297 203.842 518.13 203.378C518.973 202.914 519.612 202.308 520.048 201.56C520.493 200.802 520.716 199.992 520.716 199.131V196.318C520.564 196.47 520.271 196.612 519.835 196.744C519.409 196.867 518.921 196.976 518.372 197.071C517.823 197.156 517.288 197.237 516.767 197.312C516.246 197.379 515.81 197.436 515.46 197.483C514.636 197.587 513.883 197.762 513.201 198.009C512.529 198.255 511.989 198.61 511.582 199.074C511.184 199.528 510.986 200.134 510.986 200.892C510.986 201.943 511.374 202.739 512.15 203.278C512.927 203.809 513.916 204.074 515.119 204.074Z" fill="black" fill-opacity="0.8"/>
    <path d="M538.528 92.4722C539.516 91.9782 539.916 90.7769 539.422 89.7889C538.929 88.801 537.727 88.4005 536.739 88.8945L537.634 90.6833L538.528 92.4722ZM418.917 148.461C418.567 149.509 419.134 150.641 420.182 150.991L437.258 156.683C438.306 157.032 439.438 156.466 439.788 155.418C440.137 154.37 439.571 153.237 438.523 152.888L423.344 147.828L428.403 132.649C428.753 131.601 428.186 130.469 427.139 130.12C426.091 129.77 424.958 130.337 424.609 131.384L418.917 148.461ZM537.634 90.6833L536.739 88.8945L419.92 147.304L420.814 149.093L421.708 150.882L538.528 92.4722L537.634 90.6833Z" fill="#757575"/>
    <rect x="679" y="152" width="460" height="80" rx="6" fill="#FFC943"/>
    <path d="M698.056 207V185.182H702.304V194.33H704.349L711.551 185.182H716.806L708.355 195.793L716.906 207H711.636L705.059 198.278H702.304V207H698.056ZM727.617 207.44C725.571 207.44 723.786 206.972 722.262 206.034C720.737 205.097 719.553 203.785 718.71 202.099C717.868 200.414 717.446 198.444 717.446 196.19C717.446 193.927 717.868 191.948 718.71 190.253C719.553 188.558 720.737 187.241 722.262 186.304C723.786 185.366 725.571 184.898 727.617 184.898C729.662 184.898 731.447 185.366 732.972 186.304C734.496 187.241 735.68 188.558 736.523 190.253C737.366 191.948 737.787 193.927 737.787 196.19C737.787 198.444 737.366 200.414 736.523 202.099C735.68 203.785 734.496 205.097 732.972 206.034C731.447 206.972 729.662 207.44 727.617 207.44ZM727.631 203.875C728.957 203.875 730.055 203.525 730.926 202.824C731.798 202.123 732.442 201.19 732.858 200.026C733.284 198.861 733.497 197.578 733.497 196.176C733.497 194.784 733.284 193.506 732.858 192.341C732.442 191.167 731.798 190.224 730.926 189.514C730.055 188.804 728.957 188.449 727.631 188.449C726.296 188.449 725.188 188.804 724.307 189.514C723.436 190.224 722.787 191.167 722.361 192.341C721.944 193.506 721.736 194.784 721.736 196.176C721.736 197.578 721.944 198.861 722.361 200.026C722.787 201.19 723.436 202.123 724.307 202.824C725.188 203.525 726.296 203.875 727.631 203.875ZM753.892 201.744L760.938 185.182H764.602L755.469 207H752.316L743.367 185.182H746.989L753.892 201.744ZM745.81 185.182V207H741.648V185.182H745.81ZM762.088 207V185.182H766.222V207H762.088ZM783.247 201.744L790.292 185.182H793.957L784.823 207H781.67L772.721 185.182H776.343L783.247 201.744ZM775.164 185.182V207H771.002V185.182H775.164ZM791.443 207V185.182H795.576V207H791.443ZM809.76 207.44C807.61 207.44 805.759 206.981 804.206 206.062C802.663 205.134 801.469 203.832 800.627 202.156C799.793 200.471 799.377 198.496 799.377 196.233C799.377 193.998 799.793 192.028 800.627 190.324C801.469 188.619 802.644 187.289 804.149 186.332C805.664 185.376 807.435 184.898 809.462 184.898C810.693 184.898 811.886 185.101 813.041 185.509C814.197 185.916 815.234 186.555 816.152 187.426C817.071 188.297 817.795 189.429 818.325 190.821C818.856 192.204 819.121 193.884 819.121 195.864V197.369H801.777V194.188H814.959C814.959 193.07 814.732 192.08 814.277 191.219C813.823 190.348 813.183 189.661 812.36 189.159C811.545 188.657 810.589 188.406 809.49 188.406C808.297 188.406 807.255 188.7 806.365 189.287C805.485 189.865 804.803 190.622 804.32 191.56C803.846 192.488 803.61 193.496 803.61 194.585V197.071C803.61 198.529 803.865 199.77 804.377 200.793C804.897 201.815 805.622 202.597 806.55 203.136C807.478 203.667 808.562 203.932 809.803 203.932C810.608 203.932 811.342 203.818 812.004 203.591C812.667 203.354 813.24 203.004 813.723 202.54C814.206 202.076 814.575 201.503 814.831 200.821L818.851 201.545C818.529 202.729 817.951 203.766 817.118 204.656C816.294 205.537 815.257 206.223 814.007 206.716C812.767 207.199 811.351 207.44 809.76 207.44ZM837.74 194.259V197.938H825.922V194.259H837.74ZM827.115 185.182V207H822.953V185.182H827.115ZM840.709 185.182V207H836.561V185.182H840.709ZM842.805 188.847V185.182H861.214V188.847H854.097V207H849.95V188.847H842.805ZM870.16 207.483C868.777 207.483 867.527 207.227 866.41 206.716C865.292 206.195 864.407 205.442 863.754 204.457C863.11 203.473 862.788 202.265 862.788 200.835C862.788 199.604 863.024 198.591 863.498 197.795C863.971 197 864.611 196.37 865.416 195.906C866.22 195.442 867.12 195.092 868.114 194.855C869.109 194.618 870.122 194.438 871.154 194.315C872.461 194.164 873.522 194.041 874.336 193.946C875.15 193.842 875.742 193.676 876.112 193.449C876.481 193.222 876.666 192.852 876.666 192.341V192.241C876.666 191.001 876.315 190.04 875.614 189.358C874.923 188.676 873.891 188.335 872.518 188.335C871.088 188.335 869.961 188.652 869.137 189.287C868.323 189.912 867.759 190.608 867.447 191.375L863.455 190.466C863.929 189.14 864.62 188.07 865.529 187.256C866.448 186.432 867.504 185.835 868.697 185.466C869.89 185.087 871.145 184.898 872.461 184.898C873.332 184.898 874.255 185.002 875.231 185.21C876.216 185.409 877.134 185.778 877.987 186.318C878.848 186.858 879.554 187.63 880.103 188.634C880.652 189.628 880.927 190.92 880.927 192.511V207H876.779V204.017H876.609C876.334 204.566 875.922 205.106 875.373 205.636C874.824 206.167 874.118 206.607 873.256 206.957C872.395 207.308 871.363 207.483 870.16 207.483ZM871.083 204.074C872.257 204.074 873.261 203.842 874.095 203.378C874.937 202.914 875.577 202.308 876.012 201.56C876.457 200.802 876.68 199.992 876.68 199.131V196.318C876.528 196.47 876.235 196.612 875.799 196.744C875.373 196.867 874.885 196.976 874.336 197.071C873.787 197.156 873.252 197.237 872.731 197.312C872.21 197.379 871.774 197.436 871.424 197.483C870.6 197.587 869.847 197.762 869.166 198.009C868.493 198.255 867.953 198.61 867.546 199.074C867.148 199.528 866.95 200.134 866.95 200.892C866.95 201.943 867.338 202.739 868.114 203.278C868.891 203.809 869.88 204.074 871.083 204.074ZM885.704 215.182V185.182H889.852V188.719H890.207C890.453 188.264 890.808 187.739 891.272 187.142C891.736 186.545 892.38 186.025 893.204 185.58C894.028 185.125 895.117 184.898 896.471 184.898C898.232 184.898 899.804 185.343 901.187 186.233C902.569 187.123 903.654 188.406 904.44 190.082C905.235 191.759 905.633 193.776 905.633 196.134C905.633 198.491 905.24 200.513 904.454 202.199C903.668 203.875 902.588 205.168 901.215 206.077C899.842 206.976 898.275 207.426 896.514 207.426C895.188 207.426 894.103 207.204 893.261 206.759C892.427 206.313 891.774 205.793 891.3 205.196C890.827 204.599 890.462 204.069 890.207 203.605H889.951V215.182H885.704ZM889.866 196.091C889.866 197.625 890.088 198.97 890.533 200.125C890.978 201.28 891.622 202.185 892.465 202.838C893.308 203.482 894.34 203.804 895.562 203.804C896.831 203.804 897.891 203.468 898.744 202.795C899.596 202.114 900.24 201.19 900.675 200.026C901.121 198.861 901.343 197.549 901.343 196.091C901.343 194.652 901.125 193.359 900.69 192.213C900.264 191.067 899.62 190.163 898.758 189.5C897.906 188.837 896.84 188.506 895.562 188.506C894.331 188.506 893.289 188.823 892.437 189.457C891.594 190.092 890.955 190.977 890.519 192.114C890.084 193.25 889.866 194.576 889.866 196.091ZM913.673 201.048L923.29 185.182H927.864V207H923.702V191.119L914.128 207H909.511V185.182H913.673V201.048ZM936.856 201.048L946.472 185.182H951.046V207H946.884V191.119L937.31 207H932.694V185.182H936.856V201.048ZM944.654 177.795H948.148C948.148 179.396 947.58 180.698 946.444 181.702C945.317 182.696 943.792 183.193 941.87 183.193C939.957 183.193 938.437 182.696 937.31 181.702C936.183 180.698 935.62 179.396 935.62 177.795H939.1C939.1 178.506 939.308 179.135 939.725 179.685C940.142 180.224 940.857 180.494 941.87 180.494C942.864 180.494 943.575 180.224 944.001 179.685C944.436 179.145 944.654 178.515 944.654 177.795ZM968.381 207H963.721L974.19 177.909H979.261L989.73 207H985.071L976.846 183.193H976.619L968.381 207ZM969.162 195.608H984.275V199.301H969.162V195.608ZM990.991 207L990.977 203.321H991.758C992.364 203.321 992.871 203.193 993.278 202.938C993.695 202.672 994.036 202.227 994.301 201.602C994.566 200.977 994.77 200.116 994.912 199.017C995.054 197.909 995.158 196.517 995.224 194.841L995.608 185.182H1010.84V207H1006.67V188.847H999.542L999.202 196.261C999.116 198.061 998.932 199.633 998.648 200.977C998.373 202.322 997.971 203.444 997.44 204.344C996.91 205.234 996.228 205.902 995.395 206.347C994.561 206.782 993.548 207 992.355 207H990.991ZM1025.02 207.44C1022.87 207.44 1021.02 206.981 1019.47 206.062C1017.93 205.134 1016.73 203.832 1015.89 202.156C1015.06 200.471 1014.64 198.496 1014.64 196.233C1014.64 193.998 1015.06 192.028 1015.89 190.324C1016.73 188.619 1017.91 187.289 1019.41 186.332C1020.93 185.376 1022.7 184.898 1024.72 184.898C1025.96 184.898 1027.15 185.101 1028.3 185.509C1029.46 185.916 1030.5 186.555 1031.41 187.426C1032.33 188.297 1033.06 189.429 1033.59 190.821C1034.12 192.204 1034.38 193.884 1034.38 195.864V197.369H1017.04V194.188H1030.22C1030.22 193.07 1029.99 192.08 1029.54 191.219C1029.09 190.348 1028.45 189.661 1027.62 189.159C1026.81 188.657 1025.85 188.406 1024.75 188.406C1023.56 188.406 1022.52 188.7 1021.63 189.287C1020.75 189.865 1020.07 190.622 1019.58 191.56C1019.11 192.488 1018.87 193.496 1018.87 194.585V197.071C1018.87 198.529 1019.13 199.77 1019.64 200.793C1020.16 201.815 1020.88 202.597 1021.81 203.136C1022.74 203.667 1023.82 203.932 1025.07 203.932C1025.87 203.932 1026.6 203.818 1027.27 203.591C1027.93 203.354 1028.5 203.004 1028.99 202.54C1029.47 202.076 1029.84 201.503 1030.09 200.821L1034.11 201.545C1033.79 202.729 1033.21 203.766 1032.38 204.656C1031.56 205.537 1030.52 206.223 1029.27 206.716C1028.03 207.199 1026.61 207.44 1025.02 207.44ZM1038.22 207V185.182H1042.46V194.33H1044.51L1051.71 185.182H1056.97L1048.51 195.793L1057.07 207H1051.8L1045.22 198.278H1042.46V207H1038.22ZM1067.78 207.44C1065.66 207.44 1063.85 206.962 1062.32 206.006C1060.81 205.04 1059.64 203.709 1058.83 202.014C1058.01 200.319 1057.61 198.378 1057.61 196.19C1057.61 193.974 1058.02 192.019 1058.86 190.324C1059.69 188.619 1060.86 187.289 1062.38 186.332C1063.89 185.376 1065.68 184.898 1067.73 184.898C1069.39 184.898 1070.87 185.205 1072.17 185.821C1073.46 186.427 1074.51 187.279 1075.3 188.378C1076.11 189.476 1076.59 190.759 1076.74 192.227H1072.61C1072.38 191.205 1071.86 190.324 1071.04 189.585C1070.24 188.847 1069.16 188.477 1067.8 188.477C1066.62 188.477 1065.58 188.79 1064.69 189.415C1063.81 190.03 1063.13 190.911 1062.63 192.057C1062.14 193.193 1061.9 194.538 1061.9 196.091C1061.9 197.682 1062.14 199.055 1062.62 200.21C1063.1 201.366 1063.78 202.26 1064.67 202.895C1065.56 203.529 1066.6 203.847 1067.8 203.847C1068.61 203.847 1069.34 203.7 1069.99 203.406C1070.65 203.103 1071.21 202.672 1071.65 202.114C1072.11 201.555 1072.43 200.883 1072.61 200.097H1076.74C1076.59 201.508 1076.13 202.767 1075.36 203.875C1074.59 204.983 1073.57 205.854 1072.28 206.489C1071 207.123 1069.5 207.44 1067.78 207.44ZM1089.8 207.44C1087.65 207.44 1085.8 206.981 1084.25 206.062C1082.71 205.134 1081.51 203.832 1080.67 202.156C1079.84 200.471 1079.42 198.496 1079.42 196.233C1079.42 193.998 1079.84 192.028 1080.67 190.324C1081.51 188.619 1082.69 187.289 1084.19 186.332C1085.71 185.376 1087.48 184.898 1089.51 184.898C1090.74 184.898 1091.93 185.101 1093.09 185.509C1094.24 185.916 1095.28 186.555 1096.2 187.426C1097.12 188.297 1097.84 189.429 1098.37 190.821C1098.9 192.204 1099.17 193.884 1099.17 195.864V197.369H1081.82V194.188H1095C1095 193.07 1094.78 192.08 1094.32 191.219C1093.87 190.348 1093.23 189.661 1092.4 189.159C1091.59 188.657 1090.63 188.406 1089.53 188.406C1088.34 188.406 1087.3 188.7 1086.41 189.287C1085.53 189.865 1084.85 190.622 1084.36 191.56C1083.89 192.488 1083.65 193.496 1083.65 194.585V197.071C1083.65 198.529 1083.91 199.77 1084.42 200.793C1084.94 201.815 1085.67 202.597 1086.59 203.136C1087.52 203.667 1088.61 203.932 1089.85 203.932C1090.65 203.932 1091.39 203.818 1092.05 203.591C1092.71 203.354 1093.28 203.004 1093.77 202.54C1094.25 202.076 1094.62 201.503 1094.88 200.821L1098.9 201.545C1098.57 202.729 1098 203.766 1097.16 204.656C1096.34 205.537 1095.3 206.223 1094.05 206.716C1092.81 207.199 1091.4 207.44 1089.8 207.44ZM1116.01 207V188.804H1110.78C1109.54 188.804 1108.58 189.093 1107.88 189.67C1107.19 190.248 1106.85 191.006 1106.85 191.943C1106.85 192.871 1107.16 193.619 1107.8 194.188C1108.44 194.746 1109.34 195.026 1110.5 195.026H1117.24V198.463H1110.5C1108.89 198.463 1107.5 198.198 1106.32 197.668C1105.16 197.128 1104.26 196.366 1103.62 195.381C1103 194.396 1102.69 193.231 1102.69 191.886C1102.69 190.513 1103.01 189.33 1103.65 188.335C1104.3 187.331 1105.24 186.555 1106.45 186.006C1107.67 185.456 1109.12 185.182 1110.78 185.182H1120V207H1116.01ZM1101.69 207L1107.84 195.977H1112.19L1106.04 207H1101.69Z" fill="black" fill-opacity="0.8"/>
    <path d="M708.703 88.9119C707.717 88.4152 706.514 88.8122 706.017 89.7988C705.521 90.7854 705.918 91.9879 706.904 92.4846L707.804 90.6982L708.703 88.9119ZM824.377 150.976C825.426 150.63 825.996 149.499 825.649 148.45L820.005 131.358C819.659 130.309 818.527 129.739 817.479 130.086C816.43 130.432 815.86 131.563 816.207 132.612L821.224 147.805L806.031 152.822C804.982 153.168 804.413 154.3 804.759 155.348C805.105 156.397 806.236 156.967 807.285 156.62L824.377 150.976ZM707.804 90.6982L706.904 92.4846L822.851 150.863L823.75 149.077L824.65 147.291L708.703 88.9119L707.804 90.6982Z" fill="#757575"/>
    <rect x="7" y="360" width="464" height="80" rx="6" fill="#FFC943"/>
    <path d="M44.11 415V393.182H48.3571V402.33H50.4026L57.6043 393.182H62.86L54.4082 403.793L62.9594 415H57.6895L51.1128 406.278H48.3571V415H44.11ZM73.6703 415.44C71.6248 415.44 69.8398 414.972 68.3152 414.034C66.7906 413.097 65.6068 411.785 64.764 410.099C63.9212 408.414 63.4998 406.444 63.4998 404.19C63.4998 401.927 63.9212 399.948 64.764 398.253C65.6068 396.558 66.7906 395.241 68.3152 394.304C69.8398 393.366 71.6248 392.898 73.6703 392.898C75.7157 392.898 77.5008 393.366 79.0254 394.304C80.55 395.241 81.7337 396.558 82.5765 398.253C83.4193 399.948 83.8407 401.927 83.8407 404.19C83.8407 406.444 83.4193 408.414 82.5765 410.099C81.7337 411.785 80.55 413.097 79.0254 414.034C77.5008 414.972 75.7157 415.44 73.6703 415.44ZM73.6845 411.875C75.0103 411.875 76.1087 411.525 76.98 410.824C77.8512 410.123 78.4951 409.19 78.9118 408.026C79.3379 406.861 79.551 405.578 79.551 404.176C79.551 402.784 79.3379 401.506 78.9118 400.341C78.4951 399.167 77.8512 398.224 76.98 397.514C76.1087 396.804 75.0103 396.449 73.6845 396.449C72.3493 396.449 71.2413 396.804 70.3606 397.514C69.4894 398.224 68.8407 399.167 68.4146 400.341C67.9979 401.506 67.7896 402.784 67.7896 404.176C67.7896 405.578 67.9979 406.861 68.4146 408.026C68.8407 409.19 69.4894 410.123 70.3606 410.824C71.2413 411.525 72.3493 411.875 73.6845 411.875ZM99.9458 409.744L106.991 393.182H110.656L101.523 415H98.3691L89.4203 393.182H93.0424L99.9458 409.744ZM91.8635 393.182V415H87.7015V393.182H91.8635ZM108.142 415V393.182H112.275V415H108.142ZM129.3 409.744L136.346 393.182H140.01L130.877 415H127.724L118.775 393.182H122.397L129.3 409.744ZM121.218 393.182V415H117.056V393.182H121.218ZM137.496 415V393.182H141.63V415H137.496ZM155.814 415.44C153.664 415.44 151.813 414.981 150.26 414.062C148.716 413.134 147.523 411.832 146.68 410.156C145.847 408.471 145.43 406.496 145.43 404.233C145.43 401.998 145.847 400.028 146.68 398.324C147.523 396.619 148.697 395.289 150.203 394.332C151.718 393.376 153.489 392.898 155.515 392.898C156.746 392.898 157.94 393.101 159.095 393.509C160.25 393.916 161.287 394.555 162.206 395.426C163.124 396.297 163.849 397.429 164.379 398.821C164.909 400.204 165.174 401.884 165.174 403.864V405.369H147.831V402.188H161.013C161.013 401.07 160.785 400.08 160.331 399.219C159.876 398.348 159.237 397.661 158.413 397.159C157.599 396.657 156.642 396.406 155.544 396.406C154.351 396.406 153.309 396.7 152.419 397.287C151.538 397.865 150.856 398.622 150.373 399.56C149.9 400.488 149.663 401.496 149.663 402.585V405.071C149.663 406.529 149.919 407.77 150.43 408.793C150.951 409.815 151.675 410.597 152.603 411.136C153.531 411.667 154.616 411.932 155.856 411.932C156.661 411.932 157.395 411.818 158.058 411.591C158.721 411.354 159.294 411.004 159.777 410.54C160.26 410.076 160.629 409.503 160.885 408.821L164.905 409.545C164.583 410.729 164.005 411.766 163.172 412.656C162.348 413.537 161.311 414.223 160.061 414.716C158.82 415.199 157.405 415.44 155.814 415.44ZM183.794 402.259V405.938H171.976V402.259H183.794ZM173.169 393.182V415H169.007V393.182H173.169ZM186.762 393.182V415H182.615V393.182H186.762ZM188.858 396.847V393.182H207.267V396.847H200.151V415H196.003V396.847H188.858ZM216.213 415.483C214.831 415.483 213.581 415.227 212.463 414.716C211.346 414.195 210.461 413.442 209.807 412.457C209.163 411.473 208.841 410.265 208.841 408.835C208.841 407.604 209.078 406.591 209.552 405.795C210.025 405 210.664 404.37 211.469 403.906C212.274 403.442 213.174 403.092 214.168 402.855C215.162 402.618 216.176 402.438 217.208 402.315C218.515 402.164 219.575 402.041 220.39 401.946C221.204 401.842 221.796 401.676 222.165 401.449C222.534 401.222 222.719 400.852 222.719 400.341V400.241C222.719 399.001 222.369 398.04 221.668 397.358C220.977 396.676 219.945 396.335 218.571 396.335C217.141 396.335 216.015 396.652 215.191 397.287C214.376 397.912 213.813 398.608 213.5 399.375L209.509 398.466C209.982 397.14 210.674 396.07 211.583 395.256C212.501 394.432 213.557 393.835 214.75 393.466C215.944 393.087 217.198 392.898 218.515 392.898C219.386 392.898 220.309 393.002 221.284 393.21C222.269 393.409 223.188 393.778 224.04 394.318C224.902 394.858 225.607 395.63 226.157 396.634C226.706 397.628 226.98 398.92 226.98 400.511V415H222.833V412.017H222.662C222.388 412.566 221.976 413.106 221.427 413.636C220.877 414.167 220.172 414.607 219.31 414.957C218.448 415.308 217.416 415.483 216.213 415.483ZM217.137 412.074C218.311 412.074 219.315 411.842 220.148 411.378C220.991 410.914 221.63 410.308 222.066 409.56C222.511 408.802 222.733 407.992 222.733 407.131V404.318C222.582 404.47 222.288 404.612 221.853 404.744C221.427 404.867 220.939 404.976 220.39 405.071C219.84 405.156 219.305 405.237 218.784 405.312C218.264 405.379 217.828 405.436 217.478 405.483C216.654 405.587 215.901 405.762 215.219 406.009C214.547 406.255 214.007 406.61 213.6 407.074C213.202 407.528 213.003 408.134 213.003 408.892C213.003 409.943 213.391 410.739 214.168 411.278C214.945 411.809 215.934 412.074 217.137 412.074ZM231.757 423.182V393.182H235.905V396.719H236.26C236.507 396.264 236.862 395.739 237.326 395.142C237.79 394.545 238.434 394.025 239.257 393.58C240.081 393.125 241.17 392.898 242.525 392.898C244.286 392.898 245.858 393.343 247.24 394.233C248.623 395.123 249.707 396.406 250.493 398.082C251.289 399.759 251.686 401.776 251.686 404.134C251.686 406.491 251.293 408.513 250.507 410.199C249.721 411.875 248.642 413.168 247.269 414.077C245.896 414.976 244.328 415.426 242.567 415.426C241.241 415.426 240.157 415.204 239.314 414.759C238.481 414.313 237.828 413.793 237.354 413.196C236.881 412.599 236.516 412.069 236.26 411.605H236.005V423.182H231.757ZM235.919 404.091C235.919 405.625 236.142 406.97 236.587 408.125C237.032 409.28 237.676 410.185 238.519 410.838C239.362 411.482 240.394 411.804 241.615 411.804C242.884 411.804 243.945 411.468 244.797 410.795C245.65 410.114 246.293 409.19 246.729 408.026C247.174 406.861 247.397 405.549 247.397 404.091C247.397 402.652 247.179 401.359 246.743 400.213C246.317 399.067 245.673 398.163 244.811 397.5C243.959 396.837 242.894 396.506 241.615 396.506C240.384 396.506 239.343 396.823 238.49 397.457C237.648 398.092 237.008 398.977 236.573 400.114C236.137 401.25 235.919 402.576 235.919 404.091ZM259.727 409.048L269.343 393.182H273.917V415H269.755V399.119L260.181 415H255.565V393.182H259.727V409.048ZM282.909 409.048L292.526 393.182H297.1V415H292.938V399.119L283.364 415H278.747V393.182H282.909V409.048ZM290.708 385.795H294.202C294.202 387.396 293.634 388.698 292.497 389.702C291.371 390.696 289.846 391.193 287.924 391.193C286.011 391.193 284.491 390.696 283.364 389.702C282.237 388.698 281.674 387.396 281.674 385.795H285.154C285.154 386.506 285.362 387.135 285.779 387.685C286.195 388.224 286.91 388.494 287.924 388.494C288.918 388.494 289.628 388.224 290.054 387.685C290.49 387.145 290.708 386.515 290.708 385.795ZM311.977 385.909H317.303L326.565 408.523H326.906L336.167 385.909H341.494V415H337.318V393.949H337.048L328.468 414.957H325.002L316.423 393.935H316.153V415H311.977V385.909ZM353.004 415.483C351.621 415.483 350.371 415.227 349.254 414.716C348.136 414.195 347.251 413.442 346.597 412.457C345.954 411.473 345.632 410.265 345.632 408.835C345.632 407.604 345.868 406.591 346.342 405.795C346.815 405 347.454 404.37 348.259 403.906C349.064 403.442 349.964 403.092 350.958 402.855C351.953 402.618 352.966 402.438 353.998 402.315C355.305 402.164 356.365 402.041 357.18 401.946C357.994 401.842 358.586 401.676 358.955 401.449C359.325 401.222 359.509 400.852 359.509 400.341V400.241C359.509 399.001 359.159 398.04 358.458 397.358C357.767 396.676 356.735 396.335 355.362 396.335C353.932 396.335 352.805 396.652 351.981 397.287C351.167 397.912 350.603 398.608 350.291 399.375L346.299 398.466C346.773 397.14 347.464 396.07 348.373 395.256C349.292 394.432 350.347 393.835 351.541 393.466C352.734 393.087 353.989 392.898 355.305 392.898C356.176 392.898 357.099 393.002 358.075 393.21C359.06 393.409 359.978 393.778 360.83 394.318C361.692 394.858 362.398 395.63 362.947 396.634C363.496 397.628 363.771 398.92 363.771 400.511V415H359.623V412.017H359.453C359.178 412.566 358.766 413.106 358.217 413.636C357.668 414.167 356.962 414.607 356.1 414.957C355.239 415.308 354.206 415.483 353.004 415.483ZM353.927 412.074C355.101 412.074 356.105 411.842 356.938 411.378C357.781 410.914 358.42 410.308 358.856 409.56C359.301 408.802 359.524 407.992 359.524 407.131V404.318C359.372 404.47 359.079 404.612 358.643 404.744C358.217 404.867 357.729 404.976 357.18 405.071C356.631 405.156 356.096 405.237 355.575 405.312C355.054 405.379 354.618 405.436 354.268 405.483C353.444 405.587 352.691 405.762 352.009 406.009C351.337 406.255 350.797 406.61 350.39 407.074C349.992 407.528 349.794 408.134 349.794 408.892C349.794 409.943 350.182 410.739 350.958 411.278C351.735 411.809 352.724 412.074 353.927 412.074ZM368.548 423.182V393.182H372.695V396.719H373.051C373.297 396.264 373.652 395.739 374.116 395.142C374.58 394.545 375.224 394.025 376.048 393.58C376.872 393.125 377.961 392.898 379.315 392.898C381.076 392.898 382.648 393.343 384.031 394.233C385.413 395.123 386.498 396.406 387.284 398.082C388.079 399.759 388.477 401.776 388.477 404.134C388.477 406.491 388.084 408.513 387.298 410.199C386.512 411.875 385.432 413.168 384.059 414.077C382.686 414.976 381.119 415.426 379.357 415.426C378.032 415.426 376.947 415.204 376.105 414.759C375.271 414.313 374.618 413.793 374.144 413.196C373.671 412.599 373.306 412.069 373.051 411.605H372.795V423.182H368.548ZM372.71 404.091C372.71 405.625 372.932 406.97 373.377 408.125C373.822 409.28 374.466 410.185 375.309 410.838C376.152 411.482 377.184 411.804 378.406 411.804C379.675 411.804 380.735 411.468 381.588 410.795C382.44 410.114 383.084 409.19 383.519 408.026C383.964 406.861 384.187 405.549 384.187 404.091C384.187 402.652 383.969 401.359 383.534 400.213C383.107 399.067 382.463 398.163 381.602 397.5C380.749 396.837 379.684 396.506 378.406 396.506C377.175 396.506 376.133 396.823 375.281 397.457C374.438 398.092 373.799 398.977 373.363 400.114C372.927 401.25 372.71 402.576 372.71 404.091ZM396.517 409.048L406.134 393.182H410.708V415H406.546V399.119L396.972 415H392.355V393.182H396.517V409.048ZM419.7 409.048L429.316 393.182H433.89V415H429.728V399.119L420.154 415H415.538V393.182H419.7V409.048Z" fill="black" fill-opacity="0.8"/>
    <path d="M315.84 238.286C316.303 237.283 315.865 236.095 314.862 235.632C313.859 235.169 312.671 235.607 312.208 236.61L314.024 237.448L315.84 238.286ZM258.309 354.79C258.691 355.826 259.84 356.357 260.877 355.975L277.767 349.752C278.804 349.37 279.334 348.221 278.952 347.184C278.571 346.148 277.421 345.617 276.384 345.999L261.371 351.53L255.84 336.517C255.458 335.48 254.308 334.95 253.271 335.331C252.235 335.713 251.704 336.863 252.086 337.9L258.309 354.79ZM314.024 237.448L312.208 236.61L258.37 353.26L260.186 354.098L262.001 354.936L315.84 238.286L314.024 237.448Z" fill="#757575"/>
    <rect x="775" y="360" width="460" height="80" rx="6" fill="#FFC943"/>
    <path d="M816.028 415V393.182H820.275V402.33H822.321L829.522 393.182H834.778L826.326 403.793L834.877 415H829.607L823.031 406.278H820.275V415H816.028ZM845.588 415.44C843.543 415.44 841.758 414.972 840.233 414.034C838.709 413.097 837.525 411.785 836.682 410.099C835.839 408.414 835.418 406.444 835.418 404.19C835.418 401.927 835.839 399.948 836.682 398.253C837.525 396.558 838.709 395.241 840.233 394.304C841.758 393.366 843.543 392.898 845.588 392.898C847.634 392.898 849.419 393.366 850.943 394.304C852.468 395.241 853.652 396.558 854.495 398.253C855.337 399.948 855.759 401.927 855.759 404.19C855.759 406.444 855.337 408.414 854.495 410.099C853.652 411.785 852.468 413.097 850.943 414.034C849.419 414.972 847.634 415.44 845.588 415.44ZM845.602 411.875C846.928 411.875 848.027 411.525 848.898 410.824C849.769 410.123 850.413 409.19 850.83 408.026C851.256 406.861 851.469 405.578 851.469 404.176C851.469 402.784 851.256 401.506 850.83 400.341C850.413 399.167 849.769 398.224 848.898 397.514C848.027 396.804 846.928 396.449 845.602 396.449C844.267 396.449 843.159 396.804 842.279 397.514C841.407 398.224 840.759 399.167 840.333 400.341C839.916 401.506 839.708 402.784 839.708 404.176C839.708 405.578 839.916 406.861 840.333 408.026C840.759 409.19 841.407 410.123 842.279 410.824C843.159 411.525 844.267 411.875 845.602 411.875ZM871.864 409.744L878.909 393.182H882.574L873.441 415H870.287L861.338 393.182H864.96L871.864 409.744ZM863.781 393.182V415H859.619V393.182H863.781ZM880.06 415V393.182H884.193V415H880.06ZM901.218 409.744L908.264 393.182H911.928L902.795 415H899.641L890.693 393.182H894.315L901.218 409.744ZM893.136 393.182V415H888.974V393.182H893.136ZM909.414 415V393.182H913.548V415H909.414ZM927.732 415.44C925.582 415.44 923.731 414.981 922.178 414.062C920.634 413.134 919.441 411.832 918.598 410.156C917.765 408.471 917.348 406.496 917.348 404.233C917.348 401.998 917.765 400.028 918.598 398.324C919.441 396.619 920.615 395.289 922.121 394.332C923.636 393.376 925.407 392.898 927.433 392.898C928.664 392.898 929.858 393.101 931.013 393.509C932.168 393.916 933.205 394.555 934.124 395.426C935.042 396.297 935.767 397.429 936.297 398.821C936.827 400.204 937.092 401.884 937.092 403.864V405.369H919.749V402.188H932.931C932.931 401.07 932.703 400.08 932.249 399.219C931.794 398.348 931.155 397.661 930.331 397.159C929.517 396.657 928.56 396.406 927.462 396.406C926.269 396.406 925.227 396.7 924.337 397.287C923.456 397.865 922.774 398.622 922.291 399.56C921.818 400.488 921.581 401.496 921.581 402.585V405.071C921.581 406.529 921.837 407.77 922.348 408.793C922.869 409.815 923.593 410.597 924.521 411.136C925.449 411.667 926.534 411.932 927.774 411.932C928.579 411.932 929.313 411.818 929.976 411.591C930.639 411.354 931.212 411.004 931.695 410.54C932.178 410.076 932.547 409.503 932.803 408.821L936.823 409.545C936.501 410.729 935.923 411.766 935.09 412.656C934.266 413.537 933.229 414.223 931.979 414.716C930.738 415.199 929.323 415.44 927.732 415.44ZM955.712 402.259V405.938H943.894V402.259H955.712ZM945.087 393.182V415H940.925V393.182H945.087ZM958.68 393.182V415H954.533V393.182H958.68ZM960.776 396.847V393.182H979.185V396.847H972.069V415H967.921V396.847H960.776ZM988.131 415.483C986.749 415.483 985.499 415.227 984.381 414.716C983.264 414.195 982.379 413.442 981.725 412.457C981.081 411.473 980.759 410.265 980.759 408.835C980.759 407.604 980.996 406.591 981.469 405.795C981.943 405 982.582 404.37 983.387 403.906C984.192 403.442 985.092 403.092 986.086 402.855C987.08 402.618 988.094 402.438 989.126 402.315C990.433 402.164 991.493 402.041 992.308 401.946C993.122 401.842 993.714 401.676 994.083 401.449C994.452 401.222 994.637 400.852 994.637 400.341V400.241C994.637 399.001 994.287 398.04 993.586 397.358C992.895 396.676 991.862 396.335 990.489 396.335C989.059 396.335 987.933 396.652 987.109 397.287C986.294 397.912 985.731 398.608 985.418 399.375L981.427 398.466C981.9 397.14 982.592 396.07 983.501 395.256C984.419 394.432 985.475 393.835 986.668 393.466C987.862 393.087 989.116 392.898 990.433 392.898C991.304 392.898 992.227 393.002 993.202 393.21C994.187 393.409 995.106 393.778 995.958 394.318C996.82 394.858 997.525 395.63 998.075 396.634C998.624 397.628 998.898 398.92 998.898 400.511V415H994.751V412.017H994.58C994.306 412.566 993.894 413.106 993.344 413.636C992.795 414.167 992.09 414.607 991.228 414.957C990.366 415.308 989.334 415.483 988.131 415.483ZM989.055 412.074C990.229 412.074 991.233 411.842 992.066 411.378C992.909 410.914 993.548 410.308 993.984 409.56C994.429 408.802 994.651 407.992 994.651 407.131V404.318C994.5 404.47 994.206 404.612 993.771 404.744C993.344 404.867 992.857 404.976 992.308 405.071C991.758 405.156 991.223 405.237 990.702 405.312C990.182 405.379 989.746 405.436 989.396 405.483C988.572 405.587 987.819 405.762 987.137 406.009C986.465 406.255 985.925 406.61 985.518 407.074C985.12 407.528 984.921 408.134 984.921 408.892C984.921 409.943 985.309 410.739 986.086 411.278C986.862 411.809 987.852 412.074 989.055 412.074ZM1003.68 423.182V393.182H1007.82V396.719H1008.18C1008.42 396.264 1008.78 395.739 1009.24 395.142C1009.71 394.545 1010.35 394.025 1011.18 393.58C1012 393.125 1013.09 392.898 1014.44 392.898C1016.2 392.898 1017.78 393.343 1019.16 394.233C1020.54 395.123 1021.63 396.406 1022.41 398.082C1023.21 399.759 1023.6 401.776 1023.6 404.134C1023.6 406.491 1023.21 408.513 1022.43 410.199C1021.64 411.875 1020.56 413.168 1019.19 414.077C1017.81 414.976 1016.25 415.426 1014.49 415.426C1013.16 415.426 1012.08 415.204 1011.23 414.759C1010.4 414.313 1009.75 413.793 1009.27 413.196C1008.8 412.599 1008.43 412.069 1008.18 411.605H1007.92V423.182H1003.68ZM1007.84 404.091C1007.84 405.625 1008.06 406.97 1008.5 408.125C1008.95 409.28 1009.59 410.185 1010.44 410.838C1011.28 411.482 1012.31 411.804 1013.53 411.804C1014.8 411.804 1015.86 411.468 1016.72 410.795C1017.57 410.114 1018.21 409.19 1018.65 408.026C1019.09 406.861 1019.31 405.549 1019.31 404.091C1019.31 402.652 1019.1 401.359 1018.66 400.213C1018.24 399.067 1017.59 398.163 1016.73 397.5C1015.88 396.837 1014.81 396.506 1013.53 396.506C1012.3 396.506 1011.26 396.823 1010.41 397.457C1009.57 398.092 1008.93 398.977 1008.49 400.114C1008.06 401.25 1007.84 402.576 1007.84 404.091ZM1031.64 409.048L1041.26 393.182H1045.84V415H1041.67V399.119L1032.1 415H1027.48V393.182H1031.64V409.048ZM1054.83 409.048L1064.44 393.182H1069.02V415H1064.86V399.119L1055.28 415H1050.67V393.182H1054.83V409.048ZM1062.63 385.795H1066.12C1066.12 387.396 1065.55 388.698 1064.42 389.702C1063.29 390.696 1061.76 391.193 1059.84 391.193C1057.93 391.193 1056.41 390.696 1055.28 389.702C1054.15 388.698 1053.59 387.396 1053.59 385.795H1057.07C1057.07 386.506 1057.28 387.135 1057.7 387.685C1058.11 388.224 1058.83 388.494 1059.84 388.494C1060.84 388.494 1061.55 388.224 1061.97 387.685C1062.41 387.145 1062.63 386.515 1062.63 385.795ZM1109.16 400.455C1109.16 403.561 1108.6 406.231 1107.46 408.466C1106.32 410.691 1104.77 412.405 1102.79 413.608C1100.82 414.801 1098.58 415.398 1096.07 415.398C1093.55 415.398 1091.3 414.801 1089.32 413.608C1087.35 412.405 1085.8 410.687 1084.66 408.452C1083.53 406.217 1082.96 403.551 1082.96 400.455C1082.96 397.348 1083.53 394.683 1084.66 392.457C1085.8 390.223 1087.35 388.509 1089.32 387.315C1091.3 386.113 1093.55 385.511 1096.07 385.511C1098.58 385.511 1100.82 386.113 1102.79 387.315C1104.77 388.509 1106.32 390.223 1107.46 392.457C1108.6 394.683 1109.16 397.348 1109.16 400.455ZM1104.82 400.455C1104.82 398.087 1104.43 396.094 1103.67 394.474C1102.91 392.846 1101.87 391.615 1100.54 390.781C1099.23 389.938 1097.73 389.517 1096.07 389.517C1094.39 389.517 1092.9 389.938 1091.58 390.781C1090.26 391.615 1089.22 392.846 1088.45 394.474C1087.7 396.094 1087.32 398.087 1087.32 400.455C1087.32 402.822 1087.7 404.82 1088.45 406.449C1089.22 408.068 1090.26 409.299 1091.58 410.142C1092.9 410.975 1094.39 411.392 1096.07 411.392C1097.73 411.392 1099.23 410.975 1100.54 410.142C1101.87 409.299 1102.91 408.068 1103.67 406.449C1104.43 404.82 1104.82 402.822 1104.82 400.455ZM1111.7 415L1111.68 411.321H1112.46C1113.07 411.321 1113.58 411.193 1113.98 410.938C1114.4 410.672 1114.74 410.227 1115.01 409.602C1115.27 408.977 1115.48 408.116 1115.62 407.017C1115.76 405.909 1115.86 404.517 1115.93 402.841L1116.31 393.182H1131.54V415H1127.38V396.847H1120.25L1119.91 404.261C1119.82 406.061 1119.64 407.633 1119.35 408.977C1119.08 410.322 1118.68 411.444 1118.15 412.344C1117.62 413.234 1116.93 413.902 1116.1 414.347C1115.27 414.782 1114.25 415 1113.06 415H1111.7ZM1139.52 400.682H1145.86C1148.53 400.682 1150.58 401.345 1152.02 402.67C1153.46 403.996 1154.18 405.705 1154.18 407.798C1154.18 409.162 1153.86 410.388 1153.21 411.477C1152.57 412.566 1151.63 413.428 1150.39 414.062C1149.15 414.688 1147.64 415 1145.86 415H1136.33V393.182H1140.49V411.335H1145.86C1147.08 411.335 1148.08 411.018 1148.87 410.384C1149.65 409.74 1150.05 408.92 1150.05 407.926C1150.05 406.875 1149.65 406.018 1148.87 405.355C1148.08 404.683 1147.08 404.347 1145.86 404.347H1139.52V400.682ZM1172.01 393.182V396.847H1162.25V415H1158.06V393.182H1172.01ZM1179.78 409.048L1189.4 393.182H1193.97V415H1189.81V399.119L1180.24 415H1175.62V393.182H1179.78V409.048Z" fill="black" fill-opacity="0.8"/>
    <path d="M931.792 236.61C931.329 235.607 930.141 235.169 929.138 235.632C928.135 236.095 927.697 237.283 928.16 238.286L929.976 237.448L931.792 236.61ZM983.123 355.975C984.16 356.357 985.31 355.826 985.691 354.79L991.914 337.9C992.296 336.863 991.765 335.713 990.729 335.331C989.692 334.95 988.543 335.48 988.161 336.517L982.629 351.53L967.616 345.999C966.58 345.617 965.43 346.148 965.048 347.184C964.666 348.221 965.197 349.37 966.233 349.752L983.123 355.975ZM929.976 237.448L928.16 238.286L981.999 354.936L983.815 354.098L985.631 353.26L931.792 236.61L929.976 237.448Z" fill="#757575"/>
</svg>
