<svg width="1511" height="312" viewBox="0 0 1511 312" fill="none" xmlns="http://www.w3.org/2000/svg">
    <rect width="1511" height="312" fill="white"/>
    <rect x="222" y="128" width="1280" height="88" rx="6" fill="#FFC943" stroke="#757575" stroke-width="4" stroke-linecap="round"/>
    <rect x="222" y="128" width="320" height="88" rx="6" fill="#FFC943" stroke="#757575" stroke-width="4" stroke-linecap="round"/>
    <path d="M339.563 187V157.909H357.702V161.688H343.952V169.642H350.458C352.617 169.642 354.449 169.992 355.955 170.693C357.47 171.394 358.625 172.384 359.421 173.662C360.226 174.94 360.628 176.446 360.628 178.179C360.628 179.912 360.226 181.441 359.421 182.767C358.625 184.093 357.47 185.13 355.955 185.878C354.449 186.626 352.617 187 350.458 187H339.563ZM343.952 183.307H350.458C351.708 183.307 352.764 183.061 353.625 182.568C354.497 182.076 355.155 181.437 355.6 180.651C356.054 179.865 356.282 179.022 356.282 178.122C356.282 176.815 355.78 175.693 354.776 174.756C353.772 173.809 352.333 173.335 350.458 173.335H343.952V183.307ZM364.592 195.182V165.182H368.74V168.719H369.095C369.341 168.264 369.696 167.739 370.16 167.142C370.624 166.545 371.268 166.025 372.092 165.58C372.916 165.125 374.005 164.898 375.359 164.898C377.12 164.898 378.692 165.343 380.075 166.233C381.458 167.123 382.542 168.406 383.328 170.082C384.123 171.759 384.521 173.776 384.521 176.134C384.521 178.491 384.128 180.513 383.342 182.199C382.556 183.875 381.476 185.168 380.103 186.077C378.73 186.976 377.163 187.426 375.402 187.426C374.076 187.426 372.992 187.204 372.149 186.759C371.315 186.313 370.662 185.793 370.189 185.196C369.715 184.599 369.351 184.069 369.095 183.605H368.839V195.182H364.592ZM368.754 176.091C368.754 177.625 368.976 178.97 369.422 180.125C369.867 181.28 370.511 182.185 371.353 182.838C372.196 183.482 373.228 183.804 374.45 183.804C375.719 183.804 376.779 183.468 377.632 182.795C378.484 182.114 379.128 181.19 379.564 180.026C380.009 178.861 380.231 177.549 380.231 176.091C380.231 174.652 380.013 173.359 379.578 172.213C379.152 171.067 378.508 170.163 377.646 169.5C376.794 168.837 375.728 168.506 374.45 168.506C373.219 168.506 372.177 168.823 371.325 169.457C370.482 170.092 369.843 170.977 369.407 172.114C368.972 173.25 368.754 174.576 368.754 176.091ZM394.749 187.483C393.366 187.483 392.116 187.227 390.999 186.716C389.881 186.195 388.996 185.442 388.343 184.457C387.699 183.473 387.377 182.265 387.377 180.835C387.377 179.604 387.614 178.591 388.087 177.795C388.56 177 389.2 176.37 390.005 175.906C390.81 175.442 391.709 175.092 392.703 174.855C393.698 174.618 394.711 174.438 395.743 174.315C397.05 174.164 398.111 174.041 398.925 173.946C399.739 173.842 400.331 173.676 400.701 173.449C401.07 173.222 401.255 172.852 401.255 172.341V172.241C401.255 171.001 400.904 170.04 400.203 169.358C399.512 168.676 398.48 168.335 397.107 168.335C395.677 168.335 394.55 168.652 393.726 169.287C392.912 169.912 392.348 170.608 392.036 171.375L388.044 170.466C388.518 169.14 389.209 168.07 390.118 167.256C391.037 166.432 392.093 165.835 393.286 165.466C394.479 165.087 395.734 164.898 397.05 164.898C397.921 164.898 398.845 165.002 399.82 165.21C400.805 165.409 401.723 165.778 402.576 166.318C403.437 166.858 404.143 167.63 404.692 168.634C405.241 169.628 405.516 170.92 405.516 172.511V187H401.368V184.017H401.198C400.923 184.566 400.511 185.106 399.962 185.636C399.413 186.167 398.707 186.607 397.846 186.957C396.984 187.308 395.952 187.483 394.749 187.483ZM395.672 184.074C396.846 184.074 397.85 183.842 398.684 183.378C399.526 182.914 400.166 182.308 400.601 181.56C401.046 180.802 401.269 179.992 401.269 179.131V176.318C401.117 176.47 400.824 176.612 400.388 176.744C399.962 176.867 399.474 176.976 398.925 177.071C398.376 177.156 397.841 177.237 397.32 177.312C396.799 177.379 396.364 177.436 396.013 177.483C395.189 177.587 394.436 177.762 393.755 178.009C393.082 178.255 392.542 178.61 392.135 179.074C391.738 179.528 391.539 180.134 391.539 180.892C391.539 181.943 391.927 182.739 392.703 183.278C393.48 183.809 394.47 184.074 395.672 184.074ZM407.587 168.847V165.182H425.996V168.847H418.88V187H414.732V168.847H407.587Z" fill="black" fill-opacity="0.8"/>
    <rect x="542" y="128" width="320" height="88" rx="6" fill="#FFC943" stroke="#757575" stroke-width="4" stroke-linecap="round"/>
    <path d="M568.981 157.909H573.328V179.273H573.598L588.399 157.909H592.461V187H588.072V165.665H587.802L573.03 187H568.981V157.909ZM612.43 174.259V177.938H600.612V174.259H612.43ZM601.805 165.182V187H597.643V165.182H601.805ZM615.399 165.182V187H611.251V165.182H615.399ZM617.495 168.847V165.182H635.904V168.847H628.787V187H624.64V168.847H617.495ZM647.904 187.44C645.754 187.44 643.903 186.981 642.35 186.062C640.806 185.134 639.613 183.832 638.77 182.156C637.937 180.471 637.52 178.496 637.52 176.233C637.52 173.998 637.937 172.028 638.77 170.324C639.613 168.619 640.787 167.289 642.293 166.332C643.808 165.376 645.579 164.898 647.606 164.898C648.837 164.898 650.03 165.101 651.185 165.509C652.34 165.916 653.377 166.555 654.296 167.426C655.214 168.297 655.939 169.429 656.469 170.821C656.999 172.204 657.265 173.884 657.265 175.864V177.369H639.921V174.188H653.103C653.103 173.07 652.875 172.08 652.421 171.219C651.966 170.348 651.327 169.661 650.503 169.159C649.689 168.657 648.732 168.406 647.634 168.406C646.441 168.406 645.399 168.7 644.509 169.287C643.628 169.865 642.946 170.622 642.463 171.56C641.99 172.488 641.753 173.496 641.753 174.585V177.071C641.753 178.529 642.009 179.77 642.52 180.793C643.041 181.815 643.766 182.597 644.694 183.136C645.622 183.667 646.706 183.932 647.946 183.932C648.751 183.932 649.485 183.818 650.148 183.591C650.811 183.354 651.384 183.004 651.867 182.54C652.35 182.076 652.719 181.503 652.975 180.821L656.995 181.545C656.673 182.729 656.095 183.766 655.262 184.656C654.438 185.537 653.401 186.223 652.151 186.716C650.91 187.199 649.495 187.44 647.904 187.44ZM661.097 195.182V165.182H665.245V168.719H665.6C665.846 168.264 666.201 167.739 666.665 167.142C667.129 166.545 667.773 166.025 668.597 165.58C669.421 165.125 670.51 164.898 671.864 164.898C673.625 164.898 675.197 165.343 676.58 166.233C677.963 167.123 679.047 168.406 679.833 170.082C680.628 171.759 681.026 173.776 681.026 176.134C681.026 178.491 680.633 180.513 679.847 182.199C679.061 183.875 677.981 185.168 676.608 186.077C675.235 186.976 673.668 187.426 671.907 187.426C670.581 187.426 669.497 187.204 668.654 186.759C667.82 186.313 667.167 185.793 666.694 185.196C666.22 184.599 665.856 184.069 665.6 183.605H665.344V195.182H661.097ZM665.259 176.091C665.259 177.625 665.481 178.97 665.927 180.125C666.372 181.28 667.016 182.185 667.858 182.838C668.701 183.482 669.733 183.804 670.955 183.804C672.224 183.804 673.284 183.468 674.137 182.795C674.989 182.114 675.633 181.19 676.069 180.026C676.514 178.861 676.736 177.549 676.736 176.091C676.736 174.652 676.518 173.359 676.083 172.213C675.657 171.067 675.013 170.163 674.151 169.5C673.299 168.837 672.233 168.506 670.955 168.506C669.724 168.506 668.682 168.823 667.83 169.457C666.987 170.092 666.348 170.977 665.912 172.114C665.477 173.25 665.259 174.576 665.259 176.091ZM694.095 187.44C691.983 187.44 690.165 186.962 688.64 186.006C687.125 185.04 685.96 183.709 685.146 182.014C684.332 180.319 683.924 178.378 683.924 176.19C683.924 173.974 684.341 172.019 685.174 170.324C686.008 168.619 687.182 167.289 688.697 166.332C690.212 165.376 691.997 164.898 694.052 164.898C695.709 164.898 697.187 165.205 698.484 165.821C699.781 166.427 700.828 167.279 701.623 168.378C702.428 169.476 702.906 170.759 703.058 172.227H698.924C698.697 171.205 698.176 170.324 697.362 169.585C696.557 168.847 695.477 168.477 694.123 168.477C692.94 168.477 691.903 168.79 691.012 169.415C690.132 170.03 689.445 170.911 688.953 172.057C688.46 173.193 688.214 174.538 688.214 176.091C688.214 177.682 688.456 179.055 688.939 180.21C689.422 181.366 690.103 182.26 690.984 182.895C691.874 183.529 692.921 183.847 694.123 183.847C694.928 183.847 695.657 183.7 696.311 183.406C696.974 183.103 697.528 182.672 697.973 182.114C698.427 181.555 698.744 180.883 698.924 180.097H703.058C702.906 181.508 702.447 182.767 701.68 183.875C700.913 184.983 699.886 185.854 698.598 186.489C697.319 187.123 695.818 187.44 694.095 187.44ZM705.069 168.847V165.182H723.478V168.847H716.361V187H712.213V168.847H705.069ZM735.478 187.44C733.328 187.44 731.477 186.981 729.924 186.062C728.38 185.134 727.187 183.832 726.344 182.156C725.511 180.471 725.094 178.496 725.094 176.233C725.094 173.998 725.511 172.028 726.344 170.324C727.187 168.619 728.361 167.289 729.867 166.332C731.382 165.376 733.153 164.898 735.179 164.898C736.41 164.898 737.604 165.101 738.759 165.509C739.914 165.916 740.951 166.555 741.87 167.426C742.788 168.297 743.513 169.429 744.043 170.821C744.573 172.204 744.838 173.884 744.838 175.864V177.369H727.495V174.188H740.676C740.676 173.07 740.449 172.08 739.995 171.219C739.54 170.348 738.901 169.661 738.077 169.159C737.263 168.657 736.306 168.406 735.208 168.406C734.015 168.406 732.973 168.7 732.083 169.287C731.202 169.865 730.52 170.622 730.037 171.56C729.564 172.488 729.327 173.496 729.327 174.585V177.071C729.327 178.529 729.583 179.77 730.094 180.793C730.615 181.815 731.339 182.597 732.267 183.136C733.195 183.667 734.28 183.932 735.52 183.932C736.325 183.932 737.059 183.818 737.722 183.591C738.385 183.354 738.958 183.004 739.441 182.54C739.924 182.076 740.293 181.503 740.549 180.821L744.568 181.545C744.247 182.729 743.669 183.766 742.836 184.656C742.012 185.537 740.975 186.223 739.725 186.716C738.484 187.199 737.068 187.44 735.478 187.44ZM746.952 187L746.938 183.321H747.719C748.325 183.321 748.832 183.193 749.239 182.938C749.656 182.672 749.996 182.227 750.262 181.602C750.527 180.977 750.73 180.116 750.872 179.017C751.014 177.909 751.119 176.517 751.185 174.841L751.568 165.182H766.796V187H762.634V168.847H755.503L755.162 176.261C755.077 178.061 754.892 179.633 754.608 180.977C754.334 182.322 753.931 183.444 753.401 184.344C752.871 185.234 752.189 185.902 751.355 186.347C750.522 186.782 749.509 187 748.316 187H746.952ZM769.861 187L769.847 183.321H770.628C771.234 183.321 771.741 183.193 772.148 182.938C772.565 182.672 772.906 182.227 773.171 181.602C773.436 180.977 773.639 180.116 773.782 179.017C773.924 177.909 774.028 176.517 774.094 174.841L774.478 165.182H789.705V187H785.543V168.847H778.412L778.071 176.261C777.986 178.061 777.801 179.633 777.517 180.977C777.243 182.322 776.84 183.444 776.31 184.344C775.78 185.234 775.098 185.902 774.264 186.347C773.431 186.782 772.418 187 771.225 187H769.861ZM800.838 187.483C799.456 187.483 798.206 187.227 797.088 186.716C795.971 186.195 795.085 185.442 794.432 184.457C793.788 183.473 793.466 182.265 793.466 180.835C793.466 179.604 793.703 178.591 794.176 177.795C794.65 177 795.289 176.37 796.094 175.906C796.899 175.442 797.799 175.092 798.793 174.855C799.787 174.618 800.8 174.438 801.833 174.315C803.139 174.164 804.2 174.041 805.014 173.946C805.829 173.842 806.421 173.676 806.79 173.449C807.159 173.222 807.344 172.852 807.344 172.341V172.241C807.344 171.001 806.994 170.04 806.293 169.358C805.602 168.676 804.569 168.335 803.196 168.335C801.766 168.335 800.639 168.652 799.816 169.287C799.001 169.912 798.438 170.608 798.125 171.375L794.134 170.466C794.607 169.14 795.299 168.07 796.208 167.256C797.126 166.432 798.182 165.835 799.375 165.466C800.568 165.087 801.823 164.898 803.139 164.898C804.011 164.898 804.934 165.002 805.909 165.21C806.894 165.409 807.813 165.778 808.665 166.318C809.527 166.858 810.232 167.63 810.781 168.634C811.331 169.628 811.605 170.92 811.605 172.511V187H807.458V184.017H807.287C807.013 184.566 806.601 185.106 806.051 185.636C805.502 186.167 804.797 186.607 803.935 186.957C803.073 187.308 802.041 187.483 800.838 187.483ZM801.762 184.074C802.936 184.074 803.94 183.842 804.773 183.378C805.616 182.914 806.255 182.308 806.691 181.56C807.136 180.802 807.358 179.992 807.358 179.131V176.318C807.207 176.47 806.913 176.612 806.477 176.744C806.051 176.867 805.564 176.976 805.014 177.071C804.465 177.156 803.93 177.237 803.409 177.312C802.888 177.379 802.453 177.436 802.102 177.483C801.279 177.587 800.526 177.762 799.844 178.009C799.172 178.255 798.632 178.61 798.225 179.074C797.827 179.528 797.628 180.134 797.628 180.892C797.628 181.943 798.016 182.739 798.793 183.278C799.569 183.809 800.559 184.074 801.762 184.074ZM816.382 195.182V165.182H820.53V168.719H820.885C821.131 168.264 821.486 167.739 821.95 167.142C822.415 166.545 823.058 166.025 823.882 165.58C824.706 165.125 825.795 164.898 827.149 164.898C828.911 164.898 830.483 165.343 831.865 166.233C833.248 167.123 834.332 168.406 835.118 170.082C835.914 171.759 836.311 173.776 836.311 176.134C836.311 178.491 835.918 180.513 835.132 182.199C834.346 183.875 833.267 185.168 831.894 186.077C830.521 186.976 828.953 187.426 827.192 187.426C825.866 187.426 824.782 187.204 823.939 186.759C823.106 186.313 822.452 185.793 821.979 185.196C821.505 184.599 821.141 184.069 820.885 183.605H820.629V195.182H816.382ZM820.544 176.091C820.544 177.625 820.767 178.97 821.212 180.125C821.657 181.28 822.301 182.185 823.144 182.838C823.986 183.482 825.019 183.804 826.24 183.804C827.509 183.804 828.57 183.468 829.422 182.795C830.274 182.114 830.918 181.19 831.354 180.026C831.799 178.861 832.022 177.549 832.022 176.091C832.022 174.652 831.804 173.359 831.368 172.213C830.942 171.067 830.298 170.163 829.436 169.5C828.584 168.837 827.519 168.506 826.24 168.506C825.009 168.506 823.968 168.823 823.115 169.457C822.272 170.092 821.633 170.977 821.198 172.114C820.762 173.25 820.544 174.576 820.544 176.091Z" fill="black" fill-opacity="0.8"/>
    <rect x="862" y="128" width="320" height="88" rx="6" fill="#FFC943" stroke="#757575" stroke-width="4" stroke-linecap="round"/>
    <path d="M886.453 187V157.909H897.106C899.17 157.909 900.88 158.25 902.234 158.932C903.588 159.604 904.601 160.518 905.274 161.673C905.946 162.819 906.282 164.112 906.282 165.551C906.282 166.763 906.06 167.786 905.615 168.619C905.169 169.443 904.573 170.106 903.825 170.608C903.086 171.1 902.272 171.46 901.382 171.688V171.972C902.347 172.019 903.29 172.331 904.208 172.909C905.136 173.477 905.903 174.287 906.509 175.338C907.115 176.389 907.418 177.668 907.418 179.173C907.418 180.66 907.068 181.995 906.367 183.179C905.676 184.353 904.606 185.286 903.157 185.977C901.708 186.659 899.857 187 897.603 187H886.453ZM890.842 183.236H897.177C899.279 183.236 900.785 182.829 901.694 182.014C902.603 181.2 903.058 180.182 903.058 178.96C903.058 178.042 902.826 177.199 902.362 176.432C901.898 175.665 901.235 175.054 900.373 174.599C899.521 174.145 898.508 173.918 897.333 173.918H890.842V183.236ZM890.842 170.494H896.722C897.707 170.494 898.593 170.305 899.379 169.926C900.174 169.547 900.804 169.017 901.268 168.335C901.741 167.644 901.978 166.83 901.978 165.892C901.978 164.689 901.557 163.681 900.714 162.866C899.871 162.052 898.579 161.645 896.836 161.645H890.842V170.494ZM920.594 187.44C918.548 187.44 916.763 186.972 915.239 186.034C913.714 185.097 912.53 183.785 911.688 182.099C910.845 180.414 910.423 178.444 910.423 176.19C910.423 173.927 910.845 171.948 911.688 170.253C912.53 168.558 913.714 167.241 915.239 166.304C916.763 165.366 918.548 164.898 920.594 164.898C922.639 164.898 924.424 165.366 925.949 166.304C927.474 167.241 928.657 168.558 929.5 170.253C930.343 171.948 930.764 173.927 930.764 176.19C930.764 178.444 930.343 180.414 929.5 182.099C928.657 183.785 927.474 185.097 925.949 186.034C924.424 186.972 922.639 187.44 920.594 187.44ZM920.608 183.875C921.934 183.875 923.032 183.525 923.904 182.824C924.775 182.123 925.419 181.19 925.835 180.026C926.262 178.861 926.475 177.578 926.475 176.176C926.475 174.784 926.262 173.506 925.835 172.341C925.419 171.167 924.775 170.224 923.904 169.514C923.032 168.804 921.934 168.449 920.608 168.449C919.273 168.449 918.165 168.804 917.284 169.514C916.413 170.224 915.764 171.167 915.338 172.341C914.922 173.506 914.713 174.784 914.713 176.176C914.713 177.578 914.922 178.861 915.338 180.026C915.764 181.19 916.413 182.123 917.284 182.824C918.165 183.525 919.273 183.875 920.608 183.875ZM944.331 187V165.182H953.379C955.841 165.182 957.792 165.707 959.232 166.759C960.671 167.8 961.391 169.216 961.391 171.006C961.391 172.284 960.984 173.297 960.169 174.045C959.355 174.794 958.275 175.295 956.93 175.551C957.906 175.665 958.801 175.958 959.615 176.432C960.43 176.896 961.083 177.521 961.575 178.307C962.077 179.093 962.328 180.03 962.328 181.119C962.328 182.275 962.03 183.297 961.433 184.188C960.837 185.068 959.97 185.759 958.834 186.261C957.707 186.754 956.348 187 954.757 187H944.331ZM948.323 183.449H954.757C955.808 183.449 956.632 183.198 957.229 182.696C957.825 182.194 958.124 181.512 958.124 180.651C958.124 179.637 957.825 178.842 957.229 178.264C956.632 177.677 955.808 177.384 954.757 177.384H948.323V183.449ZM948.323 174.273H953.422C954.217 174.273 954.899 174.159 955.467 173.932C956.045 173.705 956.485 173.383 956.788 172.966C957.101 172.54 957.257 172.038 957.257 171.46C957.257 170.617 956.912 169.959 956.22 169.486C955.529 169.012 954.582 168.776 953.379 168.776H948.323V174.273ZM975.298 187.44C973.186 187.44 971.368 186.962 969.843 186.006C968.328 185.04 967.163 183.709 966.349 182.014C965.534 180.319 965.127 178.378 965.127 176.19C965.127 173.974 965.544 172.019 966.377 170.324C967.211 168.619 968.385 167.289 969.9 166.332C971.415 165.376 973.2 164.898 975.255 164.898C976.912 164.898 978.39 165.205 979.687 165.821C980.984 166.427 982.031 167.279 982.826 168.378C983.631 169.476 984.109 170.759 984.261 172.227H980.127C979.9 171.205 979.379 170.324 978.565 169.585C977.76 168.847 976.68 168.477 975.326 168.477C974.142 168.477 973.105 168.79 972.215 169.415C971.335 170.03 970.648 170.911 970.156 172.057C969.663 173.193 969.417 174.538 969.417 176.091C969.417 177.682 969.658 179.055 970.141 180.21C970.624 181.366 971.306 182.26 972.187 182.895C973.077 183.529 974.123 183.847 975.326 183.847C976.131 183.847 976.86 183.7 977.514 183.406C978.176 183.103 978.73 182.672 979.175 182.114C979.63 181.555 979.947 180.883 980.127 180.097H984.261C984.109 181.508 983.65 182.767 982.883 183.875C982.116 184.983 981.088 185.854 979.8 186.489C978.522 187.123 977.021 187.44 975.298 187.44ZM997.326 187.44C995.176 187.44 993.325 186.981 991.772 186.062C990.228 185.134 989.035 183.832 988.192 182.156C987.359 180.471 986.942 178.496 986.942 176.233C986.942 173.998 987.359 172.028 988.192 170.324C989.035 168.619 990.21 167.289 991.715 166.332C993.23 165.376 995.001 164.898 997.028 164.898C998.259 164.898 999.452 165.101 1000.61 165.509C1001.76 165.916 1002.8 166.555 1003.72 167.426C1004.64 168.297 1005.36 169.429 1005.89 170.821C1006.42 172.204 1006.69 173.884 1006.69 175.864V177.369H989.343V174.188H1002.52C1002.52 173.07 1002.3 172.08 1001.84 171.219C1001.39 170.348 1000.75 169.661 999.925 169.159C999.111 168.657 998.155 168.406 997.056 168.406C995.863 168.406 994.821 168.7 993.931 169.287C993.05 169.865 992.369 170.622 991.886 171.56C991.412 172.488 991.175 173.496 991.175 174.585V177.071C991.175 178.529 991.431 179.77 991.942 180.793C992.463 181.815 993.188 182.597 994.116 183.136C995.044 183.667 996.128 183.932 997.369 183.932C998.174 183.932 998.907 183.818 999.57 183.591C1000.23 183.354 1000.81 183.004 1001.29 182.54C1001.77 182.076 1002.14 181.503 1002.4 180.821L1006.42 181.545C1006.09 182.729 1005.52 183.766 1004.68 184.656C1003.86 185.537 1002.82 186.223 1001.57 186.716C1000.33 187.199 998.917 187.44 997.326 187.44ZM1019 168.847V165.182H1037.41V168.847H1030.3V187H1026.15V168.847H1019ZM1054.04 187V168.804H1048.81C1047.57 168.804 1046.6 169.093 1045.91 169.67C1045.22 170.248 1044.87 171.006 1044.87 171.943C1044.87 172.871 1045.19 173.619 1045.83 174.188C1046.47 174.746 1047.37 175.026 1048.52 175.026H1055.27V178.463H1048.52C1046.91 178.463 1045.52 178.198 1044.35 177.668C1043.18 177.128 1042.28 176.366 1041.65 175.381C1041.02 174.396 1040.71 173.231 1040.71 171.886C1040.71 170.513 1041.03 169.33 1041.68 168.335C1042.33 167.331 1043.26 166.555 1044.48 166.006C1045.7 165.456 1047.14 165.182 1048.81 165.182H1058.03V187H1054.04ZM1039.72 187L1045.87 175.977H1050.22L1044.06 187H1039.72ZM1061.41 187L1069.86 175.835L1061.51 165.182H1066.45L1073.2 174.244H1074.72V165.182H1078.97V174.244H1080.44L1087.19 165.182H1092.13L1083.82 175.835L1092.23 187H1087.19L1080.39 177.909H1078.97V187H1074.72V177.909H1073.3L1066.45 187H1061.41ZM1095.67 187V165.182H1099.92V174.33H1101.96L1109.17 165.182H1114.42L1105.97 175.793L1114.52 187H1109.25L1102.67 178.278H1099.92V187H1095.67ZM1121.1 181.048L1130.72 165.182H1135.29V187H1131.13V171.119L1121.56 187H1116.94V165.182H1121.1V181.048ZM1149.53 187.44C1147.38 187.44 1145.52 186.981 1143.97 186.062C1142.43 185.134 1141.23 183.832 1140.39 182.156C1139.56 180.471 1139.14 178.496 1139.14 176.233C1139.14 173.998 1139.56 172.028 1140.39 170.324C1141.23 168.619 1142.41 167.289 1143.91 166.332C1145.43 165.376 1147.2 164.898 1149.23 164.898C1150.46 164.898 1151.65 165.101 1152.81 165.509C1153.96 165.916 1155 166.555 1155.92 167.426C1156.84 168.297 1157.56 169.429 1158.09 170.821C1158.62 172.204 1158.89 173.884 1158.89 175.864V177.369H1141.54V174.188H1154.72C1154.72 173.07 1154.5 172.08 1154.04 171.219C1153.59 170.348 1152.95 169.661 1152.12 169.159C1151.31 168.657 1150.35 168.406 1149.26 168.406C1148.06 168.406 1147.02 168.7 1146.13 169.287C1145.25 169.865 1144.57 170.622 1144.09 171.56C1143.61 172.488 1143.37 173.496 1143.37 174.585V177.071C1143.37 178.529 1143.63 179.77 1144.14 180.793C1144.66 181.815 1145.39 182.597 1146.32 183.136C1147.24 183.667 1148.33 183.932 1149.57 183.932C1150.37 183.932 1151.11 183.818 1151.77 183.591C1152.43 183.354 1153.01 183.004 1153.49 182.54C1153.97 182.076 1154.34 181.503 1154.6 180.821L1158.62 181.545C1158.29 182.729 1157.72 183.766 1156.88 184.656C1156.06 185.537 1155.02 186.223 1153.77 186.716C1152.53 187.199 1151.12 187.44 1149.53 187.44Z" fill="black" fill-opacity="0.8"/>
    <rect x="1182" y="128" width="320" height="88" rx="6" fill="#FFC943" stroke="#757575" stroke-width="4" stroke-linecap="round"/>
    <path d="M1276.78 157.909H1282.11L1291.37 180.523H1291.71L1300.97 157.909H1306.3V187H1302.12V165.949H1301.85L1293.27 186.957H1289.81L1281.23 165.935H1280.96V187H1276.78V157.909ZM1317.81 187.483C1316.42 187.483 1315.17 187.227 1314.06 186.716C1312.94 186.195 1312.05 185.442 1311.4 184.457C1310.76 183.473 1310.44 182.265 1310.44 180.835C1310.44 179.604 1310.67 178.591 1311.15 177.795C1311.62 177 1312.26 176.37 1313.06 175.906C1313.87 175.442 1314.77 175.092 1315.76 174.855C1316.76 174.618 1317.77 174.438 1318.8 174.315C1320.11 174.164 1321.17 174.041 1321.98 173.946C1322.8 173.842 1323.39 173.676 1323.76 173.449C1324.13 173.222 1324.31 172.852 1324.31 172.341V172.241C1324.31 171.001 1323.96 170.04 1323.26 169.358C1322.57 168.676 1321.54 168.335 1320.17 168.335C1318.74 168.335 1317.61 168.652 1316.78 169.287C1315.97 169.912 1315.41 170.608 1315.09 171.375L1311.1 170.466C1311.58 169.14 1312.27 168.07 1313.18 167.256C1314.1 166.432 1315.15 165.835 1316.34 165.466C1317.54 165.087 1318.79 164.898 1320.11 164.898C1320.98 164.898 1321.9 165.002 1322.88 165.21C1323.86 165.409 1324.78 165.778 1325.63 166.318C1326.5 166.858 1327.2 167.63 1327.75 168.634C1328.3 169.628 1328.57 170.92 1328.57 172.511V187H1324.43V184.017H1324.26C1323.98 184.566 1323.57 185.106 1323.02 185.636C1322.47 186.167 1321.77 186.607 1320.9 186.957C1320.04 187.308 1319.01 187.483 1317.81 187.483ZM1318.73 184.074C1319.9 184.074 1320.91 183.842 1321.74 183.378C1322.58 182.914 1323.22 182.308 1323.66 181.56C1324.1 180.802 1324.33 179.992 1324.33 179.131V176.318C1324.18 176.47 1323.88 176.612 1323.45 176.744C1323.02 176.867 1322.53 176.976 1321.98 177.071C1321.43 177.156 1320.9 177.237 1320.38 177.312C1319.86 177.379 1319.42 177.436 1319.07 177.483C1318.25 177.587 1317.49 177.762 1316.81 178.009C1316.14 178.255 1315.6 178.61 1315.19 179.074C1314.8 179.528 1314.6 180.134 1314.6 180.892C1314.6 181.943 1314.99 182.739 1315.76 183.278C1316.54 183.809 1317.53 184.074 1318.73 184.074ZM1331.96 187L1340.41 175.835L1332.06 165.182H1337L1343.75 174.244H1345.27V165.182H1349.52V174.244H1350.99L1357.74 165.182H1362.68L1354.37 175.835L1362.78 187H1357.74L1350.94 177.909H1349.52V187H1345.27V177.909H1343.85L1337 187H1331.96ZM1374.55 187.44C1372.51 187.44 1370.72 186.972 1369.2 186.034C1367.67 185.097 1366.49 183.785 1365.65 182.099C1364.8 180.414 1364.38 178.444 1364.38 176.19C1364.38 173.927 1364.8 171.948 1365.65 170.253C1366.49 168.558 1367.67 167.241 1369.2 166.304C1370.72 165.366 1372.51 164.898 1374.55 164.898C1376.6 164.898 1378.38 165.366 1379.91 166.304C1381.43 167.241 1382.62 168.558 1383.46 170.253C1384.3 171.948 1384.72 173.927 1384.72 176.19C1384.72 178.444 1384.3 180.414 1383.46 182.099C1382.62 183.785 1381.43 185.097 1379.91 186.034C1378.38 186.972 1376.6 187.44 1374.55 187.44ZM1374.57 183.875C1375.89 183.875 1376.99 183.525 1377.86 182.824C1378.73 182.123 1379.38 181.19 1379.79 180.026C1380.22 178.861 1380.43 177.578 1380.43 176.176C1380.43 174.784 1380.22 173.506 1379.79 172.341C1379.38 171.167 1378.73 170.224 1377.86 169.514C1376.99 168.804 1375.89 168.449 1374.57 168.449C1373.23 168.449 1372.12 168.804 1371.24 169.514C1370.37 170.224 1369.72 171.167 1369.3 172.341C1368.88 173.506 1368.67 174.784 1368.67 176.176C1368.67 177.578 1368.88 178.861 1369.3 180.026C1369.72 181.19 1370.37 182.123 1371.24 182.824C1372.12 183.525 1373.23 183.875 1374.57 183.875ZM1388.58 195.182V165.182H1392.73V168.719H1393.09C1393.33 168.264 1393.69 167.739 1394.15 167.142C1394.62 166.545 1395.26 166.025 1396.08 165.58C1396.91 165.125 1398 164.898 1399.35 164.898C1401.11 164.898 1402.68 165.343 1404.07 166.233C1405.45 167.123 1406.53 168.406 1407.32 170.082C1408.11 171.759 1408.51 173.776 1408.51 176.134C1408.51 178.491 1408.12 180.513 1407.33 182.199C1406.55 183.875 1405.47 185.168 1404.09 186.077C1402.72 186.976 1401.15 187.426 1399.39 187.426C1398.07 187.426 1396.98 187.204 1396.14 186.759C1395.31 186.313 1394.65 185.793 1394.18 185.196C1393.71 184.599 1393.34 184.069 1393.09 183.605H1392.83V195.182H1388.58ZM1392.75 176.091C1392.75 177.625 1392.97 178.97 1393.41 180.125C1393.86 181.28 1394.5 182.185 1395.34 182.838C1396.19 183.482 1397.22 183.804 1398.44 183.804C1399.71 183.804 1400.77 183.468 1401.62 182.795C1402.48 182.114 1403.12 181.19 1403.55 180.026C1404 178.861 1404.22 177.549 1404.22 176.091C1404.22 174.652 1404 173.359 1403.57 172.213C1403.14 171.067 1402.5 170.163 1401.64 169.5C1400.79 168.837 1399.72 168.506 1398.44 168.506C1397.21 168.506 1396.17 168.823 1395.32 169.457C1394.47 170.092 1393.83 170.977 1393.4 172.114C1392.96 173.25 1392.75 174.576 1392.75 176.091Z" fill="black" fill-opacity="0.8"/>
    <rect x="222" y="16" width="1280" height="88" rx="6" fill="#FFC943" stroke="#757575" stroke-width="4" stroke-linecap="round"/>
    <rect x="222" y="16" width="320" height="88" rx="6" fill="white" stroke="#757575" stroke-width="4" stroke-linecap="round"/>
    <path d="M382.016 75.483C379.772 75.4735 377.854 74.8816 376.263 73.7074C374.672 72.5331 373.455 70.8239 372.613 68.5795C371.77 66.3352 371.348 63.6316 371.348 60.4688C371.348 57.3153 371.77 54.6212 372.613 52.3864C373.465 50.1515 374.686 48.447 376.277 47.2727C377.878 46.0985 379.791 45.5114 382.016 45.5114C384.241 45.5114 386.15 46.1032 387.74 47.2869C389.331 48.4612 390.548 50.1657 391.391 52.4006C392.243 54.6259 392.669 57.3153 392.669 60.4688C392.669 63.6411 392.248 66.3494 391.405 68.5938C390.562 70.8286 389.346 72.5379 387.755 73.7216C386.164 74.8958 384.251 75.483 382.016 75.483ZM382.016 71.6903C383.986 71.6903 385.525 70.7292 386.632 68.8068C387.75 66.8845 388.309 64.1051 388.309 60.4688C388.309 58.054 388.053 56.0133 387.542 54.3466C387.04 52.6705 386.315 51.4015 385.368 50.5398C384.431 49.6686 383.313 49.233 382.016 49.233C380.056 49.233 378.517 50.1989 377.4 52.1307C376.282 54.0625 375.719 56.8419 375.709 60.4688C375.709 62.893 375.96 64.9432 376.462 66.6193C376.973 68.286 377.698 69.5502 378.635 70.4119C379.573 71.2642 380.7 71.6903 382.016 71.6903Z" fill="black" fill-opacity="0.8"/>
    <rect x="542" y="16" width="320" height="88" rx="6" fill="white" stroke="#757575" stroke-width="4" stroke-linecap="round"/>
    <path d="M706.382 45.9091V75H701.979V50.3125H701.808L694.848 54.858V50.6534L702.107 45.9091H706.382Z" fill="black" fill-opacity="0.8"/>
    <rect x="862" y="16" width="320" height="88" rx="6" fill="white" stroke="#757575" stroke-width="4" stroke-linecap="round"/>
    <path d="M1012.53 75V71.8182L1022.38 61.6193C1023.43 60.5114 1024.29 59.5407 1024.98 58.7074C1025.67 57.8646 1026.18 57.0644 1026.52 56.3068C1026.87 55.5492 1027.04 54.7443 1027.04 53.892C1027.04 52.9261 1026.81 52.0928 1026.35 51.392C1025.9 50.6818 1025.28 50.1373 1024.49 49.7585C1023.71 49.3703 1022.82 49.1761 1021.84 49.1761C1020.79 49.1761 1019.89 49.3892 1019.11 49.8153C1018.33 50.2415 1017.74 50.8428 1017.32 51.6193C1016.9 52.3958 1016.69 53.3049 1016.69 54.3466H1012.5C1012.5 52.5758 1012.91 51.0275 1013.73 49.7017C1014.54 48.3759 1015.66 47.3485 1017.08 46.6193C1018.5 45.8807 1020.11 45.5114 1021.92 45.5114C1023.75 45.5114 1025.36 45.8759 1026.75 46.6051C1028.15 47.3248 1029.25 48.3097 1030.03 49.5597C1030.82 50.8002 1031.21 52.2017 1031.21 53.7642C1031.21 54.8438 1031.01 55.8996 1030.6 56.9318C1030.2 57.964 1029.51 59.1146 1028.51 60.3835C1027.52 61.643 1026.14 63.1723 1024.37 64.9716L1018.58 71.0227V71.2358H1031.68V75H1012.53Z" fill="black" fill-opacity="0.8"/>
    <rect x="1182" y="16" width="320" height="88" rx="6" fill="white" stroke="#757575" stroke-width="4" stroke-linecap="round"/>
    <path d="M1342.04 75.3977C1340.08 75.3977 1338.34 75.0616 1336.81 74.3892C1335.28 73.7169 1334.08 72.7841 1333.19 71.5909C1332.31 70.3883 1331.83 68.9962 1331.77 67.4148H1336.23C1336.28 68.2765 1336.57 69.0246 1337.09 69.6591C1337.62 70.2841 1338.31 70.767 1339.17 71.108C1340.02 71.4489 1340.97 71.6193 1342.01 71.6193C1343.15 71.6193 1344.17 71.4205 1345.05 71.0227C1345.94 70.625 1346.63 70.071 1347.13 69.3608C1347.64 68.6411 1347.89 67.8125 1347.89 66.875C1347.89 65.8996 1347.64 65.0426 1347.13 64.304C1346.64 63.5559 1345.92 62.9687 1344.96 62.5426C1344.01 62.1165 1342.87 61.9034 1341.52 61.9034H1339.07V58.3239H1341.52C1342.6 58.3239 1343.55 58.1297 1344.37 57.7415C1345.19 57.3532 1345.83 56.8134 1346.3 56.1222C1346.76 55.4214 1346.99 54.6023 1346.99 53.6648C1346.99 52.7652 1346.79 51.9839 1346.38 51.321C1345.98 50.6487 1345.42 50.1231 1344.68 49.7443C1343.95 49.3655 1343.09 49.1761 1342.09 49.1761C1341.15 49.1761 1340.26 49.3513 1339.44 49.7017C1338.62 50.0426 1337.96 50.535 1337.45 51.179C1336.94 51.8134 1336.66 52.5758 1336.62 53.4659H1332.38C1332.42 51.8939 1332.89 50.5114 1333.77 49.3182C1334.66 48.125 1335.83 47.1922 1337.29 46.5199C1338.75 45.8475 1340.37 45.5114 1342.15 45.5114C1344.01 45.5114 1345.62 45.8759 1346.98 46.6051C1348.34 47.3248 1349.39 48.286 1350.13 49.4886C1350.88 50.6913 1351.25 52.0076 1351.24 53.4375C1351.25 55.0663 1350.79 56.4489 1349.88 57.5852C1348.97 58.7216 1347.76 59.4839 1346.24 59.8722V60.0994C1348.17 60.393 1349.67 61.16 1350.73 62.4006C1351.8 63.6411 1352.33 65.1799 1352.32 67.017C1352.33 68.6174 1351.88 70.0521 1350.98 71.321C1350.09 72.59 1348.88 73.589 1347.33 74.3182C1345.79 75.0379 1344.02 75.3977 1342.04 75.3977Z" fill="black" fill-opacity="0.8"/>
    <path d="M242 256.62C242 255.515 240.647 254.734 239.691 255.286L224.309 264.167C223.353 264.719 223.353 266.281 224.309 266.833L239.691 275.714C240.647 276.266 242 275.485 242 274.38V256.62ZM661.25 267.5C662.355 267.5 663.25 266.605 663.25 265.5C663.25 264.395 662.355 263.5 661.25 263.5V265.5V267.5ZM1062.75 263.5C1061.65 263.5 1060.75 264.395 1060.75 265.5C1060.75 266.605 1061.65 267.5 1062.75 267.5V265.5V263.5ZM1482 274.38C1482 275.485 1483.35 276.266 1484.31 275.714L1499.69 266.833C1500.65 266.281 1500.65 264.719 1499.69 264.167L1484.31 255.286C1483.35 254.734 1482 255.515 1482 256.62V274.38ZM240 265.5V267.5H661.25V265.5V263.5H240V265.5ZM1062.75 265.5V267.5H1484V265.5V263.5H1062.75V265.5Z" fill="#757575"/>
    <path d="M683.686 286.793V276.821H685.461C685.916 276.404 686.299 275.907 686.612 275.33C686.934 274.752 687.204 274.065 687.422 273.27C687.649 272.474 687.838 271.546 687.99 270.486C688.141 269.416 688.274 268.194 688.388 266.821L689.069 258.682H703.899V276.821H707.251V286.793H703.103V280.5H687.89V286.793H683.686ZM690.007 276.821H699.751V262.318H692.876L692.422 266.821C692.204 269.113 691.929 271.101 691.598 272.787C691.266 274.463 690.736 275.808 690.007 276.821ZM709.244 280.5L709.23 276.821H710.011C710.617 276.821 711.123 276.693 711.531 276.438C711.947 276.172 712.288 275.727 712.553 275.102C712.819 274.477 713.022 273.616 713.164 272.517C713.306 271.409 713.41 270.017 713.477 268.341L713.86 258.682H729.087V280.5H724.926V262.347H717.795L717.454 269.761C717.369 271.561 717.184 273.133 716.9 274.477C716.625 275.822 716.223 276.944 715.693 277.844C715.162 278.734 714.48 279.402 713.647 279.847C712.814 280.282 711.801 280.5 710.607 280.5H709.244ZM738.473 274.548L748.09 258.682H752.664V280.5H748.502V264.619L738.928 280.5H734.312V258.682H738.473V274.548ZM772.721 267.759V271.438H760.903V267.759H772.721ZM762.096 258.682V280.5H757.934V258.682H762.096ZM775.69 258.682V280.5H771.542V258.682H775.69ZM787.281 280.983C785.898 280.983 784.648 280.727 783.531 280.216C782.414 279.695 781.528 278.942 780.875 277.957C780.231 276.973 779.909 275.765 779.909 274.335C779.909 273.104 780.146 272.091 780.619 271.295C781.093 270.5 781.732 269.87 782.537 269.406C783.342 268.942 784.241 268.592 785.235 268.355C786.23 268.118 787.243 267.938 788.275 267.815C789.582 267.664 790.643 267.541 791.457 267.446C792.271 267.342 792.863 267.176 793.233 266.949C793.602 266.722 793.787 266.352 793.787 265.841V265.741C793.787 264.501 793.436 263.54 792.735 262.858C792.044 262.176 791.012 261.835 789.639 261.835C788.209 261.835 787.082 262.152 786.258 262.787C785.444 263.412 784.88 264.108 784.568 264.875L780.576 263.966C781.05 262.64 781.741 261.57 782.65 260.756C783.569 259.932 784.625 259.335 785.818 258.966C787.011 258.587 788.266 258.398 789.582 258.398C790.453 258.398 791.377 258.502 792.352 258.71C793.337 258.909 794.255 259.278 795.108 259.818C795.969 260.358 796.675 261.13 797.224 262.134C797.773 263.128 798.048 264.42 798.048 266.011V280.5H793.9V277.517H793.73C793.455 278.066 793.043 278.606 792.494 279.136C791.945 279.667 791.239 280.107 790.378 280.457C789.516 280.808 788.484 280.983 787.281 280.983ZM788.204 277.574C789.378 277.574 790.382 277.342 791.216 276.878C792.058 276.414 792.698 275.808 793.133 275.06C793.578 274.302 793.801 273.492 793.801 272.631V269.818C793.649 269.97 793.356 270.112 792.92 270.244C792.494 270.367 792.006 270.476 791.457 270.571C790.908 270.656 790.373 270.737 789.852 270.812C789.331 270.879 788.896 270.936 788.545 270.983C787.721 271.087 786.968 271.262 786.287 271.509C785.614 271.755 785.075 272.11 784.667 272.574C784.27 273.028 784.071 273.634 784.071 274.392C784.071 275.443 784.459 276.239 785.235 276.778C786.012 277.309 787.002 277.574 788.204 277.574ZM825.655 275.244L832.701 258.682H836.365L827.232 280.5H824.079L815.13 258.682H818.752L825.655 275.244ZM817.573 258.682V280.5H813.411V258.682H817.573ZM833.851 280.5V258.682H837.985V280.5H833.851ZM849.555 280.983C848.172 280.983 846.922 280.727 845.805 280.216C844.687 279.695 843.802 278.942 843.148 277.957C842.505 276.973 842.183 275.765 842.183 274.335C842.183 273.104 842.419 272.091 842.893 271.295C843.366 270.5 844.005 269.87 844.81 269.406C845.615 268.942 846.515 268.592 847.509 268.355C848.504 268.118 849.517 267.938 850.549 267.815C851.856 267.664 852.916 267.541 853.731 267.446C854.545 267.342 855.137 267.176 855.506 266.949C855.876 266.722 856.06 266.352 856.06 265.841V265.741C856.06 264.501 855.71 263.54 855.009 262.858C854.318 262.176 853.286 261.835 851.913 261.835C850.483 261.835 849.356 262.152 848.532 262.787C847.718 263.412 847.154 264.108 846.842 264.875L842.85 263.966C843.324 262.64 844.015 261.57 844.924 260.756C845.843 259.932 846.898 259.335 848.092 258.966C849.285 258.587 850.54 258.398 851.856 258.398C852.727 258.398 853.65 258.502 854.626 258.71C855.611 258.909 856.529 259.278 857.381 259.818C858.243 260.358 858.949 261.13 859.498 262.134C860.047 263.128 860.322 264.42 860.322 266.011V280.5H856.174V277.517H856.004C855.729 278.066 855.317 278.606 854.768 279.136C854.219 279.667 853.513 280.107 852.651 280.457C851.79 280.808 850.757 280.983 849.555 280.983ZM850.478 277.574C851.652 277.574 852.656 277.342 853.489 276.878C854.332 276.414 854.971 275.808 855.407 275.06C855.852 274.302 856.075 273.492 856.075 272.631V269.818C855.923 269.97 855.63 270.112 855.194 270.244C854.768 270.367 854.28 270.476 853.731 270.571C853.182 270.656 852.647 270.737 852.126 270.812C851.605 270.879 851.169 270.936 850.819 270.983C849.995 271.087 849.242 271.262 848.56 271.509C847.888 271.755 847.348 272.11 846.941 272.574C846.543 273.028 846.344 273.634 846.344 274.392C846.344 275.443 846.733 276.239 847.509 276.778C848.286 277.309 849.275 277.574 850.478 277.574ZM874.729 280.94C872.617 280.94 870.799 280.462 869.275 279.506C867.759 278.54 866.595 277.209 865.78 275.514C864.966 273.819 864.559 271.878 864.559 269.69C864.559 267.474 864.975 265.519 865.809 263.824C866.642 262.119 867.816 260.789 869.331 259.832C870.846 258.876 872.632 258.398 874.686 258.398C876.344 258.398 877.821 258.705 879.118 259.321C880.416 259.927 881.462 260.779 882.257 261.878C883.062 262.976 883.541 264.259 883.692 265.727H879.559C879.331 264.705 878.81 263.824 877.996 263.085C877.191 262.347 876.112 261.977 874.757 261.977C873.574 261.977 872.537 262.29 871.647 262.915C870.766 263.53 870.079 264.411 869.587 265.557C869.095 266.693 868.848 268.038 868.848 269.591C868.848 271.182 869.09 272.555 869.573 273.71C870.056 274.866 870.738 275.76 871.618 276.395C872.508 277.029 873.555 277.347 874.757 277.347C875.562 277.347 876.292 277.2 876.945 276.906C877.608 276.603 878.162 276.172 878.607 275.614C879.061 275.055 879.379 274.383 879.559 273.597H883.692C883.541 275.008 883.081 276.267 882.314 277.375C881.547 278.483 880.52 279.354 879.232 279.989C877.953 280.623 876.453 280.94 874.729 280.94ZM896.984 280.94C894.873 280.94 893.054 280.462 891.53 279.506C890.015 278.54 888.85 277.209 888.035 275.514C887.221 273.819 886.814 271.878 886.814 269.69C886.814 267.474 887.231 265.519 888.064 263.824C888.897 262.119 890.071 260.789 891.587 259.832C893.102 258.876 894.887 258.398 896.942 258.398C898.599 258.398 900.076 258.705 901.374 259.321C902.671 259.927 903.717 260.779 904.513 261.878C905.318 262.976 905.796 264.259 905.947 265.727H901.814C901.587 264.705 901.066 263.824 900.251 263.085C899.446 262.347 898.367 261.977 897.013 261.977C895.829 261.977 894.792 262.29 893.902 262.915C893.021 263.53 892.335 264.411 891.842 265.557C891.35 266.693 891.104 268.038 891.104 269.591C891.104 271.182 891.345 272.555 891.828 273.71C892.311 274.866 892.993 275.76 893.874 276.395C894.764 277.029 895.81 277.347 897.013 277.347C897.818 277.347 898.547 277.2 899.2 276.906C899.863 276.603 900.417 276.172 900.862 275.614C901.317 275.055 901.634 274.383 901.814 273.597H905.947C905.796 275.008 905.337 276.267 904.57 277.375C903.803 278.483 902.775 279.354 901.487 279.989C900.209 280.623 898.708 280.94 896.984 280.94ZM914.211 274.548L923.828 258.682H928.402V280.5H924.24V264.619L914.666 280.5H910.049V258.682H914.211V274.548ZM933.672 280.5V258.682H942.72C945.182 258.682 947.133 259.207 948.572 260.259C950.012 261.3 950.732 262.716 950.732 264.506C950.732 265.784 950.324 266.797 949.51 267.545C948.696 268.294 947.616 268.795 946.271 269.051C947.247 269.165 948.142 269.458 948.956 269.932C949.77 270.396 950.424 271.021 950.916 271.807C951.418 272.593 951.669 273.53 951.669 274.619C951.669 275.775 951.371 276.797 950.774 277.688C950.178 278.568 949.311 279.259 948.175 279.761C947.048 280.254 945.689 280.5 944.098 280.5H933.672ZM937.663 276.949H944.098C945.149 276.949 945.973 276.698 946.57 276.196C947.166 275.694 947.464 275.012 947.464 274.151C947.464 273.137 947.166 272.342 946.57 271.764C945.973 271.177 945.149 270.884 944.098 270.884H937.663V276.949ZM937.663 267.773H942.763C943.558 267.773 944.24 267.659 944.808 267.432C945.386 267.205 945.826 266.883 946.129 266.466C946.442 266.04 946.598 265.538 946.598 264.96C946.598 264.117 946.252 263.459 945.561 262.986C944.87 262.512 943.923 262.276 942.72 262.276H937.663V267.773ZM962.238 280.983C960.855 280.983 959.605 280.727 958.488 280.216C957.37 279.695 956.485 278.942 955.831 277.957C955.187 276.973 954.865 275.765 954.865 274.335C954.865 273.104 955.102 272.091 955.576 271.295C956.049 270.5 956.688 269.87 957.493 269.406C958.298 268.942 959.198 268.592 960.192 268.355C961.186 268.118 962.2 267.938 963.232 267.815C964.539 267.664 965.599 267.541 966.414 267.446C967.228 267.342 967.82 267.176 968.189 266.949C968.559 266.722 968.743 266.352 968.743 265.841V265.741C968.743 264.501 968.393 263.54 967.692 262.858C967.001 262.176 965.969 261.835 964.595 261.835C963.166 261.835 962.039 262.152 961.215 262.787C960.4 263.412 959.837 264.108 959.524 264.875L955.533 263.966C956.006 262.64 956.698 261.57 957.607 260.756C958.525 259.932 959.581 259.335 960.774 258.966C961.968 258.587 963.222 258.398 964.539 258.398C965.41 258.398 966.333 258.502 967.309 258.71C968.293 258.909 969.212 259.278 970.064 259.818C970.926 260.358 971.631 261.13 972.181 262.134C972.73 263.128 973.005 264.42 973.005 266.011V280.5H968.857V277.517H968.686C968.412 278.066 968 278.606 967.451 279.136C966.901 279.667 966.196 280.107 965.334 280.457C964.472 280.808 963.44 280.983 962.238 280.983ZM963.161 277.574C964.335 277.574 965.339 277.342 966.172 276.878C967.015 276.414 967.654 275.808 968.09 275.06C968.535 274.302 968.757 273.492 968.757 272.631V269.818C968.606 269.97 968.312 270.112 967.877 270.244C967.451 270.367 966.963 270.476 966.414 270.571C965.864 270.656 965.329 270.737 964.809 270.812C964.288 270.879 963.852 270.936 963.502 270.983C962.678 271.087 961.925 271.262 961.243 271.509C960.571 271.755 960.031 272.11 959.624 272.574C959.226 273.028 959.027 273.634 959.027 274.392C959.027 275.443 959.416 276.239 960.192 276.778C960.969 277.309 961.958 277.574 963.161 277.574ZM989.603 265.955C989.603 262.394 990.072 259.117 991.009 256.125C991.947 253.133 993.315 250.372 995.115 247.844H999.007C998.306 248.781 997.652 249.932 997.046 251.295C996.44 252.659 995.91 254.155 995.456 255.784C995.001 257.403 994.646 259.084 994.39 260.827C994.134 262.56 994.007 264.269 994.007 265.955C994.007 268.208 994.229 270.491 994.674 272.801C995.119 275.112 995.721 277.257 996.478 279.236C997.236 281.215 998.079 282.83 999.007 284.08H995.115C993.315 281.551 991.947 278.791 991.009 275.798C990.072 272.806 989.603 269.525 989.603 265.955ZM1002.38 274.818V271.267L1014.95 251.409H1017.75V256.636H1015.97L1006.98 270.869V271.097H1024.21V274.818H1002.38ZM1016.17 280.5V273.739L1016.2 272.119V251.409H1020.36V280.5H1016.17ZM1036.94 265.955C1036.94 269.525 1036.48 272.806 1035.54 275.798C1034.6 278.791 1033.23 281.551 1031.43 284.08H1027.54C1028.24 283.142 1028.89 281.991 1029.5 280.628C1030.11 279.264 1030.64 277.773 1031.09 276.153C1031.55 274.525 1031.9 272.839 1032.16 271.097C1032.41 269.354 1032.54 267.64 1032.54 265.955C1032.54 263.71 1032.32 261.433 1031.87 259.122C1031.43 256.812 1030.83 254.667 1030.07 252.688C1029.31 250.708 1028.47 249.094 1027.54 247.844H1031.43C1033.23 250.372 1034.6 253.133 1035.54 256.125C1036.48 259.117 1036.94 262.394 1036.94 265.955Z" fill="black" fill-opacity="0.8"/>
    <path d="M40.017 69.5028L49.6335 53.6363H54.2074V75.4545H50.0455V59.5738L40.4716 75.4545H35.8551V53.6363H40.017V69.5028ZM73.8245 62.7131V66.392H62.0064V62.7131H73.8245ZM63.1995 53.6363V75.4545H59.0376V53.6363H63.1995ZM76.7933 53.6363V75.4545H72.6456V53.6363H76.7933ZM79.4644 81.7471V71.7756H81.24C81.6945 71.3589 82.0781 70.8617 82.3906 70.2841C82.7125 69.7064 82.9824 69.0199 83.2002 68.2244C83.4275 67.429 83.6169 66.5009 83.7684 65.4403C83.9199 64.3702 84.0525 63.1487 84.1661 61.7756L84.848 53.6363H99.6775V71.7756H103.03V81.7471H98.882V75.4545H83.669V81.7471H79.4644ZM85.7855 71.7756H95.5298V57.2727H88.6548L88.2002 61.7756C87.9824 64.0672 87.7078 66.0559 87.3764 67.7415C87.0449 69.4176 86.5146 70.7623 85.7855 71.7756ZM115.704 75.8949C113.555 75.8949 111.704 75.4356 110.15 74.517C108.607 73.589 107.414 72.2869 106.571 70.6108C105.738 68.9252 105.321 66.9507 105.321 64.6875C105.321 62.4526 105.738 60.4829 106.571 58.7784C107.414 57.0738 108.588 55.7434 110.094 54.7869C111.609 53.8305 113.38 53.3523 115.406 53.3523C116.637 53.3523 117.83 53.5559 118.986 53.9631C120.141 54.3702 121.178 55.0095 122.097 55.8807C123.015 56.7519 123.739 57.8835 124.27 59.2756C124.8 60.6581 125.065 62.339 125.065 64.3182V65.8238H107.722V62.642H120.903C120.903 61.5246 120.676 60.535 120.222 59.6733C119.767 58.8021 119.128 58.1155 118.304 57.6136C117.489 57.1117 116.533 56.8608 115.435 56.8608C114.241 56.8608 113.2 57.1543 112.31 57.7415C111.429 58.3191 110.747 59.0767 110.264 60.0142C109.791 60.9422 109.554 61.9507 109.554 63.0398V65.5256C109.554 66.9839 109.81 68.2244 110.321 69.2471C110.842 70.2699 111.566 71.0511 112.494 71.5909C113.422 72.1212 114.507 72.3863 115.747 72.3863C116.552 72.3863 117.286 72.2727 117.949 72.0454C118.612 71.8087 119.185 71.4583 119.668 70.9943C120.15 70.5303 120.52 69.9574 120.775 69.2756L124.795 70C124.473 71.1837 123.896 72.2206 123.062 73.1108C122.239 73.9915 121.202 74.678 119.952 75.1704C118.711 75.6534 117.295 75.8949 115.704 75.8949ZM128.898 75.4545V53.6363H133.145V62.7841H135.19L142.392 53.6363H147.648L139.196 64.2471L147.747 75.4545H142.477L135.9 66.7329H133.145V75.4545H128.898ZM158.458 75.8949C156.346 75.8949 154.528 75.4167 153.003 74.4602C151.488 73.4943 150.323 72.1638 149.509 70.4687C148.695 68.7737 148.287 66.8324 148.287 64.6449C148.287 62.429 148.704 60.4735 149.537 58.7784C150.371 57.0738 151.545 55.7434 153.06 54.7869C154.575 53.8305 156.36 53.3523 158.415 53.3523C160.073 53.3523 161.55 53.66 162.847 54.2756C164.145 54.8816 165.191 55.7339 165.986 56.8324C166.791 57.9309 167.27 59.214 167.421 60.6818H163.287C163.06 59.6591 162.539 58.7784 161.725 58.0398C160.92 57.3011 159.841 56.9318 158.486 56.9318C157.303 56.9318 156.266 57.2443 155.376 57.8693C154.495 58.4848 153.808 59.3655 153.316 60.5113C152.823 61.6477 152.577 62.9924 152.577 64.5454C152.577 66.1363 152.819 67.5095 153.302 68.6648C153.785 69.8201 154.466 70.7149 155.347 71.3494C156.237 71.9839 157.284 72.3011 158.486 72.3011C159.291 72.3011 160.02 72.1543 160.674 71.8608C161.337 71.5577 161.891 71.1269 162.336 70.5682C162.79 70.0095 163.108 69.3371 163.287 68.5511H167.421C167.27 69.9621 166.81 71.2216 166.043 72.3295C165.276 73.4375 164.249 74.3087 162.961 74.9432C161.682 75.5776 160.181 75.8949 158.458 75.8949ZM174.279 61.1363H180.614C183.285 61.1363 185.34 61.7992 186.779 63.125C188.218 64.4507 188.938 66.16 188.938 68.2528C188.938 69.6165 188.616 70.8428 187.972 71.9318C187.328 73.0208 186.386 73.8826 185.145 74.517C183.905 75.142 182.394 75.4545 180.614 75.4545H171.083V53.6363H175.245V71.7898H180.614C181.836 71.7898 182.84 71.4725 183.626 70.8381C184.412 70.1941 184.805 69.375 184.805 68.3807C184.805 67.3295 184.412 66.4725 183.626 65.8096C182.84 65.1373 181.836 64.8011 180.614 64.8011H174.279V61.1363ZM192.035 75.4545V53.6363H196.282V75.4545H192.035Z" fill="black"/>
    <path d="M18.3551 169.031C17.6165 169.041 16.9063 169.216 16.2244 169.557C15.5426 169.898 14.9792 170.352 14.5341 170.92C14.0985 171.489 13.8807 172.133 13.8807 172.852H9.875C9.875 171.83 10.1023 170.864 10.5568 169.955C11.0114 169.045 11.6316 168.245 12.4176 167.554C13.2036 166.863 14.108 166.318 15.1307 165.92C16.1534 165.523 17.2282 165.324 18.3551 165.324C20.41 165.324 22.1477 165.826 23.5682 166.83C24.9981 167.824 26.0824 169.15 26.821 170.807C27.5597 172.455 27.929 174.263 27.929 176.233V176.943C27.929 178.913 27.5597 180.726 26.821 182.384C26.0824 184.041 24.9981 185.366 23.5682 186.361C22.1477 187.355 20.41 187.852 18.3551 187.852C16.7074 187.852 15.2443 187.502 13.9659 186.801C12.6875 186.1 11.6837 185.144 10.9545 183.932C10.2348 182.71 9.875 181.318 9.875 179.756H13.8807C13.8807 180.532 14.0843 181.252 14.4915 181.915C14.8987 182.578 15.4384 183.113 16.1108 183.52C16.7926 183.918 17.5407 184.121 18.3551 184.131C19.5767 184.121 20.5852 183.752 21.3807 183.023C22.1856 182.294 22.7822 181.38 23.1705 180.281C23.5682 179.173 23.767 178.061 23.767 176.943V176.233C23.767 175.068 23.5682 173.937 23.1705 172.838C22.7822 171.74 22.1856 170.835 21.3807 170.125C20.5852 169.405 19.5767 169.041 18.3551 169.031ZM25.2585 174.855V178.122H16.3239V174.855H25.2585ZM30.0532 187.455L30.039 183.776H30.8203C31.4263 183.776 31.933 183.648 32.3402 183.392C32.7568 183.127 33.0977 182.682 33.3629 182.057C33.6281 181.432 33.8316 180.57 33.9737 179.472C34.1157 178.364 34.2199 176.972 34.2862 175.295L34.6697 165.636H49.897V187.455H45.7351V169.301H38.6044L38.2635 176.716C38.1782 178.515 37.9936 180.087 37.7095 181.432C37.4349 182.776 37.0324 183.899 36.5021 184.798C35.9718 185.688 35.29 186.356 34.4566 186.801C33.6233 187.237 32.6101 187.455 31.4169 187.455H30.0532ZM64.0845 187.895C61.9348 187.895 60.0835 187.436 58.5305 186.517C56.9869 185.589 55.7937 184.287 54.9509 182.611C54.1176 180.925 53.7009 178.951 53.7009 176.687C53.7009 174.453 54.1176 172.483 54.9509 170.778C55.7937 169.074 56.968 167.743 58.4737 166.787C59.9888 165.83 61.7597 165.352 63.7862 165.352C65.0172 165.352 66.2104 165.556 67.3657 165.963C68.521 166.37 69.5579 167.009 70.4765 167.881C71.3951 168.752 72.1195 169.884 72.6498 171.276C73.1801 172.658 73.4453 174.339 73.4453 176.318V177.824H56.1015V174.642H69.2833C69.2833 173.525 69.0561 172.535 68.6015 171.673C68.147 170.802 67.5078 170.116 66.6839 169.614C65.8695 169.112 64.9131 168.861 63.8146 168.861C62.6214 168.861 61.5797 169.154 60.6896 169.741C59.8089 170.319 59.1271 171.077 58.6441 172.014C58.1706 172.942 57.9339 173.951 57.9339 175.04V177.526C57.9339 178.984 58.1896 180.224 58.7009 181.247C59.2218 182.27 59.9462 183.051 60.8742 183.591C61.8023 184.121 62.8865 184.386 64.1271 184.386C64.932 184.386 65.6659 184.273 66.3288 184.045C66.9917 183.809 67.5646 183.458 68.0475 182.994C68.5305 182.53 68.8998 181.957 69.1555 181.276L73.1754 182C72.8534 183.184 72.2758 184.221 71.4424 185.111C70.6186 185.991 69.5816 186.678 68.3316 187.17C67.0911 187.653 65.6754 187.895 64.0845 187.895ZM89.5219 182.199L96.5674 165.636H100.232L91.0986 187.455H87.9452L78.9964 165.636H82.6185L89.5219 182.199ZM81.4395 165.636V187.455H77.2776V165.636H81.4395ZM97.718 187.455V165.636H101.851V187.455H97.718ZM116.035 187.895C113.886 187.895 112.034 187.436 110.481 186.517C108.938 185.589 107.745 184.287 106.902 182.611C106.069 180.925 105.652 178.951 105.652 176.687C105.652 174.453 106.069 172.483 106.902 170.778C107.745 169.074 108.919 167.743 110.425 166.787C111.94 165.83 113.711 165.352 115.737 165.352C116.968 165.352 118.161 165.556 119.317 165.963C120.472 166.37 121.509 167.009 122.427 167.881C123.346 168.752 124.07 169.884 124.601 171.276C125.131 172.658 125.396 174.339 125.396 176.318V177.824H108.052V174.642H121.234C121.234 173.525 121.007 172.535 120.552 171.673C120.098 170.802 119.459 170.116 118.635 169.614C117.82 169.112 116.864 168.861 115.766 168.861C114.572 168.861 113.531 169.154 112.641 169.741C111.76 170.319 111.078 171.077 110.595 172.014C110.122 172.942 109.885 173.951 109.885 175.04V177.526C109.885 178.984 110.141 180.224 110.652 181.247C111.173 182.27 111.897 183.051 112.825 183.591C113.753 184.121 114.837 184.386 116.078 184.386C116.883 184.386 117.617 184.273 118.28 184.045C118.943 183.809 119.516 183.458 119.998 182.994C120.481 182.53 120.851 181.957 121.106 181.276L125.126 182C124.804 183.184 124.227 184.221 123.393 185.111C122.569 185.991 121.533 186.678 120.283 187.17C119.042 187.653 117.626 187.895 116.035 187.895ZM144.015 174.713V178.392H132.197V174.713H144.015ZM133.39 165.636V187.455H129.229V165.636H133.39ZM146.984 165.636V187.455H142.837V165.636H146.984ZM149.08 169.301V165.636H167.489V169.301H160.373V187.455H156.225V169.301H149.08ZM174.297 173.136H180.633C183.303 173.136 185.358 173.799 186.797 175.125C188.237 176.451 188.956 178.16 188.956 180.253C188.956 181.616 188.635 182.843 187.991 183.932C187.347 185.021 186.404 185.883 185.164 186.517C183.923 187.142 182.413 187.455 180.633 187.455H171.101V165.636H175.263V183.79H180.633C181.854 183.79 182.858 183.473 183.644 182.838C184.43 182.194 184.823 181.375 184.823 180.381C184.823 179.33 184.43 178.473 183.644 177.81C182.858 177.137 181.854 176.801 180.633 176.801H174.297V173.136ZM192.053 187.455V165.636H196.3V187.455H192.053Z" fill="black"/>
</svg>
