<svg width="1408" height="288" viewBox="0 0 1408 288" fill="none" xmlns="http://www.w3.org/2000/svg">
    <rect width="1408" height="288" rx="12" fill="white"/>
    <path d="M428.5 49.5V93C428.5 96.5894 431.411 99.5 435 99.5H478.5V230C478.5 232.486 476.486 234.5 474 234.5H310C307.592 234.5 305.626 232.609 305.506 230.231L305.5 230V54C305.5 51.5144 307.514 49.5 310 49.5H428.5ZM476.379 96.5H435C433.067 96.5 431.5 94.9326 431.5 93V51.6211L476.379 96.5Z" fill="#FFC943"/>
    <path d="M342.03 164.429V127.909H346.277V164.429H342.03ZM342.03 157.44C340.487 157.44 339.08 157.175 337.812 156.645C336.543 156.105 335.449 155.338 334.53 154.344C333.612 153.349 332.901 152.161 332.4 150.778C331.907 149.396 331.661 147.866 331.661 146.19C331.661 144.495 331.907 142.956 332.4 141.574C332.901 140.191 333.612 139.003 334.53 138.009C335.449 137.014 336.543 136.247 337.812 135.707C339.08 135.168 340.487 134.898 342.03 134.898H343.081V157.44H342.03ZM342.03 153.861H342.627V138.477H342.03C341.008 138.477 340.117 138.686 339.36 139.102C338.602 139.509 337.972 140.073 337.471 140.793C336.969 141.503 336.59 142.322 336.334 143.25C336.088 144.178 335.965 145.158 335.965 146.19C335.965 147.573 336.187 148.847 336.633 150.011C337.078 151.167 337.75 152.099 338.65 152.81C339.549 153.51 340.676 153.861 342.03 153.861ZM346.277 157.44H345.212V134.898H346.277C347.821 134.898 349.227 135.168 350.496 135.707C351.765 136.247 352.854 137.014 353.763 138.009C354.682 139.003 355.387 140.191 355.88 141.574C356.382 142.956 356.633 144.495 356.633 146.19C356.633 147.866 356.382 149.396 355.88 150.778C355.387 152.161 354.682 153.349 353.763 154.344C352.854 155.338 351.765 156.105 350.496 156.645C349.227 157.175 347.821 157.44 346.277 157.44ZM346.277 153.861C347.3 153.861 348.19 153.662 348.948 153.264C349.705 152.857 350.335 152.298 350.837 151.588C351.339 150.868 351.713 150.049 351.959 149.131C352.205 148.203 352.329 147.223 352.329 146.19C352.329 144.817 352.106 143.548 351.661 142.384C351.225 141.209 350.558 140.267 349.658 139.557C348.758 138.837 347.632 138.477 346.277 138.477H345.667V153.861H346.277ZM366.821 157.483C365.439 157.483 364.189 157.227 363.071 156.716C361.954 156.195 361.069 155.442 360.415 154.457C359.771 153.473 359.449 152.265 359.449 150.835C359.449 149.604 359.686 148.591 360.159 147.795C360.633 147 361.272 146.37 362.077 145.906C362.882 145.442 363.782 145.092 364.776 144.855C365.77 144.618 366.784 144.438 367.816 144.315C369.123 144.164 370.183 144.041 370.998 143.946C371.812 143.842 372.404 143.676 372.773 143.449C373.142 143.222 373.327 142.852 373.327 142.341V142.241C373.327 141.001 372.977 140.04 372.276 139.358C371.585 138.676 370.552 138.335 369.179 138.335C367.749 138.335 366.623 138.652 365.799 139.287C364.984 139.912 364.421 140.608 364.108 141.375L360.117 140.466C360.59 139.14 361.282 138.07 362.191 137.256C363.109 136.432 364.165 135.835 365.358 135.466C366.552 135.087 367.806 134.898 369.123 134.898C369.994 134.898 370.917 135.002 371.892 135.21C372.877 135.409 373.796 135.778 374.648 136.318C375.51 136.858 376.215 137.63 376.765 138.634C377.314 139.628 377.588 140.92 377.588 142.511V157H373.441V154.017H373.27C372.996 154.566 372.584 155.106 372.034 155.636C371.485 156.167 370.78 156.607 369.918 156.957C369.056 157.308 368.024 157.483 366.821 157.483ZM367.745 154.074C368.919 154.074 369.923 153.842 370.756 153.378C371.599 152.914 372.238 152.308 372.674 151.56C373.119 150.802 373.341 149.992 373.341 149.131V146.318C373.19 146.47 372.896 146.612 372.461 146.744C372.034 146.867 371.547 146.976 370.998 147.071C370.448 147.156 369.913 147.237 369.392 147.312C368.872 147.379 368.436 147.436 368.086 147.483C367.262 147.587 366.509 147.762 365.827 148.009C365.155 148.255 364.615 148.61 364.208 149.074C363.81 149.528 363.611 150.134 363.611 150.892C363.611 151.943 363.999 152.739 364.776 153.278C365.552 153.809 366.542 154.074 367.745 154.074ZM386.527 151.048L396.144 135.182H400.718V157H396.556V141.119L386.982 157H382.365V135.182H386.527V151.048ZM394.326 127.795H397.82C397.82 129.396 397.252 130.698 396.115 131.702C394.989 132.696 393.464 133.193 391.542 133.193C389.629 133.193 388.109 132.696 386.982 131.702C385.855 130.698 385.292 129.396 385.292 127.795H388.772C388.772 128.506 388.98 129.135 389.397 129.685C389.813 130.224 390.528 130.494 391.542 130.494C392.536 130.494 393.246 130.224 393.672 129.685C394.108 129.145 394.326 128.515 394.326 127.795ZM403.829 157L403.815 153.321H404.596C405.202 153.321 405.709 153.193 406.116 152.938C406.533 152.672 406.874 152.227 407.139 151.602C407.404 150.977 407.608 150.116 407.75 149.017C407.892 147.909 407.996 146.517 408.062 144.841L408.446 135.182H423.673V157H419.511V138.847H412.38L412.039 146.261C411.954 148.061 411.77 149.633 411.485 150.977C411.211 152.322 410.808 153.444 410.278 154.344C409.748 155.234 409.066 155.902 408.233 156.347C407.399 156.782 406.386 157 405.193 157H403.829ZM449.143 127.909V157H444.74V132.312H444.569L437.609 136.858V132.653L444.867 127.909H449.143Z" fill="black" fill-opacity="0.8"/>
    <path d="M644.5 49.5V93C644.5 96.5894 647.411 99.5 651 99.5H694.5V230C694.5 232.486 692.486 234.5 690 234.5H526C523.592 234.5 521.626 232.609 521.506 230.231L521.5 230V54C521.5 51.5144 523.514 49.5 526 49.5H644.5ZM692.379 96.5H651C649.067 96.5 647.5 94.9326 647.5 93V51.6211L692.379 96.5Z" fill="#FFC943"/>
    <path d="M555.218 164.429V127.909H559.465V164.429H555.218ZM555.218 157.44C553.674 157.44 552.268 157.175 550.999 156.645C549.73 156.105 548.636 155.338 547.718 154.344C546.799 153.349 546.089 152.161 545.587 150.778C545.095 149.396 544.848 147.866 544.848 146.19C544.848 144.495 545.095 142.956 545.587 141.574C546.089 140.191 546.799 139.003 547.718 138.009C548.636 137.014 549.73 136.247 550.999 135.707C552.268 135.168 553.674 134.898 555.218 134.898H556.269V157.44H555.218ZM555.218 153.861H555.814V138.477H555.218C554.195 138.477 553.305 138.686 552.547 139.102C551.79 139.509 551.16 140.073 550.658 140.793C550.156 141.503 549.777 142.322 549.522 143.25C549.276 144.178 549.152 145.158 549.152 146.19C549.152 147.573 549.375 148.847 549.82 150.011C550.265 151.167 550.937 152.099 551.837 152.81C552.737 153.51 553.864 153.861 555.218 153.861ZM559.465 157.44H558.4V134.898H559.465C561.008 134.898 562.415 135.168 563.684 135.707C564.953 136.247 566.042 137.014 566.951 138.009C567.869 139.003 568.575 140.191 569.067 141.574C569.569 142.956 569.82 144.495 569.82 146.19C569.82 147.866 569.569 149.396 569.067 150.778C568.575 152.161 567.869 153.349 566.951 154.344C566.042 155.338 564.953 156.105 563.684 156.645C562.415 157.175 561.008 157.44 559.465 157.44ZM559.465 153.861C560.488 153.861 561.378 153.662 562.135 153.264C562.893 152.857 563.523 152.298 564.025 151.588C564.526 150.868 564.901 150.049 565.147 149.131C565.393 148.203 565.516 147.223 565.516 146.19C565.516 144.817 565.294 143.548 564.848 142.384C564.413 141.209 563.745 140.267 562.846 139.557C561.946 138.837 560.819 138.477 559.465 138.477H558.854V153.861H559.465ZM580.009 157.483C578.626 157.483 577.376 157.227 576.259 156.716C575.141 156.195 574.256 155.442 573.603 154.457C572.959 153.473 572.637 152.265 572.637 150.835C572.637 149.604 572.874 148.591 573.347 147.795C573.82 147 574.46 146.37 575.265 145.906C576.07 145.442 576.969 145.092 577.963 144.855C578.958 144.618 579.971 144.438 581.003 144.315C582.31 144.164 583.371 144.041 584.185 143.946C584.999 143.842 585.591 143.676 585.961 143.449C586.33 143.222 586.515 142.852 586.515 142.341V142.241C586.515 141.001 586.164 140.04 585.463 139.358C584.772 138.676 583.74 138.335 582.367 138.335C580.937 138.335 579.81 138.652 578.986 139.287C578.172 139.912 577.608 140.608 577.296 141.375L573.304 140.466C573.778 139.14 574.469 138.07 575.378 137.256C576.297 136.432 577.353 135.835 578.546 135.466C579.739 135.087 580.994 134.898 582.31 134.898C583.181 134.898 584.105 135.002 585.08 135.21C586.065 135.409 586.983 135.778 587.836 136.318C588.697 136.858 589.403 137.63 589.952 138.634C590.501 139.628 590.776 140.92 590.776 142.511V157H586.628V154.017H586.458C586.183 154.566 585.771 155.106 585.222 155.636C584.673 156.167 583.967 156.607 583.106 156.957C582.244 157.308 581.212 157.483 580.009 157.483ZM580.932 154.074C582.106 154.074 583.11 153.842 583.944 153.378C584.786 152.914 585.426 152.308 585.861 151.56C586.306 150.802 586.529 149.992 586.529 149.131V146.318C586.377 146.47 586.084 146.612 585.648 146.744C585.222 146.867 584.734 146.976 584.185 147.071C583.636 147.156 583.101 147.237 582.58 147.312C582.059 147.379 581.624 147.436 581.273 147.483C580.449 147.587 579.696 147.762 579.015 148.009C578.342 148.255 577.802 148.61 577.395 149.074C576.998 149.528 576.799 150.134 576.799 150.892C576.799 151.943 577.187 152.739 577.963 153.278C578.74 153.809 579.73 154.074 580.932 154.074ZM599.715 151.048L609.331 135.182H613.905V157H609.743V141.119L600.169 157H595.553V135.182H599.715V151.048ZM607.513 127.795H611.007C611.007 129.396 610.439 130.698 609.303 131.702C608.176 132.696 606.651 133.193 604.729 133.193C602.816 133.193 601.296 132.696 600.169 131.702C599.043 130.698 598.479 129.396 598.479 127.795H601.959C601.959 128.506 602.168 129.135 602.584 129.685C603.001 130.224 603.716 130.494 604.729 130.494C605.723 130.494 606.434 130.224 606.86 129.685C607.295 129.145 607.513 128.515 607.513 127.795ZM617.017 157L617.002 153.321H617.784C618.39 153.321 618.896 153.193 619.304 152.938C619.72 152.672 620.061 152.227 620.326 151.602C620.591 150.977 620.795 150.116 620.937 149.017C621.079 147.909 621.183 146.517 621.25 144.841L621.633 135.182H636.86V157H632.698V138.847H625.568L625.227 146.261C625.142 148.061 624.957 149.633 624.673 150.977C624.398 152.322 623.996 153.444 623.466 154.344C622.935 155.234 622.253 155.902 621.42 156.347C620.587 156.782 619.573 157 618.38 157H617.017ZM651.294 157V153.818L661.137 143.619C662.188 142.511 663.055 141.541 663.737 140.707C664.428 139.865 664.944 139.064 665.285 138.307C665.626 137.549 665.796 136.744 665.796 135.892C665.796 134.926 665.569 134.093 665.115 133.392C664.66 132.682 664.04 132.137 663.254 131.759C662.468 131.37 661.582 131.176 660.598 131.176C659.556 131.176 658.647 131.389 657.87 131.815C657.094 132.241 656.497 132.843 656.081 133.619C655.664 134.396 655.456 135.305 655.456 136.347H651.265C651.265 134.576 651.672 133.027 652.487 131.702C653.301 130.376 654.419 129.348 655.839 128.619C657.26 127.881 658.874 127.511 660.683 127.511C662.51 127.511 664.12 127.876 665.512 128.605C666.914 129.325 668.008 130.31 668.794 131.56C669.58 132.8 669.973 134.202 669.973 135.764C669.973 136.844 669.769 137.9 669.362 138.932C668.964 139.964 668.268 141.115 667.274 142.384C666.279 143.643 664.897 145.172 663.126 146.972L657.345 153.023V153.236H670.441V157H651.294Z" fill="black" fill-opacity="0.8"/>
    <path d="M860.5 49.5V93C860.5 96.5894 863.411 99.5 867 99.5H910.5V230C910.5 232.486 908.486 234.5 906 234.5H742C739.592 234.5 737.626 232.609 737.506 230.231L737.5 230V54C737.5 51.5144 739.514 49.5 742 49.5H860.5ZM908.379 96.5H867C865.067 96.5 863.5 94.9326 863.5 93V51.6211L908.379 96.5Z" fill="#FFC943"/>
    <path d="M770.593 164.429V127.909H774.84V164.429H770.593ZM770.593 157.44C769.049 157.44 767.643 157.175 766.374 156.645C765.105 156.105 764.011 155.338 763.093 154.344C762.174 153.349 761.464 152.161 760.962 150.778C760.47 149.396 760.223 147.866 760.223 146.19C760.223 144.495 760.47 142.956 760.962 141.574C761.464 140.191 762.174 139.003 763.093 138.009C764.011 137.014 765.105 136.247 766.374 135.707C767.643 135.168 769.049 134.898 770.593 134.898H771.644V157.44H770.593ZM770.593 153.861H771.189V138.477H770.593C769.57 138.477 768.68 138.686 767.922 139.102C767.165 139.509 766.535 140.073 766.033 140.793C765.531 141.503 765.152 142.322 764.897 143.25C764.651 144.178 764.527 145.158 764.527 146.19C764.527 147.573 764.75 148.847 765.195 150.011C765.64 151.167 766.312 152.099 767.212 152.81C768.112 153.51 769.239 153.861 770.593 153.861ZM774.84 157.44H773.775V134.898H774.84C776.383 134.898 777.79 135.168 779.059 135.707C780.328 136.247 781.417 137.014 782.326 138.009C783.244 139.003 783.95 140.191 784.442 141.574C784.944 142.956 785.195 144.495 785.195 146.19C785.195 147.866 784.944 149.396 784.442 150.778C783.95 152.161 783.244 153.349 782.326 154.344C781.417 155.338 780.328 156.105 779.059 156.645C777.79 157.175 776.383 157.44 774.84 157.44ZM774.84 153.861C775.863 153.861 776.753 153.662 777.51 153.264C778.268 152.857 778.898 152.298 779.4 151.588C779.901 150.868 780.276 150.049 780.522 149.131C780.768 148.203 780.891 147.223 780.891 146.19C780.891 144.817 780.669 143.548 780.223 142.384C779.788 141.209 779.12 140.267 778.221 139.557C777.321 138.837 776.194 138.477 774.84 138.477H774.229V153.861H774.84ZM795.384 157.483C794.001 157.483 792.751 157.227 791.634 156.716C790.516 156.195 789.631 155.442 788.978 154.457C788.334 153.473 788.012 152.265 788.012 150.835C788.012 149.604 788.249 148.591 788.722 147.795C789.195 147 789.835 146.37 790.64 145.906C791.445 145.442 792.344 145.092 793.338 144.855C794.333 144.618 795.346 144.438 796.378 144.315C797.685 144.164 798.746 144.041 799.56 143.946C800.374 143.842 800.966 143.676 801.336 143.449C801.705 143.222 801.89 142.852 801.89 142.341V142.241C801.89 141.001 801.539 140.04 800.838 139.358C800.147 138.676 799.115 138.335 797.742 138.335C796.312 138.335 795.185 138.652 794.361 139.287C793.547 139.912 792.983 140.608 792.671 141.375L788.679 140.466C789.153 139.14 789.844 138.07 790.753 137.256C791.672 136.432 792.728 135.835 793.921 135.466C795.114 135.087 796.369 134.898 797.685 134.898C798.556 134.898 799.48 135.002 800.455 135.21C801.44 135.409 802.358 135.778 803.211 136.318C804.072 136.858 804.778 137.63 805.327 138.634C805.876 139.628 806.151 140.92 806.151 142.511V157H802.003V154.017H801.833C801.558 154.566 801.146 155.106 800.597 155.636C800.048 156.167 799.342 156.607 798.481 156.957C797.619 157.308 796.587 157.483 795.384 157.483ZM796.307 154.074C797.481 154.074 798.485 153.842 799.319 153.378C800.161 152.914 800.801 152.308 801.236 151.56C801.681 150.802 801.904 149.992 801.904 149.131V146.318C801.752 146.47 801.459 146.612 801.023 146.744C800.597 146.867 800.109 146.976 799.56 147.071C799.011 147.156 798.476 147.237 797.955 147.312C797.434 147.379 796.999 147.436 796.648 147.483C795.824 147.587 795.071 147.762 794.39 148.009C793.717 148.255 793.177 148.61 792.77 149.074C792.373 149.528 792.174 150.134 792.174 150.892C792.174 151.943 792.562 152.739 793.338 153.278C794.115 153.809 795.105 154.074 796.307 154.074ZM815.09 151.048L824.706 135.182H829.28V157H825.118V141.119L815.544 157H810.928V135.182H815.09V151.048ZM822.888 127.795H826.382C826.382 129.396 825.814 130.698 824.678 131.702C823.551 132.696 822.026 133.193 820.104 133.193C818.191 133.193 816.671 132.696 815.544 131.702C814.418 130.698 813.854 129.396 813.854 127.795H817.334C817.334 128.506 817.543 129.135 817.959 129.685C818.376 130.224 819.091 130.494 820.104 130.494C821.098 130.494 821.809 130.224 822.235 129.685C822.67 129.145 822.888 128.515 822.888 127.795ZM832.392 157L832.377 153.321H833.159C833.765 153.321 834.271 153.193 834.679 152.938C835.095 152.672 835.436 152.227 835.701 151.602C835.966 150.977 836.17 150.116 836.312 149.017C836.454 147.909 836.558 146.517 836.625 144.841L837.008 135.182H852.235V157H848.073V138.847H840.943L840.602 146.261C840.517 148.061 840.332 149.633 840.048 150.977C839.773 152.322 839.371 153.444 838.841 154.344C838.31 155.234 837.628 155.902 836.795 156.347C835.962 156.782 834.948 157 833.755 157H832.392ZM876.796 157.398C874.846 157.398 873.103 157.062 871.569 156.389C870.045 155.717 868.837 154.784 867.947 153.591C867.066 152.388 866.593 150.996 866.527 149.415H870.987C871.044 150.277 871.332 151.025 871.853 151.659C872.384 152.284 873.075 152.767 873.927 153.108C874.779 153.449 875.726 153.619 876.768 153.619C877.914 153.619 878.927 153.42 879.808 153.023C880.698 152.625 881.394 152.071 881.896 151.361C882.398 150.641 882.649 149.812 882.649 148.875C882.649 147.9 882.398 147.043 881.896 146.304C881.403 145.556 880.679 144.969 879.723 144.543C878.776 144.116 877.63 143.903 876.285 143.903H873.828V140.324H876.285C877.365 140.324 878.312 140.13 879.126 139.741C879.95 139.353 880.594 138.813 881.058 138.122C881.522 137.421 881.754 136.602 881.754 135.665C881.754 134.765 881.55 133.984 881.143 133.321C880.745 132.649 880.177 132.123 879.438 131.744C878.709 131.366 877.848 131.176 876.853 131.176C875.906 131.176 875.021 131.351 874.197 131.702C873.383 132.043 872.72 132.535 872.208 133.179C871.697 133.813 871.422 134.576 871.385 135.466H867.137C867.185 133.894 867.649 132.511 868.529 131.318C869.42 130.125 870.594 129.192 872.052 128.52C873.51 127.848 875.13 127.511 876.91 127.511C878.776 127.511 880.385 127.876 881.74 128.605C883.103 129.325 884.154 130.286 884.893 131.489C885.641 132.691 886.01 134.008 886.001 135.438C886.01 137.066 885.556 138.449 884.637 139.585C883.728 140.722 882.516 141.484 881.001 141.872V142.099C882.933 142.393 884.429 143.16 885.49 144.401C886.56 145.641 887.09 147.18 887.081 149.017C887.09 150.617 886.645 152.052 885.745 153.321C884.855 154.59 883.638 155.589 882.095 156.318C880.551 157.038 878.785 157.398 876.796 157.398Z" fill="black" fill-opacity="0.8"/>
    <path d="M1076.5 49.5V93C1076.5 96.5894 1079.41 99.5 1083 99.5H1126.5V230C1126.5 232.486 1124.49 234.5 1122 234.5H958C955.592 234.5 953.626 232.609 953.506 230.231L953.5 230V54C953.5 51.5144 955.514 49.5 958 49.5H1076.5ZM1124.38 96.5H1083C1081.07 96.5 1079.5 94.9326 1079.5 93V51.6211L1124.38 96.5Z" fill="#FFC943"/>
    <path d="M986.397 164.429V127.909H990.645V164.429H986.397ZM986.397 157.44C984.854 157.44 983.448 157.175 982.179 156.645C980.91 156.105 979.816 155.338 978.897 154.344C977.979 153.349 977.269 152.161 976.767 150.778C976.274 149.396 976.028 147.866 976.028 146.19C976.028 144.495 976.274 142.956 976.767 141.574C977.269 140.191 977.979 139.003 978.897 138.009C979.816 137.014 980.91 136.247 982.179 135.707C983.448 135.168 984.854 134.898 986.397 134.898H987.449V157.44H986.397ZM986.397 153.861H986.994V138.477H986.397C985.375 138.477 984.485 138.686 983.727 139.102C982.969 139.509 982.34 140.073 981.838 140.793C981.336 141.503 980.957 142.322 980.701 143.25C980.455 144.178 980.332 145.158 980.332 146.19C980.332 147.573 980.555 148.847 981 150.011C981.445 151.167 982.117 152.099 983.017 152.81C983.916 153.51 985.043 153.861 986.397 153.861ZM990.645 157.44H989.579V134.898H990.645C992.188 134.898 993.594 135.168 994.863 135.707C996.132 136.247 997.221 137.014 998.13 138.009C999.049 139.003 999.754 140.191 1000.25 141.574C1000.75 142.956 1001 144.495 1001 146.19C1001 147.866 1000.75 149.396 1000.25 150.778C999.754 152.161 999.049 153.349 998.13 154.344C997.221 155.338 996.132 156.105 994.863 156.645C993.594 157.175 992.188 157.44 990.645 157.44ZM990.645 153.861C991.667 153.861 992.557 153.662 993.315 153.264C994.073 152.857 994.702 152.298 995.204 151.588C995.706 150.868 996.08 150.049 996.326 149.131C996.573 148.203 996.696 147.223 996.696 146.19C996.696 144.817 996.473 143.548 996.028 142.384C995.593 141.209 994.925 140.267 994.025 139.557C993.126 138.837 991.999 138.477 990.645 138.477H990.034V153.861H990.645ZM1011.19 157.483C1009.81 157.483 1008.56 157.227 1007.44 156.716C1006.32 156.195 1005.44 155.442 1004.78 154.457C1004.14 153.473 1003.82 152.265 1003.82 150.835C1003.82 149.604 1004.05 148.591 1004.53 147.795C1005 147 1005.64 146.37 1006.44 145.906C1007.25 145.442 1008.15 145.092 1009.14 144.855C1010.14 144.618 1011.15 144.438 1012.18 144.315C1013.49 144.164 1014.55 144.041 1015.36 143.946C1016.18 143.842 1016.77 143.676 1017.14 143.449C1017.51 143.222 1017.69 142.852 1017.69 142.341V142.241C1017.69 141.001 1017.34 140.04 1016.64 139.358C1015.95 138.676 1014.92 138.335 1013.55 138.335C1012.12 138.335 1010.99 138.652 1010.17 139.287C1009.35 139.912 1008.79 140.608 1008.48 141.375L1004.48 140.466C1004.96 139.14 1005.65 138.07 1006.56 137.256C1007.48 136.432 1008.53 135.835 1009.73 135.466C1010.92 135.087 1012.17 134.898 1013.49 134.898C1014.36 134.898 1015.28 135.002 1016.26 135.21C1017.24 135.409 1018.16 135.778 1019.02 136.318C1019.88 136.858 1020.58 137.63 1021.13 138.634C1021.68 139.628 1021.96 140.92 1021.96 142.511V157H1017.81V154.017H1017.64C1017.36 154.566 1016.95 155.106 1016.4 155.636C1015.85 156.167 1015.15 156.607 1014.29 156.957C1013.42 157.308 1012.39 157.483 1011.19 157.483ZM1012.11 154.074C1013.29 154.074 1014.29 153.842 1015.12 153.378C1015.97 152.914 1016.61 152.308 1017.04 151.56C1017.49 150.802 1017.71 149.992 1017.71 149.131V146.318C1017.56 146.47 1017.26 146.612 1016.83 146.744C1016.4 146.867 1015.91 146.976 1015.36 147.071C1014.82 147.156 1014.28 147.237 1013.76 147.312C1013.24 147.379 1012.8 147.436 1012.45 147.483C1011.63 147.587 1010.88 147.762 1010.19 148.009C1009.52 148.255 1008.98 148.61 1008.57 149.074C1008.18 149.528 1007.98 150.134 1007.98 150.892C1007.98 151.943 1008.37 152.739 1009.14 153.278C1009.92 153.809 1010.91 154.074 1012.11 154.074ZM1030.89 151.048L1040.51 135.182H1045.08V157H1040.92V141.119L1031.35 157H1026.73V135.182H1030.89V151.048ZM1038.69 127.795H1042.19C1042.19 129.396 1041.62 130.698 1040.48 131.702C1039.36 132.696 1037.83 133.193 1035.91 133.193C1034 133.193 1032.48 132.696 1031.35 131.702C1030.22 130.698 1029.66 129.396 1029.66 127.795H1033.14C1033.14 128.506 1033.35 129.135 1033.76 129.685C1034.18 130.224 1034.9 130.494 1035.91 130.494C1036.9 130.494 1037.61 130.224 1038.04 129.685C1038.48 129.145 1038.69 128.515 1038.69 127.795ZM1048.2 157L1048.18 153.321H1048.96C1049.57 153.321 1050.08 153.193 1050.48 152.938C1050.9 152.672 1051.24 152.227 1051.51 151.602C1051.77 150.977 1051.97 150.116 1052.12 149.017C1052.26 147.909 1052.36 146.517 1052.43 144.841L1052.81 135.182H1068.04V157H1063.88V138.847H1056.75L1056.41 146.261C1056.32 148.061 1056.14 149.633 1055.85 150.977C1055.58 152.322 1055.18 153.444 1054.65 154.344C1054.11 155.234 1053.43 155.902 1052.6 156.347C1051.77 156.782 1050.75 157 1049.56 157H1048.2ZM1081.86 151.318V147.767L1094.43 127.909H1097.23V133.136H1095.46L1086.46 147.369V147.597H1103.69V151.318H1081.86ZM1095.66 157V150.239L1095.68 148.619V127.909H1099.85V157H1095.66Z" fill="black" fill-opacity="0.8"/>
    <path d="M272 16H1152" stroke="#757575" stroke-width="4" stroke-linecap="round" stroke-linejoin="bevel"/>
    <path d="M272 272H1152" stroke="#757575" stroke-width="4" stroke-linecap="round" stroke-linejoin="bevel"/>
    <path d="M64 94C62.8954 94 62 94.8954 62 96C62 97.1046 62.8954 98 64 98V96V94ZM273.414 145.414C274.195 144.633 274.195 143.367 273.414 142.586L260.686 129.858C259.905 129.077 258.639 129.077 257.858 129.858C257.077 130.639 257.077 131.905 257.858 132.686L269.172 144L257.858 155.314C257.077 156.095 257.077 157.361 257.858 158.142C258.639 158.923 259.905 158.923 260.686 158.142L273.414 145.414ZM64 96V98C115.581 98 141.275 109.868 167.162 121.816C193.275 133.868 219.581 146 272 146V144V142C220.419 142 194.725 130.132 168.838 118.184C142.725 106.132 116.419 94 64 94V96Z" fill="#757575"/>
    <path d="M1152 142C1150.9 142 1150 142.895 1150 144C1150 145.105 1150.9 146 1152 146V144V142ZM1345.41 97.4142C1346.2 96.6332 1346.2 95.3668 1345.41 94.5858L1332.69 81.8579C1331.91 81.0768 1330.64 81.0768 1329.86 81.8579C1329.08 82.6389 1329.08 83.9052 1329.86 84.6863L1341.17 96L1329.86 107.314C1329.08 108.095 1329.08 109.361 1329.86 110.142C1330.64 110.923 1331.91 110.923 1332.69 110.142L1345.41 97.4142ZM1152 144V146C1200.45 146 1224.78 133.845 1248.89 121.789C1272.78 109.845 1296.45 98 1344 98V96V94C1295.55 94 1271.22 106.155 1247.11 118.211C1223.22 130.155 1199.55 142 1152 142V144Z" fill="#757575"/>
    <path d="M16.7244 70.7471V60.7756H18.5C18.9545 60.3589 19.3381 59.8617 19.6506 59.2841C19.9725 58.7064 20.2424 58.0199 20.4602 57.2244C20.6875 56.429 20.8769 55.5009 21.0284 54.4403C21.1799 53.3702 21.3125 52.1487 21.4261 50.7756L22.108 42.6363H36.9375V60.7756H40.2898V70.7471H36.142V64.4545H20.929V70.7471H16.7244ZM23.0455 60.7756H32.7898V46.2727H25.9148L25.4602 50.7756C25.2424 53.0672 24.9678 55.0559 24.6364 56.7415C24.3049 58.4176 23.7746 59.7623 23.0455 60.7756ZM52.7514 64.8949C50.7059 64.8949 48.9209 64.4261 47.3963 63.4886C45.8717 62.5511 44.6879 61.2396 43.8451 59.554C43.0023 57.8684 42.5809 55.8987 42.5809 53.6449C42.5809 51.3816 43.0023 49.4024 43.8451 47.7074C44.6879 46.0123 45.8717 44.696 47.3963 43.7585C48.9209 42.821 50.7059 42.3523 52.7514 42.3523C54.7968 42.3523 56.5819 42.821 58.1065 43.7585C59.6311 44.696 60.8148 46.0123 61.6576 47.7074C62.5004 49.4024 62.9218 51.3816 62.9218 53.6449C62.9218 55.8987 62.5004 57.8684 61.6576 59.554C60.8148 61.2396 59.6311 62.5511 58.1065 63.4886C56.5819 64.4261 54.7968 64.8949 52.7514 64.8949ZM52.7656 61.3295C54.0914 61.3295 55.1898 60.9791 56.0611 60.2784C56.9323 59.5776 57.5762 58.6449 57.9929 57.4801C58.419 56.3153 58.6321 55.0322 58.6321 53.6307C58.6321 52.2386 58.419 50.9602 57.9929 49.7954C57.5762 48.6212 56.9323 47.679 56.0611 46.9687C55.1898 46.2585 54.0914 45.9034 52.7656 45.9034C51.4304 45.9034 50.3224 46.2585 49.4417 46.9687C48.5705 47.679 47.9218 48.6212 47.4957 49.7954C47.079 50.9602 46.8707 52.2386 46.8707 53.6307C46.8707 55.0322 47.079 56.3153 47.4957 57.4801C47.9218 58.6449 48.5705 59.5776 49.4417 60.2784C50.3224 60.9791 51.4304 61.3295 52.7656 61.3295ZM83.615 34.5113L85.3764 37.196C84.723 37.7926 83.9796 38.2187 83.1463 38.4744C82.3224 38.7206 81.3707 38.8769 80.2911 38.9432C79.2116 39 77.9758 39.0521 76.5838 39.0994C75.0118 39.1468 73.7192 39.4877 72.7059 40.1221C71.6927 40.7471 70.9114 41.6752 70.3622 42.9062C69.8224 44.1278 69.472 45.6619 69.311 47.5085H69.5809C70.2911 46.1543 71.276 45.1411 72.5355 44.4687C73.8044 43.7964 75.2296 43.4602 76.811 43.4602C78.5724 43.4602 80.1396 43.8627 81.5127 44.6676C82.8858 45.4725 83.9654 46.6515 84.7514 48.2045C85.5468 49.7481 85.9445 51.6373 85.9445 53.8721C85.9445 56.1354 85.5279 58.0909 84.6945 59.7386C83.8707 61.3863 82.7059 62.66 81.2002 63.5596C79.704 64.4498 77.9379 64.8949 75.9019 64.8949C73.8659 64.8949 72.0904 64.4356 70.5752 63.517C69.0695 62.589 67.9 61.2159 67.0667 59.3977C66.2428 57.5795 65.8309 55.3352 65.8309 52.6648V50.5057C65.8309 45.5151 66.7211 41.7604 68.5014 39.2415C70.2817 36.7225 72.9427 35.4299 76.4843 35.3636C77.6302 35.3352 78.6529 35.3305 79.5525 35.3494C80.4521 35.3589 81.2381 35.3163 81.9105 35.2216C82.5923 35.1174 83.1605 34.8807 83.615 34.5113ZM75.9161 61.3295C77.0999 61.3295 78.1178 61.0312 78.9701 60.4346C79.8319 59.8286 80.4947 58.9716 80.9588 57.8636C81.4228 56.7557 81.6548 55.4488 81.6548 53.9432C81.6548 52.4659 81.4228 51.2112 80.9588 50.179C80.4947 49.1468 79.8319 48.3608 78.9701 47.821C78.1084 47.2718 77.0762 46.9971 75.8735 46.9971C74.9834 46.9971 74.1879 47.1534 73.4872 47.4659C72.7864 47.7689 72.1851 48.2187 71.6832 48.8153C71.1908 49.4119 70.8072 50.1411 70.5326 51.0028C70.2675 51.8551 70.1254 52.8352 70.1065 53.9432C70.1065 56.197 70.6226 57.9915 71.6548 59.3267C72.6964 60.6619 74.1169 61.3295 75.9161 61.3295ZM96.1583 64.9375C94.7757 64.9375 93.5257 64.6818 92.4083 64.1704C91.2909 63.6496 90.4055 62.8968 89.752 61.9119C89.1081 60.9271 88.7861 59.7197 88.7861 58.2898C88.7861 57.0587 89.0229 56.0454 89.4964 55.25C89.9698 54.4545 90.6091 53.8248 91.414 53.3608C92.2189 52.8968 93.1185 52.5464 94.1128 52.3096C95.1072 52.0729 96.1204 51.893 97.1526 51.7699C98.4594 51.6184 99.52 51.4952 100.334 51.4006C101.149 51.2964 101.741 51.1307 102.11 50.9034C102.479 50.6761 102.664 50.3068 102.664 49.7954V49.696C102.664 48.4555 102.314 47.4943 101.613 46.8125C100.922 46.1307 99.8894 45.7898 98.5163 45.7898C97.0863 45.7898 95.9594 46.107 95.1356 46.7415C94.3212 47.3665 93.7577 48.0625 93.4452 48.8295L89.4538 47.9204C89.9272 46.5947 90.6185 45.5246 91.5276 44.7102C92.4462 43.8863 93.502 43.2898 94.6952 42.9204C95.8884 42.5416 97.1431 42.3523 98.4594 42.3523C99.3306 42.3523 100.254 42.4564 101.229 42.6648C102.214 42.8636 103.133 43.2329 103.985 43.7727C104.847 44.3125 105.552 45.0843 106.101 46.0881C106.651 47.0824 106.925 48.375 106.925 49.9659V64.4545H102.778V61.4716H102.607C102.333 62.0208 101.921 62.5606 101.371 63.0909C100.822 63.6212 100.117 64.0615 99.2549 64.4119C98.3931 64.7623 97.3609 64.9375 96.1583 64.9375ZM97.0816 61.5284C98.2558 61.5284 99.2596 61.2964 100.093 60.8324C100.936 60.3684 101.575 59.7623 102.011 59.0142C102.456 58.2566 102.678 57.447 102.678 56.5852V53.7727C102.527 53.9242 102.233 54.0663 101.798 54.1988C101.371 54.322 100.884 54.4309 100.334 54.5256C99.7852 54.6108 99.2502 54.6913 98.7293 54.767C98.2085 54.8333 97.7729 54.8901 97.4225 54.9375C96.5986 55.0416 95.8458 55.2168 95.164 55.4631C94.4916 55.7093 93.9519 56.0644 93.5447 56.5284C93.1469 56.9829 92.9481 57.589 92.9481 58.3466C92.9481 59.3977 93.3363 60.1932 94.1128 60.7329C94.8894 61.2632 95.8789 61.5284 97.0816 61.5284ZM111.702 64.4545V42.6363H120.751C123.213 42.6363 125.163 43.1619 126.603 44.2131C128.042 45.2547 128.762 46.6704 128.762 48.4602C128.762 49.7386 128.355 50.7519 127.54 51.5C126.726 52.2481 125.646 52.75 124.302 53.0057C125.277 53.1193 126.172 53.4129 126.986 53.8863C127.801 54.3504 128.454 54.9754 128.947 55.7613C129.449 56.5473 129.699 57.4848 129.699 58.5738C129.699 59.7291 129.401 60.7519 128.805 61.642C128.208 62.5227 127.342 63.214 126.205 63.7159C125.078 64.2083 123.719 64.4545 122.128 64.4545H111.702ZM115.694 60.9034H122.128C123.18 60.9034 124.003 60.6524 124.6 60.1506C125.197 59.6487 125.495 58.9668 125.495 58.1051C125.495 57.0918 125.197 56.2964 124.6 55.7187C124.003 55.1316 123.18 54.8381 122.128 54.8381H115.694V60.9034ZM115.694 51.7273H120.793C121.589 51.7273 122.27 51.6136 122.839 51.3863C123.416 51.1591 123.857 50.8371 124.16 50.4204C124.472 49.9943 124.628 49.4924 124.628 48.9148C124.628 48.072 124.283 47.4138 123.592 46.9403C122.9 46.4668 121.953 46.2301 120.751 46.2301H115.694V51.7273ZM131.76 64.4545L131.746 60.7756H132.527C133.133 60.7756 133.64 60.6477 134.047 60.392C134.463 60.1269 134.804 59.6818 135.069 59.0568C135.335 58.4318 135.538 57.5701 135.68 56.4716C135.822 55.3636 135.926 53.9716 135.993 52.2954L136.376 42.6363H151.604V64.4545H147.442V46.3011H140.311L139.97 53.7159C139.885 55.5151 139.7 57.0871 139.416 58.4318C139.141 59.7765 138.739 60.8987 138.209 61.7983C137.678 62.6884 136.997 63.356 136.163 63.8011C135.33 64.2367 134.317 64.4545 133.123 64.4545H131.76ZM165.791 64.8949C163.641 64.8949 161.79 64.4356 160.237 63.517C158.693 62.589 157.5 61.2869 156.658 59.6108C155.824 57.9252 155.408 55.9507 155.408 53.6875C155.408 51.4526 155.824 49.4829 156.658 47.7784C157.5 46.0738 158.675 44.7434 160.18 43.7869C161.695 42.8305 163.466 42.3523 165.493 42.3523C166.724 42.3523 167.917 42.5559 169.072 42.9631C170.228 43.3702 171.265 44.0095 172.183 44.8807C173.102 45.7519 173.826 46.8835 174.356 48.2756C174.887 49.6581 175.152 51.339 175.152 53.3182V54.8238H157.808V51.642H170.99C170.99 50.5246 170.763 49.535 170.308 48.6733C169.854 47.8021 169.214 47.1155 168.39 46.6136C167.576 46.1117 166.62 45.8608 165.521 45.8608C164.328 45.8608 163.286 46.1543 162.396 46.7415C161.515 47.3191 160.834 48.0767 160.351 49.0142C159.877 49.9422 159.64 50.9507 159.64 52.0398V54.5256C159.64 55.9839 159.896 57.2244 160.408 58.2471C160.928 59.2699 161.653 60.0511 162.581 60.5909C163.509 61.1212 164.593 61.3863 165.834 61.3863C166.639 61.3863 167.372 61.2727 168.035 61.0454C168.698 60.8087 169.271 60.4583 169.754 59.9943C170.237 59.5303 170.606 58.9574 170.862 58.2756L174.882 59C174.56 60.1837 173.982 61.2206 173.149 62.1108C172.325 62.9915 171.288 63.678 170.038 64.1704C168.798 64.6534 167.382 64.8949 165.791 64.8949ZM193.771 51.7131V55.392H181.953V51.7131H193.771ZM183.146 42.6363V64.4545H178.984V42.6363H183.146ZM196.74 42.6363V64.4545H192.592V42.6363H196.74ZM205.704 58.5028L215.32 42.6363H219.894V64.4545H215.732V48.5738L206.158 64.4545H201.542V42.6363H205.704V58.5028ZM234.128 64.8949C231.978 64.8949 230.127 64.4356 228.574 63.517C227.03 62.589 225.837 61.2869 224.994 59.6108C224.161 57.9252 223.744 55.9507 223.744 53.6875C223.744 51.4526 224.161 49.4829 224.994 47.7784C225.837 46.0738 227.011 44.7434 228.517 43.7869C230.032 42.8305 231.803 42.3523 233.829 42.3523C235.06 42.3523 236.254 42.5559 237.409 42.9631C238.564 43.3702 239.601 44.0095 240.52 44.8807C241.438 45.7519 242.163 46.8835 242.693 48.2756C243.223 49.6581 243.488 51.339 243.488 53.3182V54.8238H226.145V51.642H239.326C239.326 50.5246 239.099 49.535 238.645 48.6733C238.19 47.8021 237.551 47.1155 236.727 46.6136C235.913 46.1117 234.956 45.8608 233.858 45.8608C232.665 45.8608 231.623 46.1543 230.733 46.7415C229.852 47.3191 229.17 48.0767 228.687 49.0142C228.214 49.9422 227.977 50.9507 227.977 52.0398V54.5256C227.977 55.9839 228.233 57.2244 228.744 58.2471C229.265 59.2699 229.989 60.0511 230.917 60.5909C231.845 61.1212 232.93 61.3863 234.17 61.3863C234.975 61.3863 235.709 61.2727 236.372 61.0454C237.035 60.8087 237.608 60.4583 238.091 59.9943C238.574 59.5303 238.943 58.9574 239.199 58.2756L243.218 59C242.897 60.1837 242.319 61.2206 241.486 62.1108C240.662 62.9915 239.625 63.678 238.375 64.1704C237.134 64.6534 235.718 64.8949 234.128 64.8949Z" fill="#1E1E1E"/>
    <path d="M1175.02 58.5028L1184.63 42.6363H1189.21V64.4545H1185.05V48.5738L1175.47 64.4545H1170.86V42.6363H1175.02V58.5028ZM1192.75 58.6875H1197.09C1197.15 59.5776 1197.55 60.2642 1198.3 60.7471C1199.06 61.2301 1200.04 61.4716 1201.24 61.4716C1202.46 61.4716 1203.5 61.2112 1204.36 60.6903C1205.23 60.16 1205.66 59.3409 1205.66 58.2329C1205.66 57.5701 1205.49 56.9924 1205.16 56.5C1204.84 55.9981 1204.38 55.6098 1203.78 55.3352C1203.19 55.0606 1202.5 54.9233 1201.69 54.9233H1198.14V51.5852H1201.69C1202.9 51.5852 1203.8 51.3106 1204.39 50.7613C1204.99 50.2121 1205.29 49.5256 1205.29 48.7017C1205.29 47.8115 1204.97 47.0966 1204.32 46.5568C1203.69 46.0076 1202.8 45.7329 1201.67 45.7329C1200.51 45.7329 1199.55 45.9934 1198.78 46.5142C1198.01 47.0256 1197.61 47.6884 1197.57 48.5028H1193.28C1193.31 47.2812 1193.68 46.2112 1194.39 45.2926C1195.11 44.3646 1196.08 43.6449 1197.29 43.1335C1198.51 42.6127 1199.9 42.3523 1201.45 42.3523C1203.07 42.3523 1204.47 42.6127 1205.66 43.1335C1206.84 43.6543 1207.75 44.374 1208.4 45.2926C1209.05 46.2112 1209.38 47.267 1209.38 48.4602C1209.38 49.6629 1209.02 50.6477 1208.3 51.4148C1207.59 52.1723 1206.66 52.7168 1205.51 53.0483V53.2756C1206.36 53.3324 1207.11 53.5881 1207.76 54.0426C1208.41 54.4971 1208.92 55.0985 1209.29 55.8466C1209.66 56.5947 1209.85 57.4422 1209.85 58.3892C1209.85 59.7244 1209.48 60.8797 1208.74 61.8551C1208.01 62.8305 1207 63.5833 1205.7 64.1136C1204.41 64.6345 1202.94 64.8949 1201.28 64.8949C1199.67 64.8949 1198.23 64.6439 1196.95 64.142C1195.68 63.6307 1194.67 62.911 1193.92 61.9829C1193.19 61.0549 1192.79 59.9564 1192.75 58.6875ZM1213.35 64.4545V42.6363H1222.4C1224.86 42.6363 1226.81 43.1619 1228.25 44.2131C1229.69 45.2547 1230.41 46.6704 1230.41 48.4602C1230.41 49.7386 1230.01 50.7519 1229.19 51.5C1228.38 52.2481 1227.3 52.75 1225.95 53.0057C1226.93 53.1193 1227.82 53.4129 1228.64 53.8863C1229.45 54.3504 1230.1 54.9754 1230.6 55.7613C1231.1 56.5473 1231.35 57.4848 1231.35 58.5738C1231.35 59.7291 1231.05 60.7519 1230.46 61.642C1229.86 62.5227 1228.99 63.214 1227.86 63.7159C1226.73 64.2083 1225.37 64.4545 1223.78 64.4545H1213.35ZM1217.34 60.9034H1223.78C1224.83 60.9034 1225.65 60.6524 1226.25 60.1506C1226.85 59.6487 1227.15 58.9668 1227.15 58.1051C1227.15 57.0918 1226.85 56.2964 1226.25 55.7187C1225.65 55.1316 1224.83 54.8381 1223.78 54.8381H1217.34V60.9034ZM1217.34 51.7273H1222.44C1223.24 51.7273 1223.92 51.6136 1224.49 51.3863C1225.07 51.1591 1225.51 50.8371 1225.81 50.4204C1226.12 49.9943 1226.28 49.4924 1226.28 48.9148C1226.28 48.072 1225.93 47.4138 1225.24 46.9403C1224.55 46.4668 1223.6 46.2301 1222.4 46.2301H1217.34V51.7273ZM1233.41 64.4545L1233.4 60.7756H1234.18C1234.78 60.7756 1235.29 60.6477 1235.7 60.392C1236.11 60.1269 1236.45 59.6818 1236.72 59.0568C1236.99 58.4318 1237.19 57.5701 1237.33 56.4716C1237.47 55.3636 1237.58 53.9716 1237.64 52.2954L1238.03 42.6363H1253.25V64.4545H1249.09V46.3011H1241.96L1241.62 53.7159C1241.54 55.5151 1241.35 57.0871 1241.07 58.4318C1240.79 59.7765 1240.39 60.8987 1239.86 61.7983C1239.33 62.6884 1238.65 63.356 1237.81 63.8011C1236.98 64.2367 1235.97 64.4545 1234.77 64.4545H1233.41ZM1267.44 64.8949C1265.29 64.8949 1263.44 64.4356 1261.89 63.517C1260.34 62.589 1259.15 61.2869 1258.31 59.6108C1257.47 57.9252 1257.06 55.9507 1257.06 53.6875C1257.06 51.4526 1257.47 49.4829 1258.31 47.7784C1259.15 46.0738 1260.33 44.7434 1261.83 43.7869C1263.35 42.8305 1265.12 42.3523 1267.14 42.3523C1268.37 42.3523 1269.57 42.5559 1270.72 42.9631C1271.88 43.3702 1272.92 44.0095 1273.83 44.8807C1274.75 45.7519 1275.48 46.8835 1276.01 48.2756C1276.54 49.6581 1276.8 51.339 1276.8 53.3182V54.8238H1259.46V51.642H1272.64C1272.64 50.5246 1272.41 49.535 1271.96 48.6733C1271.5 47.8021 1270.86 47.1155 1270.04 46.6136C1269.23 46.1117 1268.27 45.8608 1267.17 45.8608C1265.98 45.8608 1264.94 46.1543 1264.05 46.7415C1263.17 47.3191 1262.48 48.0767 1262 49.0142C1261.53 49.9422 1261.29 50.9507 1261.29 52.0398V54.5256C1261.29 55.9839 1261.55 57.2244 1262.06 58.2471C1262.58 59.2699 1263.3 60.0511 1264.23 60.5909C1265.16 61.1212 1266.24 61.3863 1267.48 61.3863C1268.29 61.3863 1269.02 61.2727 1269.69 61.0454C1270.35 60.8087 1270.92 60.4583 1271.4 59.9943C1271.89 59.5303 1272.26 58.9574 1272.51 58.2756L1276.53 59C1276.21 60.1837 1275.63 61.2206 1274.8 62.1108C1273.98 62.9915 1272.94 63.678 1271.69 64.1704C1270.45 64.6534 1269.03 64.8949 1267.44 64.8949ZM1298.15 42.6363V64.4545H1294V42.6363H1298.15ZM1296.35 52.7642V56.429C1295.69 56.6941 1295 56.9309 1294.27 57.1392C1293.54 57.3381 1292.77 57.4943 1291.97 57.6079C1291.17 57.7216 1290.33 57.7784 1289.46 57.7784C1286.76 57.7784 1284.61 57.1202 1283.02 55.804C1281.43 54.4782 1280.63 52.4517 1280.63 49.7244V42.5937H1284.77V49.7244C1284.77 50.7566 1284.96 51.5947 1285.34 52.2386C1285.72 52.8826 1286.26 53.356 1286.96 53.6591C1287.66 53.9621 1288.49 54.1136 1289.46 54.1136C1290.73 54.1136 1291.91 53.9952 1292.99 53.7585C1294.08 53.5123 1295.2 53.1809 1296.35 52.7642ZM1312.32 64.8949C1310.17 64.8949 1308.32 64.4356 1306.77 63.517C1305.22 62.589 1304.03 61.2869 1303.19 59.6108C1302.36 57.9252 1301.94 55.9507 1301.94 53.6875C1301.94 51.4526 1302.36 49.4829 1303.19 47.7784C1304.03 46.0738 1305.21 44.7434 1306.71 43.7869C1308.23 42.8305 1310 42.3523 1312.02 42.3523C1313.26 42.3523 1314.45 42.5559 1315.6 42.9631C1316.76 43.3702 1317.8 44.0095 1318.71 44.8807C1319.63 45.7519 1320.36 46.8835 1320.89 48.2756C1321.42 49.6581 1321.68 51.339 1321.68 53.3182V54.8238H1304.34V51.642H1317.52C1317.52 50.5246 1317.29 49.535 1316.84 48.6733C1316.38 47.8021 1315.75 47.1155 1314.92 46.6136C1314.11 46.1117 1313.15 45.8608 1312.05 45.8608C1310.86 45.8608 1309.82 46.1543 1308.93 46.7415C1308.05 47.3191 1307.36 48.0767 1306.88 49.0142C1306.41 49.9422 1306.17 50.9507 1306.17 52.0398V54.5256C1306.17 55.9839 1306.43 57.2244 1306.94 58.2471C1307.46 59.2699 1308.18 60.0511 1309.11 60.5909C1310.04 61.1212 1311.12 61.3863 1312.36 61.3863C1313.17 61.3863 1313.9 61.2727 1314.57 61.0454C1315.23 60.8087 1315.8 60.4583 1316.29 59.9943C1316.77 59.5303 1317.14 58.9574 1317.39 58.2756L1321.41 59C1321.09 60.1837 1320.51 61.2206 1319.68 62.1108C1318.86 62.9915 1317.82 63.678 1316.57 64.1704C1315.33 64.6534 1313.91 64.8949 1312.32 64.8949ZM1340.3 51.7131V55.392H1328.48V51.7131H1340.3ZM1329.68 42.6363V64.4545H1325.52V42.6363H1329.68ZM1343.27 42.6363V64.4545H1339.12V42.6363H1343.27ZM1352.23 58.5028L1361.85 42.6363H1366.43V64.4545H1362.26V48.5738L1352.69 64.4545H1348.07V42.6363H1352.23V58.5028ZM1380.66 64.8949C1378.51 64.8949 1376.66 64.4356 1375.1 63.517C1373.56 62.589 1372.37 61.2869 1371.53 59.6108C1370.69 57.9252 1370.28 55.9507 1370.28 53.6875C1370.28 51.4526 1370.69 49.4829 1371.53 47.7784C1372.37 46.0738 1373.54 44.7434 1375.05 43.7869C1376.56 42.8305 1378.33 42.3523 1380.36 42.3523C1381.59 42.3523 1382.78 42.5559 1383.94 42.9631C1385.1 43.3702 1386.13 44.0095 1387.05 44.8807C1387.97 45.7519 1388.69 46.8835 1389.22 48.2756C1389.75 49.6581 1390.02 51.339 1390.02 53.3182V54.8238H1372.68V51.642H1385.86C1385.86 50.5246 1385.63 49.535 1385.18 48.6733C1384.72 47.8021 1384.08 47.1155 1383.26 46.6136C1382.44 46.1117 1381.49 45.8608 1380.39 45.8608C1379.2 45.8608 1378.15 46.1543 1377.26 46.7415C1376.38 47.3191 1375.7 48.0767 1375.22 49.0142C1374.75 49.9422 1374.51 50.9507 1374.51 52.0398V54.5256C1374.51 55.9839 1374.76 57.2244 1375.28 58.2471C1375.8 59.2699 1376.52 60.0511 1377.45 60.5909C1378.38 61.1212 1379.46 61.3863 1380.7 61.3863C1381.51 61.3863 1382.24 61.2727 1382.9 61.0454C1383.57 60.8087 1384.14 60.4583 1384.62 59.9943C1385.1 59.5303 1385.47 58.9574 1385.73 58.2756L1389.75 59C1389.43 60.1837 1388.85 61.2206 1388.02 62.1108C1387.19 62.9915 1386.16 63.678 1384.91 64.1704C1383.67 64.6534 1382.25 64.8949 1380.66 64.8949Z" fill="#1E1E1E"/>
</svg>
